<?xml version="1.0" encoding="utf-8"?>
<!-- Generator: Adobe Illustrator 26.0.2, SVG Export Plug-In . SVG Version: 6.00 Build 0)  -->
<svg version="1.1" id="Ebene_1" xmlns="http://www.w3.org/2000/svg" xmlns:xlink="http://www.w3.org/1999/xlink" x="0px" y="0px"
	 viewBox="0 0 370 92.8" style="enable-background:new 0 0 370 92.8;" xml:space="preserve">
<style type="text/css">
	.st0{clip-path:url(#SVGID_00000154418329242899353440000017286806361132177079_);fill:#FF9D00;}
	
		.st1{clip-path:url(#SVGID_00000154418329242899353440000017286806361132177079_);fill:none;stroke:#FF9D00;stroke-width:0.576;stroke-miterlimit:10;}
	
		.st2{clip-path:url(#SVGID_00000154418329242899353440000017286806361132177079_);fill:none;stroke:#FF9D00;stroke-width:2.304;stroke-miterlimit:10;}
	
		.st3{clip-path:url(#SVGID_00000154418329242899353440000017286806361132177079_);fill:none;stroke:#FF9D00;stroke-width:0.449;stroke-miterlimit:10;}
	
		.st4{clip-path:url(#SVGID_00000154418329242899353440000017286806361132177079_);fill:none;stroke:#FF9D00;stroke-width:0.722;stroke-miterlimit:10;}
	.st5{fill:none;stroke:#FF9D00;stroke-width:1.728;stroke-linecap:round;stroke-linejoin:round;stroke-dasharray:0,3.329;}
	.st6{fill:none;stroke:#FF9D00;stroke-width:1.728;stroke-linecap:round;stroke-linejoin:round;}
</style>
<g>
	<defs>
		<rect id="SVGID_1_" width="370" height="92.8"/>
	</defs>
	<clipPath id="SVGID_00000008864478104563169340000016631613080498068391_">
		<use xlink:href="#SVGID_1_"  style="overflow:visible;"/>
	</clipPath>
	<path style="clip-path:url(#SVGID_00000008864478104563169340000016631613080498068391_);fill:#FF9D00;" d="M339.8,33.2l-9.2,2.3
		l3.1-5.4l7.8-2c-0.3,1.8-0.8,3.5-1.6,5.1C339.9,33.2,339.9,33.2,339.8,33.2 M327.3,50.4h-1.1v-6.5c0.4,0,0.8-0.1,1.1-0.1V50.4z
		 M330.2,21.6l2.2,7.7l-3.1,5.4l-2.6-9.1c0,0,0-0.1,0-0.1C327.6,24,328.8,22.7,330.2,21.6 M333.5,27.2l-1.8-6.4
		c0-0.1-0.1-0.2-0.1-0.3c2.2-1.4,4.7-2.3,7.3-2.6L333.5,27.2z M341.5,26.4l-6.5,1.7l5.4-9.3c1,2.5,1.5,5.1,1.4,7.7
		C341.7,26.4,341.6,26.4,341.5,26.4 M325.1,28.5c0.1-0.3,0.2-0.6,0.4-0.9l2.2,8l0.2,0.9l0.1,0.3l-0.5,0.8l-0.2,0.3l-0.7,1.2
		l-0.4,0.7l-0.7,1.2l0,0l-0.1,0.2c0,0,0-0.1,0-0.1c-0.1-0.1-0.1-0.3-0.2-0.4c-0.3-0.7-0.5-1.5-0.7-2.2c-0.6-2.6-0.7-5.2-0.1-7.7
		c0.1-0.4,0.2-0.8,0.3-1.3C324.8,29.3,324.9,28.9,325.1,28.5 M319.7,44.3c0.4,0,0.8,0,1.1,0v6.1h-1.1V44.3z M322.6,42.6
		c-0.3,0-0.6,0-0.9,0.1c-0.3,0-0.6,0-0.9,0c-0.4,0-0.8,0-1.1,0c-0.3,0-0.6,0-0.9-0.1c-0.3,0-0.6-0.1-0.9-0.1
		c-0.7-0.1-1.3-0.3-1.9-0.5c-0.6-0.2-1.1-0.4-1.7-0.6c-1.7-0.7-3.3-1.8-4.7-3.1c-3.9-3.9-5.3-9.7-4-15.6c5.9-1.4,11.7,0.1,15.6,4
		c0.7,0.7,1.3,1.4,1.8,2.2c-0.8,2.3-1,4.8-0.8,7.2c0,0.5,0.1,1.1,0.2,1.6c0,0.2,0.1,0.5,0.1,0.7l-0.1-0.1l-0.9-0.9l-0.8-0.8
		l-0.9-0.9l-6.9-6.9c-0.3-0.3-0.9-0.3-1.2,0c-0.3,0.3-0.3,0.9,0,1.2l6.2,6.2l0.8,0.8l0.9,0.9l1.1,1.1l0.9,0.9l0.9,0.9l1.2,1.2
		c0.1,0.2,0.2,0.4,0.3,0.6C323.5,42.5,323,42.5,322.6,42.6 M332.7,40.4c-0.6,0.3-1.1,0.5-1.7,0.7c-0.6,0.2-1.3,0.4-1.9,0.6
		c-0.3,0.1-0.6,0.1-0.9,0.2c-0.3,0.1-0.6,0.1-0.9,0.2c-0.1,0-0.2,0-0.3,0c-0.1,0-0.1,0-0.2,0l0.3-0.5l0.2-0.3l0.9-1.5l0.9-1.5
		l0.4-0.8l1.5-0.4l1.7-0.4l6-1.5C337.1,37.5,335.1,39.2,332.7,40.4 M341.2,16.5c-0.2-0.3-0.5-0.5-0.8-0.5
		c-6.7,0.3-12.5,3.7-15.7,9.2c-0.3,0.5-0.6,1-0.8,1.6c-0.4-0.5-0.9-1.1-1.4-1.5c-4.4-4.4-11-6-17.7-4.3c-0.3,0.1-0.5,0.3-0.6,0.6
		c-1.7,6.7-0.1,13.3,4.3,17.7c1.7,1.7,3.7,2.9,5.9,3.8v8.3c0,3.8,1.4,6.6,4,8c1.1,0.6,1.7,1.7,1.7,3v14.3h1.7V62.5
		c0-1.9-1-3.6-2.6-4.5c-2.1-1.2-3.1-3.3-3.1-6.5v-7.8c0.6,0.2,1.3,0.3,1.9,0.4v7.1c0,0.5,0.4,0.9,0.9,0.9h2.8c0.5,0,0.9-0.4,0.9-0.9
		v-7c0.6-0.1,1.3-0.1,1.9-0.2v7.2c0,0.5,0.4,0.9,0.9,0.9h2.8c0.5,0,0.9-0.4,0.9-0.9v-7.8c0.7-0.2,1.3-0.3,1.9-0.6v8.5
		c0,3.2-1.1,5.4-3.1,6.5c-1.6,0.9-2.6,2.6-2.6,4.5v14.3h1.7V62.5c0-1.2,0.7-2.4,1.7-3c2.6-1.5,4-4.2,4-8v-9.2
		c3.5-1.6,6.4-4.2,8.4-7.5C344.3,29.2,344.3,22.4,341.2,16.5"/>
	
		<path style="clip-path:url(#SVGID_00000008864478104563169340000016631613080498068391_);fill:none;stroke:#FF9D00;stroke-width:0.576;stroke-miterlimit:10;" d="
		M339.8,33.2l-9.2,2.3l3.1-5.4l7.8-2c-0.3,1.8-0.8,3.5-1.6,5.1C339.9,33.2,339.9,33.2,339.8,33.2z M327.3,50.4h-1.1v-6.5
		c0.4,0,0.8-0.1,1.1-0.1V50.4z M330.2,21.6l2.2,7.7l-3.1,5.4l-2.6-9.1c0,0,0-0.1,0-0.1C327.6,24,328.8,22.7,330.2,21.6z M333.5,27.2
		l-1.8-6.4c0-0.1-0.1-0.2-0.1-0.3c2.2-1.4,4.7-2.3,7.3-2.6L333.5,27.2z M341.5,26.4l-6.5,1.7l5.4-9.3c1,2.5,1.5,5.1,1.4,7.7
		C341.7,26.4,341.6,26.4,341.5,26.4z M325.1,28.5c0.1-0.3,0.2-0.6,0.4-0.9l2.2,8l0.2,0.9l0.1,0.3l-0.5,0.8l-0.2,0.3l-0.7,1.2
		l-0.4,0.7l-0.7,1.2l0,0l-0.1,0.2c0,0,0-0.1,0-0.1c-0.1-0.1-0.1-0.3-0.2-0.4c-0.3-0.7-0.5-1.5-0.7-2.2c-0.6-2.6-0.7-5.2-0.1-7.7
		c0.1-0.4,0.2-0.8,0.3-1.3C324.8,29.3,324.9,28.9,325.1,28.5z M319.7,44.3c0.4,0,0.8,0,1.1,0v6.1h-1.1V44.3z M322.6,42.6
		c-0.3,0-0.6,0-0.9,0.1c-0.3,0-0.6,0-0.9,0c-0.4,0-0.8,0-1.1,0c-0.3,0-0.6,0-0.9-0.1c-0.3,0-0.6-0.1-0.9-0.1
		c-0.7-0.1-1.3-0.3-1.9-0.5c-0.6-0.2-1.1-0.4-1.7-0.6c-1.7-0.7-3.3-1.8-4.7-3.1c-3.9-3.9-5.3-9.7-4-15.6c5.9-1.4,11.7,0.1,15.6,4
		c0.7,0.7,1.3,1.4,1.8,2.2c-0.8,2.3-1,4.8-0.8,7.2c0,0.5,0.1,1.1,0.2,1.6c0,0.2,0.1,0.5,0.1,0.7l-0.1-0.1l-0.9-0.9l-0.8-0.8
		l-0.9-0.9l-6.9-6.9c-0.3-0.3-0.9-0.3-1.2,0c-0.3,0.3-0.3,0.9,0,1.2l6.2,6.2l0.8,0.8l0.9,0.9l1.1,1.1l0.9,0.9l0.9,0.9l1.2,1.2
		c0.1,0.2,0.2,0.4,0.3,0.6C323.5,42.5,323,42.5,322.6,42.6z M332.7,40.4c-0.6,0.3-1.1,0.5-1.7,0.7c-0.6,0.2-1.3,0.4-1.9,0.6
		c-0.3,0.1-0.6,0.1-0.9,0.2c-0.3,0.1-0.6,0.1-0.9,0.2c-0.1,0-0.2,0-0.3,0c-0.1,0-0.1,0-0.2,0l0.3-0.5l0.2-0.3l0.9-1.5l0.9-1.5
		l0.4-0.8l1.5-0.4l1.7-0.4l6-1.5C337.1,37.5,335.1,39.2,332.7,40.4z M341.2,16.5c-0.2-0.3-0.5-0.5-0.8-0.5
		c-6.7,0.3-12.5,3.7-15.7,9.2c-0.3,0.5-0.6,1-0.8,1.6c-0.4-0.5-0.9-1.1-1.4-1.5c-4.4-4.4-11-6-17.7-4.3c-0.3,0.1-0.5,0.3-0.6,0.6
		c-1.7,6.7-0.1,13.3,4.3,17.7c1.7,1.7,3.7,2.9,5.9,3.8v8.3c0,3.8,1.4,6.6,4,8c1.1,0.6,1.7,1.7,1.7,3v14.3h1.7V62.5
		c0-1.9-1-3.6-2.6-4.5c-2.1-1.2-3.1-3.3-3.1-6.5v-7.8c0.6,0.2,1.3,0.3,1.9,0.4v7.1c0,0.5,0.4,0.9,0.9,0.9h2.8c0.5,0,0.9-0.4,0.9-0.9
		v-7c0.6-0.1,1.3-0.1,1.9-0.2v7.2c0,0.5,0.4,0.9,0.9,0.9h2.8c0.5,0,0.9-0.4,0.9-0.9v-7.8c0.7-0.2,1.3-0.3,1.9-0.6v8.5
		c0,3.2-1.1,5.4-3.1,6.5c-1.6,0.9-2.6,2.6-2.6,4.5v14.3h1.7V62.5c0-1.2,0.7-2.4,1.7-3c2.6-1.5,4-4.2,4-8v-9.2
		c3.5-1.6,6.4-4.2,8.4-7.5C344.3,29.2,344.3,22.4,341.2,16.5z"/>
	
		<path style="clip-path:url(#SVGID_00000008864478104563169340000016631613080498068391_);fill:none;stroke:#FF9D00;stroke-width:2.304;stroke-miterlimit:10;" d="
		M77.7,91.7H15.1c-7.7,0-14-6.3-14-14V15.1c0-7.7,6.3-14,14-14h62.6c7.7,0,14,6.3,14,14v62.6C91.7,85.4,85.4,91.7,77.7,91.7z"/>
	<path style="clip-path:url(#SVGID_00000008864478104563169340000016631613080498068391_);fill:#FF9D00;" d="M199.1,60.5
		c-0.5,0-1-0.4-1-1v-26c0-0.5,0.4-1,1-1c0.5,0,1,0.4,1,1v26C200.1,60,199.6,60.5,199.1,60.5"/>
	<path style="clip-path:url(#SVGID_00000008864478104563169340000016631613080498068391_);fill:#FF9D00;" d="M176.6,55.2
		c-3.2,0-5.8,2.6-5.8,5.8c0,3.2,2.6,5.8,5.8,5.8c3.2,0,5.8-2.6,5.8-5.8C182.4,57.8,179.8,55.2,176.6,55.2 M176.6,68.7
		c-4.3,0-7.7-3.5-7.7-7.7s3.5-7.7,7.7-7.7c4.3,0,7.7,3.5,7.7,7.7S180.9,68.7,176.6,68.7"/>
	<path style="clip-path:url(#SVGID_00000008864478104563169340000016631613080498068391_);fill:#FF9D00;" d="M176.6,59.3
		c-0.9,0-1.7,0.7-1.7,1.7c0,0.9,0.8,1.7,1.7,1.7c0.9,0,1.7-0.7,1.7-1.7C178.3,60.1,177.5,59.3,176.6,59.3 M176.6,64.6
		c-2,0-3.6-1.6-3.6-3.6c0-2,1.6-3.6,3.6-3.6c2,0,3.6,1.6,3.6,3.6C180.2,63,178.6,64.6,176.6,64.6"/>
	<path style="clip-path:url(#SVGID_00000008864478104563169340000016631613080498068391_);fill:#FF9D00;" d="M209.6,59.3
		c-0.9,0-1.7,0.7-1.7,1.7c0,0.9,0.7,1.7,1.7,1.7c0.9,0,1.7-0.7,1.7-1.7C211.3,60.1,210.5,59.3,209.6,59.3 M209.6,64.6
		c-2,0-3.6-1.6-3.6-3.6c0-2,1.6-3.6,3.6-3.6c2,0,3.6,1.6,3.6,3.6C213.2,63,211.6,64.6,209.6,64.6"/>
	<path style="clip-path:url(#SVGID_00000008864478104563169340000016631613080498068391_);fill:#FF9D00;" d="M209.6,55.2
		c-3.2,0-5.8,2.6-5.8,5.8c0,3.2,2.6,5.8,5.8,5.8c3.2,0,5.8-2.6,5.8-5.8C215.4,57.8,212.8,55.2,209.6,55.2 M209.6,68.7
		c-4.3,0-7.7-3.5-7.7-7.7s3.5-7.7,7.7-7.7c4.3,0,7.7,3.5,7.7,7.7S213.9,68.7,209.6,68.7"/>
	<path style="clip-path:url(#SVGID_00000008864478104563169340000016631613080498068391_);fill:#FF9D00;" d="M220.6,60.5h-4.4
		c-0.5,0-0.9-0.3-1-0.8c-0.6-2.6-2.9-4.5-5.6-4.5c-2.7,0-5,1.8-5.6,4.5c-0.1,0.4-0.5,0.8-1,0.8h-19.9c-0.5,0-0.9-0.3-1-0.8
		c-0.6-2.6-2.9-4.5-5.6-4.5c-2.7,0-5,1.8-5.6,4.5c-0.1,0.4-0.5,0.8-1,0.8h-8.6c-0.5,0-1-0.4-1-1V45c0-0.5,0.4-1,1-1c0.5,0,1,0.4,1,1
		v13.4h6.8c1.1-3.1,4-5.2,7.3-5.2c3.4,0,6.3,2.1,7.3,5.2h18.4c1.1-3.1,4-5.2,7.3-5.2c3.4,0,6.3,2.1,7.3,5.2h2.7V46l-6.3-11.6h-14.2
		c-0.5,0-1-0.4-1-1v-7.1H182c-0.5,0-1-0.4-1-1s0.4-1,1-1h17.1c0.5,0,1,0.4,1,1v7.1h13.8c0.4,0,0.7,0.2,0.9,0.5l6.7,12.3
		c0.1,0.1,0.1,0.3,0.1,0.5v13.7C221.6,60,221.1,60.5,220.6,60.5"/>
	<path style="clip-path:url(#SVGID_00000008864478104563169340000016631613080498068391_);fill:#FF9D00;" d="M205.9,44.8h13
		l-3.9-7.1l-9.2,0V44.8z M220.6,46.7h-15.7c-0.5,0-1-0.4-1-1v-9c0-0.5,0.4-1,1-1l10.7,0c0.4,0,0.7,0.2,0.9,0.5l4.9,9.1
		c0.2,0.3,0.2,0.7,0,1C221.2,46.5,220.9,46.7,220.6,46.7"/>
	<path style="clip-path:url(#SVGID_00000008864478104563169340000016631613080498068391_);fill:#FF9D00;" d="M174.9,29.5
		c-4.9,0-8.8,3.9-8.8,8.8c0,4.9,3.9,8.8,8.8,8.8c4.9,0,8.8-3.9,8.8-8.8C183.7,33.5,179.8,29.5,174.9,29.5 M174.9,49.1
		c-5.9,0-10.8-4.8-10.8-10.8c0-5.9,4.8-10.8,10.8-10.8c5.9,0,10.8,4.8,10.8,10.8C185.7,44.3,180.9,49.1,174.9,49.1"/>
	<path style="clip-path:url(#SVGID_00000008864478104563169340000016631613080498068391_);fill:#FF9D00;" d="M161.5,40.8h-2
		c-0.5,0-1-0.4-1-1c0-0.5,0.4-1,1-1h2c0.5,0,1,0.4,1,1C162.5,40.3,162,40.8,161.5,40.8"/>
	<path style="clip-path:url(#SVGID_00000008864478104563169340000016631613080498068391_);fill:#FF9D00;" d="M156.8,40.8h-2.7
		c-0.5,0-1-0.4-1-1c0-0.5,0.4-1,1-1h2.7c0.5,0,1,0.4,1,1C157.8,40.3,157.3,40.8,156.8,40.8"/>
	<path style="clip-path:url(#SVGID_00000008864478104563169340000016631613080498068391_);fill:#FF9D00;" d="M151.4,40.8h-2
		c-0.5,0-1-0.4-1-1c0-0.5,0.4-1,1-1h2c0.5,0,1,0.4,1,1C152.3,40.3,151.9,40.8,151.4,40.8"/>
	<path style="clip-path:url(#SVGID_00000008864478104563169340000016631613080498068391_);fill:#FF9D00;" d="M162.5,33.4h-2
		c-0.5,0-1-0.4-1-1c0-0.5,0.4-1,1-1h2c0.5,0,1,0.4,1,1C163.5,33,163.1,33.4,162.5,33.4"/>
	<path style="clip-path:url(#SVGID_00000008864478104563169340000016631613080498068391_);fill:#FF9D00;" d="M157.5,33.4h-3.1
		c-0.5,0-1-0.4-1-1c0-0.5,0.4-1,1-1h3.1c0.5,0,1,0.4,1,1C158.5,33,158,33.4,157.5,33.4"/>
	<path style="clip-path:url(#SVGID_00000008864478104563169340000016631613080498068391_);fill:#FF9D00;" d="M151.4,33.4h-2
		c-0.5,0-1-0.4-1-1c0-0.5,0.4-1,1-1h2c0.5,0,1,0.4,1,1C152.3,33,151.9,33.4,151.4,33.4"/>
	<path style="clip-path:url(#SVGID_00000008864478104563169340000016631613080498068391_);fill:#FF9D00;" d="M169.2,26.1h-2
		c-0.5,0-1-0.4-1-1c0-0.5,0.4-1,1-1h2c0.5,0,1,0.4,1,1C170.2,25.7,169.8,26.1,169.2,26.1"/>
	<path style="clip-path:url(#SVGID_00000008864478104563169340000016631613080498068391_);fill:#FF9D00;" d="M157.7,26.1h-3.2
		c-0.5,0-1-0.4-1-1c0-0.5,0.4-1,1-1h3.2c0.5,0,1,0.4,1,1C158.7,25.7,158.3,26.1,157.7,26.1 M164.1,26.1h-3.2c-0.5,0-1-0.4-1-1
		c0-0.5,0.4-1,1-1h3.2c0.5,0,1,0.4,1,1C165.1,25.7,164.6,26.1,164.1,26.1"/>
	<path style="clip-path:url(#SVGID_00000008864478104563169340000016631613080498068391_);fill:#FF9D00;" d="M151.4,26.1h-2
		c-0.5,0-1-0.4-1-1c0-0.5,0.4-1,1-1h2c0.5,0,1,0.4,1,1C152.3,25.7,151.9,26.1,151.4,26.1"/>
	<path style="clip-path:url(#SVGID_00000008864478104563169340000016631613080498068391_);fill:#FF9D00;" d="M199.1,55.2h-37.6
		c-0.5,0-1-0.4-1-1c0-0.5,0.4-1,1-1h37.6c0.5,0,1,0.4,1,1C200.1,54.8,199.6,55.2,199.1,55.2"/>
	<path style="clip-path:url(#SVGID_00000008864478104563169340000016631613080498068391_);fill:#FF9D00;" d="M194.2,49.1
		c-0.5,0-1-0.4-1-1V29.3c0-0.5,0.4-1,1-1c0.5,0,1,0.4,1,1v18.8C195.2,48.6,194.8,49.1,194.2,49.1"/>
	<path style="clip-path:url(#SVGID_00000008864478104563169340000016631613080498068391_);fill:#FF9D00;" d="M217.2,68.7h-63.8
		c-0.5,0-1-0.4-1-1c0-0.5,0.4-1,1-1h63.8c0.5,0,1,0.4,1,1C218.1,68.3,217.7,68.7,217.2,68.7"/>
	<path style="clip-path:url(#SVGID_00000008864478104563169340000016631613080498068391_);fill:#FF9D00;" d="M179.4,35.5
		C179.4,35.5,179.4,35.5,179.4,35.5l-1.2-0.2c-0.1,0-0.2-0.1-0.2-0.2l-0.2-1.1c0-0.2,0.1-0.3,0.2-0.3c0.2,0,0.3,0.1,0.3,0.2l0.2,0.9
		l0.9,0.2c0.2,0,0.3,0.2,0.2,0.3C179.7,35.4,179.5,35.5,179.4,35.5"/>
	
		<path style="clip-path:url(#SVGID_00000008864478104563169340000016631613080498068391_);fill:none;stroke:#FF9D00;stroke-width:0.449;stroke-miterlimit:10;" d="
		M179.4,35.5C179.4,35.5,179.4,35.5,179.4,35.5l-1.2-0.2c-0.1,0-0.2-0.1-0.2-0.2l-0.2-1.1c0-0.2,0.1-0.3,0.2-0.3
		c0.2,0,0.3,0.1,0.3,0.2l0.2,0.9l0.9,0.2c0.2,0,0.3,0.2,0.2,0.3C179.7,35.4,179.5,35.5,179.4,35.5z"/>
	<path style="clip-path:url(#SVGID_00000008864478104563169340000016631613080498068391_);fill:#FF9D00;" d="M179.6,38.6h-3.1
		c-0.1,0-0.2,0-0.2-0.1c-0.1-0.1-0.1-0.2,0-0.2l0.1-0.5l-0.4-0.2c-0.1-0.1-0.2-0.2-0.1-0.4c0.1-0.1,0.2-0.2,0.4-0.1l0.7,0.3
		c0.1,0.1,0.2,0.2,0.2,0.3l-0.1,0.4h2.7c0.2,0,0.3,0.1,0.3,0.3C179.9,38.5,179.8,38.6,179.6,38.6"/>
	
		<path style="clip-path:url(#SVGID_00000008864478104563169340000016631613080498068391_);fill:none;stroke:#FF9D00;stroke-width:0.449;stroke-miterlimit:10;" d="
		M179.6,38.6h-3.1c-0.1,0-0.2,0-0.2-0.1c-0.1-0.1-0.1-0.2,0-0.2l0.1-0.5l-0.4-0.2c-0.1-0.1-0.2-0.2-0.1-0.4c0.1-0.1,0.2-0.2,0.4-0.1
		l0.7,0.3c0.1,0.1,0.2,0.2,0.2,0.3l-0.1,0.4h2.7c0.2,0,0.3,0.1,0.3,0.3C179.9,38.5,179.8,38.6,179.6,38.6z"/>
	<path style="clip-path:url(#SVGID_00000008864478104563169340000016631613080498068391_);fill:#FF9D00;" d="M180.3,39.5
		c-0.1,0-0.2,0-0.2-0.1l-0.7-0.9c-0.1-0.1-0.1-0.2,0-0.3l0.7-0.9c0.1-0.1,0.3-0.2,0.4-0.1c0.1,0.1,0.2,0.3,0.1,0.4l-0.6,0.8l0.6,0.8
		c0.1,0.1,0.1,0.3-0.1,0.4C180.4,39.5,180.3,39.5,180.3,39.5"/>
	
		<path style="clip-path:url(#SVGID_00000008864478104563169340000016631613080498068391_);fill:none;stroke:#FF9D00;stroke-width:0.449;stroke-miterlimit:10;" d="
		M180.3,39.5c-0.1,0-0.2,0-0.2-0.1l-0.7-0.9c-0.1-0.1-0.1-0.2,0-0.3l0.7-0.9c0.1-0.1,0.3-0.2,0.4-0.1c0.1,0.1,0.2,0.3,0.1,0.4
		l-0.6,0.8l0.6,0.8c0.1,0.1,0.1,0.3-0.1,0.4C180.4,39.5,180.3,39.5,180.3,39.5z"/>
	<path style="clip-path:url(#SVGID_00000008864478104563169340000016631613080498068391_);fill:#FF9D00;" d="M178.3,41.8
		c-0.1,0-0.1,0-0.2-0.1l-2.2-2.2c-0.1-0.1-0.1-0.2-0.1-0.2s0.1-0.2,0.2-0.2l0.4-0.2l-0.1-0.5c0-0.2,0.1-0.3,0.2-0.3
		c0.2,0,0.3,0.1,0.3,0.2L177,39c0,0.1,0,0.3-0.1,0.3l-0.3,0.1l1.9,1.9c0.1,0.1,0.1,0.3,0,0.4C178.4,41.8,178.3,41.8,178.3,41.8"/>
	
		<path style="clip-path:url(#SVGID_00000008864478104563169340000016631613080498068391_);fill:none;stroke:#FF9D00;stroke-width:0.449;stroke-miterlimit:10;" d="
		M178.3,41.8c-0.1,0-0.1,0-0.2-0.1l-2.2-2.2c-0.1-0.1-0.1-0.2-0.1-0.2s0.1-0.2,0.2-0.2l0.4-0.2l-0.1-0.5c0-0.2,0.1-0.3,0.2-0.3
		c0.2,0,0.3,0.1,0.3,0.2L177,39c0,0.1,0,0.3-0.1,0.3l-0.3,0.1l1.9,1.9c0.1,0.1,0.1,0.3,0,0.4C178.4,41.8,178.3,41.8,178.3,41.8z"/>
	<path style="clip-path:url(#SVGID_00000008864478104563169340000016631613080498068391_);fill:#FF9D00;" d="M178.1,43
		C178,43,178,43,178.1,43c-0.2,0-0.3-0.2-0.3-0.3l0.2-1.1c0-0.1,0.1-0.2,0.2-0.2l1.1-0.2c0.2,0,0.3,0.1,0.3,0.2
		c0,0.2-0.1,0.3-0.2,0.3l-0.9,0.2l-0.2,0.9C178.3,42.9,178.2,43,178.1,43"/>
	
		<path style="clip-path:url(#SVGID_00000008864478104563169340000016631613080498068391_);fill:none;stroke:#FF9D00;stroke-width:0.449;stroke-miterlimit:10;" d="
		M178.1,43C178,43,178,43,178.1,43c-0.2,0-0.3-0.2-0.3-0.3l0.2-1.1c0-0.1,0.1-0.2,0.2-0.2l1.1-0.2c0.2,0,0.3,0.1,0.3,0.2
		c0,0.2-0.1,0.3-0.2,0.3l-0.9,0.2l-0.2,0.9C178.3,42.9,178.2,43,178.1,43z"/>
	<path style="clip-path:url(#SVGID_00000008864478104563169340000016631613080498068391_);fill:#FF9D00;" d="M175,43.2
		c-0.2,0-0.3-0.1-0.3-0.3v-3.1c0-0.1,0-0.2,0.1-0.2c0.1-0.1,0.2-0.1,0.2,0l0.5,0.1l0.2-0.4c0.1-0.1,0.3-0.2,0.4-0.1
		c0.1,0.1,0.2,0.3,0.1,0.4l-0.4,0.6c-0.1,0.1-0.2,0.2-0.3,0.1l-0.3-0.1v2.7C175.3,43.1,175.2,43.2,175,43.2"/>
	
		<path style="clip-path:url(#SVGID_00000008864478104563169340000016631613080498068391_);fill:none;stroke:#FF9D00;stroke-width:0.449;stroke-miterlimit:10;" d="
		M175,43.2c-0.2,0-0.3-0.1-0.3-0.3v-3.1c0-0.1,0-0.2,0.1-0.2c0.1-0.1,0.2-0.1,0.2,0l0.5,0.1l0.2-0.4c0.1-0.1,0.3-0.2,0.4-0.1
		c0.1,0.1,0.2,0.3,0.1,0.4l-0.4,0.6c-0.1,0.1-0.2,0.2-0.3,0.1l-0.3-0.1v2.7C175.3,43.1,175.2,43.2,175,43.2z"/>
	<path style="clip-path:url(#SVGID_00000008864478104563169340000016631613080498068391_);fill:#FF9D00;" d="M174.1,43.9
		c-0.1,0-0.2,0-0.2-0.1c-0.1-0.1-0.1-0.3,0.1-0.4l0.9-0.7c0.1-0.1,0.2-0.1,0.3,0l0.9,0.7c0.1,0.1,0.2,0.3,0.1,0.4
		c-0.1,0.1-0.3,0.2-0.4,0.1l-0.8-0.6l-0.8,0.6C174.2,43.9,174.1,43.9,174.1,43.9"/>
	
		<path style="clip-path:url(#SVGID_00000008864478104563169340000016631613080498068391_);fill:none;stroke:#FF9D00;stroke-width:0.449;stroke-miterlimit:10;" d="
		M174.1,43.9c-0.1,0-0.2,0-0.2-0.1c-0.1-0.1-0.1-0.3,0.1-0.4l0.9-0.7c0.1-0.1,0.2-0.1,0.3,0l0.9,0.7c0.1,0.1,0.2,0.3,0.1,0.4
		c-0.1,0.1-0.3,0.2-0.4,0.1l-0.8-0.6l-0.8,0.6C174.2,43.9,174.1,43.9,174.1,43.9z"/>
	<path style="clip-path:url(#SVGID_00000008864478104563169340000016631613080498068391_);fill:#FF9D00;" d="M176,37.6
		C176,37.6,176,37.6,176,37.6c-0.2,0-0.2-0.1-0.3-0.2l-0.2-0.5l-0.5,0.2c-0.1,0-0.2,0-0.3,0c-0.1-0.1-0.1-0.1-0.1-0.2v-3.1
		c0-0.2,0.1-0.3,0.3-0.3s0.3,0.1,0.3,0.3v2.7l0.4-0.1c0.1,0,0.2,0,0.2,0c0.1,0,0.1,0.1,0.1,0.2l0.1,0.3l1.9-1.9
		c0.1-0.1,0.3-0.1,0.4,0c0.1,0.1,0.1,0.3,0,0.4l-2.2,2.2C176.2,37.5,176.1,37.6,176,37.6"/>
	
		<path style="clip-path:url(#SVGID_00000008864478104563169340000016631613080498068391_);fill:none;stroke:#FF9D00;stroke-width:0.449;stroke-miterlimit:10;" d="
		M176,37.6C176,37.6,176,37.6,176,37.6c-0.2,0-0.2-0.1-0.3-0.2l-0.2-0.5l-0.5,0.2c-0.1,0-0.2,0-0.3,0c-0.1-0.1-0.1-0.1-0.1-0.2v-3.1
		c0-0.2,0.1-0.3,0.3-0.3s0.3,0.1,0.3,0.3v2.7l0.4-0.1c0.1,0,0.2,0,0.2,0c0.1,0,0.1,0.1,0.1,0.2l0.1,0.3l1.9-1.9
		c0.1-0.1,0.3-0.1,0.4,0c0.1,0.1,0.1,0.3,0,0.4l-2.2,2.2C176.2,37.5,176.1,37.6,176,37.6z"/>
	<path style="clip-path:url(#SVGID_00000008864478104563169340000016631613080498068391_);fill:#FF9D00;" d="M175,34
		c-0.1,0-0.1,0-0.2-0.1l-0.9-0.7c-0.1-0.1-0.2-0.3-0.1-0.4c0.1-0.1,0.3-0.2,0.4-0.1l0.8,0.6l0.8-0.6c0.1-0.1,0.3-0.1,0.4,0.1
		c0.1,0.1,0.1,0.3-0.1,0.4l-0.9,0.7C175.1,34,175.1,34,175,34"/>
	
		<path style="clip-path:url(#SVGID_00000008864478104563169340000016631613080498068391_);fill:none;stroke:#FF9D00;stroke-width:0.449;stroke-miterlimit:10;" d="
		M175,34c-0.1,0-0.1,0-0.2-0.1l-0.9-0.7c-0.1-0.1-0.2-0.3-0.1-0.4c0.1-0.1,0.3-0.2,0.4-0.1l0.8,0.6l0.8-0.6c0.1-0.1,0.3-0.1,0.4,0.1
		c0.1,0.1,0.1,0.3-0.1,0.4l-0.9,0.7C175.1,34,175.1,34,175,34z"/>
	<path style="clip-path:url(#SVGID_00000008864478104563169340000016631613080498068391_);fill:#FF9D00;" d="M170.6,35.5
		C170.6,35.5,170.6,35.5,170.6,35.5l1.2-0.2c0.1,0,0.2-0.1,0.2-0.2l0.2-1.1c0-0.2-0.1-0.3-0.2-0.3c-0.2,0-0.3,0.1-0.3,0.2l-0.2,0.9
		l-0.9,0.2c-0.2,0-0.3,0.2-0.2,0.3C170.3,35.4,170.5,35.5,170.6,35.5"/>
	
		<path style="clip-path:url(#SVGID_00000008864478104563169340000016631613080498068391_);fill:none;stroke:#FF9D00;stroke-width:0.449;stroke-miterlimit:10;" d="
		M170.6,35.5C170.6,35.5,170.6,35.5,170.6,35.5l1.2-0.2c0.1,0,0.2-0.1,0.2-0.2l0.2-1.1c0-0.2-0.1-0.3-0.2-0.3
		c-0.2,0-0.3,0.1-0.3,0.2l-0.2,0.9l-0.9,0.2c-0.2,0-0.3,0.2-0.2,0.3C170.3,35.4,170.5,35.5,170.6,35.5z"/>
	<path style="clip-path:url(#SVGID_00000008864478104563169340000016631613080498068391_);fill:#FF9D00;" d="M170.4,38.6h3.1
		c0.1,0,0.2,0,0.2-0.1c0.1-0.1,0.1-0.2,0-0.2l-0.1-0.5l0.4-0.2c0.1-0.1,0.2-0.2,0.1-0.4c-0.1-0.1-0.2-0.2-0.4-0.1l-0.7,0.3
		c-0.1,0.1-0.2,0.2-0.2,0.3l0.1,0.4h-2.7c-0.2,0-0.3,0.1-0.3,0.3C170.1,38.5,170.2,38.6,170.4,38.6"/>
	
		<path style="clip-path:url(#SVGID_00000008864478104563169340000016631613080498068391_);fill:none;stroke:#FF9D00;stroke-width:0.449;stroke-miterlimit:10;" d="
		M170.4,38.6h3.1c0.1,0,0.2,0,0.2-0.1c0.1-0.1,0.1-0.2,0-0.2l-0.1-0.5l0.4-0.2c0.1-0.1,0.2-0.2,0.1-0.4c-0.1-0.1-0.2-0.2-0.4-0.1
		l-0.7,0.3c-0.1,0.1-0.2,0.2-0.2,0.3l0.1,0.4h-2.7c-0.2,0-0.3,0.1-0.3,0.3C170.1,38.5,170.2,38.6,170.4,38.6z"/>
	<path style="clip-path:url(#SVGID_00000008864478104563169340000016631613080498068391_);fill:#FF9D00;" d="M169.7,39.5
		c0.1,0,0.2,0,0.2-0.1l0.7-0.9c0.1-0.1,0.1-0.2,0-0.3l-0.7-0.9c-0.1-0.1-0.3-0.2-0.4-0.1c-0.1,0.1-0.2,0.3-0.1,0.4l0.6,0.8l-0.6,0.8
		c-0.1,0.1-0.1,0.3,0.1,0.4C169.6,39.5,169.7,39.5,169.7,39.5"/>
	
		<path style="clip-path:url(#SVGID_00000008864478104563169340000016631613080498068391_);fill:none;stroke:#FF9D00;stroke-width:0.449;stroke-miterlimit:10;" d="
		M169.7,39.5c0.1,0,0.2,0,0.2-0.1l0.7-0.9c0.1-0.1,0.1-0.2,0-0.3l-0.7-0.9c-0.1-0.1-0.3-0.2-0.4-0.1c-0.1,0.1-0.2,0.3-0.1,0.4
		l0.6,0.8l-0.6,0.8c-0.1,0.1-0.1,0.3,0.1,0.4C169.6,39.5,169.7,39.5,169.7,39.5z"/>
	<path style="clip-path:url(#SVGID_00000008864478104563169340000016631613080498068391_);fill:#FF9D00;" d="M171.7,41.8
		c0.1,0,0.1,0,0.2-0.1l2.2-2.2c0.1-0.1,0.1-0.2,0.1-0.2s-0.1-0.2-0.2-0.2l-0.4-0.2l0.1-0.5c0-0.2-0.1-0.3-0.2-0.3
		c-0.2,0-0.3,0.1-0.3,0.2L173,39c0,0.1,0,0.3,0.1,0.3l0.3,0.1l-1.9,1.9c-0.1,0.1-0.1,0.3,0,0.4C171.6,41.8,171.7,41.8,171.7,41.8"/>
	
		<path style="clip-path:url(#SVGID_00000008864478104563169340000016631613080498068391_);fill:none;stroke:#FF9D00;stroke-width:0.449;stroke-miterlimit:10;" d="
		M171.7,41.8c0.1,0,0.1,0,0.2-0.1l2.2-2.2c0.1-0.1,0.1-0.2,0.1-0.2s-0.1-0.2-0.2-0.2l-0.4-0.2l0.1-0.5c0-0.2-0.1-0.3-0.2-0.3
		c-0.2,0-0.3,0.1-0.3,0.2L173,39c0,0.1,0,0.3,0.1,0.3l0.3,0.1l-1.9,1.9c-0.1,0.1-0.1,0.3,0,0.4C171.6,41.8,171.7,41.8,171.7,41.8z"
		/>
	<path style="clip-path:url(#SVGID_00000008864478104563169340000016631613080498068391_);fill:#FF9D00;" d="M171.9,43
		C172,43,172,43,171.9,43c0.2,0,0.3-0.2,0.3-0.3l-0.2-1.1c0-0.1-0.1-0.2-0.2-0.2l-1.1-0.2c-0.2,0-0.3,0.1-0.3,0.2
		c0,0.2,0.1,0.3,0.2,0.3l0.9,0.2l0.2,0.9C171.7,42.9,171.8,43,171.9,43"/>
	
		<path style="clip-path:url(#SVGID_00000008864478104563169340000016631613080498068391_);fill:none;stroke:#FF9D00;stroke-width:0.449;stroke-miterlimit:10;" d="
		M171.9,43C172,43,172,43,171.9,43c0.2,0,0.3-0.2,0.3-0.3l-0.2-1.1c0-0.1-0.1-0.2-0.2-0.2l-1.1-0.2c-0.2,0-0.3,0.1-0.3,0.2
		c0,0.2,0.1,0.3,0.2,0.3l0.9,0.2l0.2,0.9C171.7,42.9,171.8,43,171.9,43z"/>
	<path style="clip-path:url(#SVGID_00000008864478104563169340000016631613080498068391_);fill:#FF9D00;" d="M175,43.2
		c0.2,0,0.3-0.1,0.3-0.3v-3.1c0-0.1,0-0.2-0.1-0.2c-0.1-0.1-0.2-0.1-0.2,0l-0.5,0.1l-0.2-0.4c-0.1-0.1-0.3-0.2-0.4-0.1
		c-0.1,0.1-0.2,0.3-0.1,0.4l0.4,0.6c0.1,0.1,0.2,0.2,0.3,0.1l0.3-0.1v2.7C174.7,43.1,174.8,43.2,175,43.2"/>
	
		<path style="clip-path:url(#SVGID_00000008864478104563169340000016631613080498068391_);fill:none;stroke:#FF9D00;stroke-width:0.449;stroke-miterlimit:10;" d="
		M175,43.2c0.2,0,0.3-0.1,0.3-0.3v-3.1c0-0.1,0-0.2-0.1-0.2c-0.1-0.1-0.2-0.1-0.2,0l-0.5,0.1l-0.2-0.4c-0.1-0.1-0.3-0.2-0.4-0.1
		c-0.1,0.1-0.2,0.3-0.1,0.4l0.4,0.6c0.1,0.1,0.2,0.2,0.3,0.1l0.3-0.1v2.7C174.7,43.1,174.8,43.2,175,43.2z"/>
	<path style="clip-path:url(#SVGID_00000008864478104563169340000016631613080498068391_);fill:#FF9D00;" d="M175.9,43.9
		c0.1,0,0.2,0,0.2-0.1c0.1-0.1,0.1-0.3-0.1-0.4l-0.9-0.7c-0.1-0.1-0.2-0.1-0.3,0l-0.9,0.7c-0.1,0.1-0.2,0.3-0.1,0.4
		c0.1,0.1,0.3,0.2,0.4,0.1l0.8-0.6l0.8,0.6C175.8,43.9,175.9,43.9,175.9,43.9"/>
	
		<path style="clip-path:url(#SVGID_00000008864478104563169340000016631613080498068391_);fill:none;stroke:#FF9D00;stroke-width:0.449;stroke-miterlimit:10;" d="
		M175.9,43.9c0.1,0,0.2,0,0.2-0.1c0.1-0.1,0.1-0.3-0.1-0.4l-0.9-0.7c-0.1-0.1-0.2-0.1-0.3,0l-0.9,0.7c-0.1,0.1-0.2,0.3-0.1,0.4
		c0.1,0.1,0.3,0.2,0.4,0.1l0.8-0.6l0.8,0.6C175.8,43.9,175.9,43.9,175.9,43.9z"/>
	<path style="clip-path:url(#SVGID_00000008864478104563169340000016631613080498068391_);fill:#FF9D00;" d="M174,37.6
		C174,37.6,174,37.6,174,37.6c0.2,0,0.2-0.1,0.3-0.2l0.2-0.5l0.5,0.2c0.1,0,0.2,0,0.3,0c0.1-0.1,0.1-0.1,0.1-0.2v-3.1
		c0-0.2-0.1-0.3-0.3-0.3s-0.3,0.1-0.3,0.3v2.7l-0.4-0.1c-0.1,0-0.2,0-0.2,0c-0.1,0-0.1,0.1-0.1,0.2l-0.1,0.3l-1.9-1.9
		c-0.1-0.1-0.3-0.1-0.4,0c-0.1,0.1-0.1,0.3,0,0.4l2.2,2.2C173.8,37.5,173.9,37.6,174,37.6"/>
	
		<path style="clip-path:url(#SVGID_00000008864478104563169340000016631613080498068391_);fill:none;stroke:#FF9D00;stroke-width:0.449;stroke-miterlimit:10;" d="
		M174,37.6C174,37.6,174,37.6,174,37.6c0.2,0,0.2-0.1,0.3-0.2l0.2-0.5l0.5,0.2c0.1,0,0.2,0,0.3,0c0.1-0.1,0.1-0.1,0.1-0.2v-3.1
		c0-0.2-0.1-0.3-0.3-0.3s-0.3,0.1-0.3,0.3v2.7l-0.4-0.1c-0.1,0-0.2,0-0.2,0c-0.1,0-0.1,0.1-0.1,0.2l-0.1,0.3l-1.9-1.9
		c-0.1-0.1-0.3-0.1-0.4,0c-0.1,0.1-0.1,0.3,0,0.4l2.2,2.2C173.8,37.5,173.9,37.6,174,37.6z"/>
	<path style="clip-path:url(#SVGID_00000008864478104563169340000016631613080498068391_);fill:#FF9D00;" d="M175,34
		c0.1,0,0.1,0,0.2-0.1l0.9-0.7c0.1-0.1,0.2-0.3,0.1-0.4c-0.1-0.1-0.3-0.2-0.4-0.1l-0.8,0.6l-0.8-0.6c-0.1-0.1-0.3-0.1-0.4,0.1
		c-0.1,0.1-0.1,0.3,0.1,0.4l0.9,0.7C174.9,34,174.9,34,175,34"/>
	
		<path style="clip-path:url(#SVGID_00000008864478104563169340000016631613080498068391_);fill:none;stroke:#FF9D00;stroke-width:0.449;stroke-miterlimit:10;" d="
		M175,34c0.1,0,0.1,0,0.2-0.1l0.9-0.7c0.1-0.1,0.2-0.3,0.1-0.4c-0.1-0.1-0.3-0.2-0.4-0.1l-0.8,0.6l-0.8-0.6
		c-0.1-0.1-0.3-0.1-0.4,0.1c-0.1,0.1-0.1,0.3,0.1,0.4l0.9,0.7C174.9,34,174.9,34,175,34z"/>
	
		<path style="clip-path:url(#SVGID_00000008864478104563169340000016631613080498068391_);fill:none;stroke:#FF9D00;stroke-width:2.304;stroke-miterlimit:10;" d="
		M216.3,91.7h-62.6c-7.7,0-14-6.3-14-14V15.1c0-7.7,6.3-14,14-14h62.6c7.7,0,14,6.3,14,14v62.6C230.3,85.4,224,91.7,216.3,91.7z"/>
	
		<path style="clip-path:url(#SVGID_00000008864478104563169340000016631613080498068391_);fill:none;stroke:#FF9D00;stroke-width:2.304;stroke-miterlimit:10;" d="
		M354.8,91.7h-62.6c-7.7,0-14-6.3-14-14V15.1c0-7.7,6.3-14,14-14h62.6c7.7,0,14,6.3,14,14v62.6C368.8,85.4,362.5,91.7,354.8,91.7z"
		/>
	<path style="clip-path:url(#SVGID_00000008864478104563169340000016631613080498068391_);fill:#FF9D00;" d="M31.1,53.5
		c0.2,0,0.4,0.1,0.6,0.2c0.2,0.2,0.4,0.5,0.4,0.8l1,13c0.1,1.1,1,2,2.1,2h22.4c1.1,0,2-0.9,2.1-2l1-13c0-0.3,0.2-0.6,0.4-0.8
		c0.2-0.2,0.6-0.3,0.9-0.2c0.8,0.2,1.7,0.3,2.5,0.3c6.6,0,11.9-5.3,11.9-11.9S71.1,30,64.5,30c-1.9,0-3.9,0.5-5.6,1.4
		c-0.3,0.1-0.6,0.2-0.9,0.1c-0.3-0.1-0.5-0.3-0.6-0.6c-1.8-4.5-6.2-7.5-11-7.5c-4.9,0-9.2,2.9-11,7.5c-0.1,0.3-0.3,0.5-0.6,0.6
		c-0.3,0.1-0.6,0.1-0.9-0.1c-1.7-0.9-3.6-1.4-5.6-1.4c-6.6,0-11.9,5.3-11.9,11.9s5.3,11.9,11.9,11.9c0.8,0,1.7-0.1,2.5-0.3
		C30.9,53.5,31,53.5,31.1,53.5 M57.6,71.6H35.2c-2.2,0-4.1-1.7-4.2-3.9l-0.9-11.8c-0.6,0.1-1.2,0.1-1.8,0.1c-7.7,0-14-6.3-14-14
		c0-7.7,6.3-14,14-14c1.9,0,3.8,0.4,5.6,1.1c2.4-4.7,7.2-7.8,12.5-7.8c5.4,0,10.2,3,12.5,7.8c1.7-0.8,3.6-1.1,5.6-1.1
		c7.7,0,14,6.3,14,14c0,7.7-6.3,14-14,14c-0.6,0-1.2,0-1.8-0.1l-0.9,11.8C61.7,69.8,59.8,71.6,57.6,71.6"/>
	
		<path style="clip-path:url(#SVGID_00000008864478104563169340000016631613080498068391_);fill:none;stroke:#FF9D00;stroke-width:0.722;stroke-miterlimit:10;" d="
		M31.1,53.5c0.2,0,0.4,0.1,0.6,0.2c0.2,0.2,0.4,0.5,0.4,0.8l1,13c0.1,1.1,1,2,2.1,2h22.4c1.1,0,2-0.9,2.1-2l1-13
		c0-0.3,0.2-0.6,0.4-0.8c0.2-0.2,0.6-0.3,0.9-0.2c0.8,0.2,1.7,0.3,2.5,0.3c6.6,0,11.9-5.3,11.9-11.9S71.1,30,64.5,30
		c-1.9,0-3.9,0.5-5.6,1.4c-0.3,0.1-0.6,0.2-0.9,0.1c-0.3-0.1-0.5-0.3-0.6-0.6c-1.8-4.5-6.2-7.5-11-7.5c-4.9,0-9.2,2.9-11,7.5
		c-0.1,0.3-0.3,0.5-0.6,0.6c-0.3,0.1-0.6,0.1-0.9-0.1c-1.7-0.9-3.6-1.4-5.6-1.4c-6.6,0-11.9,5.3-11.9,11.9s5.3,11.9,11.9,11.9
		c0.8,0,1.7-0.1,2.5-0.3C30.9,53.5,31,53.5,31.1,53.5z M57.6,71.6H35.2c-2.2,0-4.1-1.7-4.2-3.9l-0.9-11.8c-0.6,0.1-1.2,0.1-1.8,0.1
		c-7.7,0-14-6.3-14-14c0-7.7,6.3-14,14-14c1.9,0,3.8,0.4,5.6,1.1c2.4-4.7,7.2-7.8,12.5-7.8c5.4,0,10.2,3,12.5,7.8
		c1.7-0.8,3.6-1.1,5.6-1.1c7.7,0,14,6.3,14,14c0,7.7-6.3,14-14,14c-0.6,0-1.2,0-1.8-0.1l-0.9,11.8C61.7,69.8,59.8,71.6,57.6,71.6z"
		/>
	<path style="clip-path:url(#SVGID_00000008864478104563169340000016631613080498068391_);fill:#FF9D00;" d="M71.3,48.3
		c-0.1,0-0.3,0-0.4-0.1c-0.5-0.2-0.8-0.9-0.5-1.4c0.6-1.2,0.8-2.5,0.8-3.8c0-3-1.4-5.8-3.9-7.5c-0.5-0.3-0.6-1-0.2-1.5
		c0.3-0.5,1-0.6,1.5-0.2c3,2.1,4.8,5.6,4.8,9.2c0,1.6-0.3,3.2-1,4.7C72.1,48.1,71.7,48.3,71.3,48.3"/>
	
		<path style="clip-path:url(#SVGID_00000008864478104563169340000016631613080498068391_);fill:none;stroke:#FF9D00;stroke-width:0.722;stroke-miterlimit:10;" d="
		M71.3,48.3c-0.1,0-0.3,0-0.4-0.1c-0.5-0.2-0.8-0.9-0.5-1.4c0.6-1.2,0.8-2.5,0.8-3.8c0-3-1.4-5.8-3.9-7.5c-0.5-0.3-0.6-1-0.2-1.5
		c0.3-0.5,1-0.6,1.5-0.2c3,2.1,4.8,5.6,4.8,9.2c0,1.6-0.3,3.2-1,4.7C72.1,48.1,71.7,48.3,71.3,48.3z"/>
	<path style="clip-path:url(#SVGID_00000008864478104563169340000016631613080498068391_);fill:#FF9D00;" d="M64.5,55.9
		c-2.7,0-5.2-0.7-7.5-2.2c-0.5-0.3-0.6-1-0.3-1.5s1-0.6,1.5-0.3c1.9,1.2,4.1,1.8,6.4,1.8c6.6,0,11.9-5.3,11.9-11.9
		c0-6.6-5.3-11.9-11.9-11.9c-1.9,0-3.9,0.5-5.6,1.4c-0.3,0.1-0.6,0.2-0.9,0.1c-0.3-0.1-0.5-0.3-0.6-0.6c-1.8-4.5-6.2-7.5-11-7.5
		s-9.2,2.9-11,7.5c-0.1,0.3-0.3,0.5-0.6,0.6c-0.3,0.1-0.6,0.1-0.9-0.1c-1.7-0.9-3.6-1.4-5.6-1.4c-6.6,0-11.9,5.3-11.9,11.9
		c0,6.6,5.3,11.9,11.9,11.9c3.3,0,6.4-1.3,8.7-3.8c0.4-0.4,1.1-0.4,1.5,0c0.4,0.4,0.5,1.1,0,1.5c-2.6,2.8-6.4,4.4-10.2,4.4
		c-7.7,0-14-6.3-14-14c0-7.7,6.3-14,14-14c1.9,0,3.8,0.4,5.6,1.2c2.4-4.7,7.2-7.8,12.5-7.8c5.4,0,10.2,3,12.5,7.8
		c1.7-0.8,3.6-1.2,5.6-1.2c7.7,0,14,6.3,14,14C78.5,49.6,72.2,55.9,64.5,55.9"/>
	
		<path style="clip-path:url(#SVGID_00000008864478104563169340000016631613080498068391_);fill:none;stroke:#FF9D00;stroke-width:0.722;stroke-miterlimit:10;" d="
		M64.5,55.9c-2.7,0-5.2-0.7-7.5-2.2c-0.5-0.3-0.6-1-0.3-1.5s1-0.6,1.5-0.3c1.9,1.2,4.1,1.8,6.4,1.8c6.6,0,11.9-5.3,11.9-11.9
		c0-6.6-5.3-11.9-11.9-11.9c-1.9,0-3.9,0.5-5.6,1.4c-0.3,0.1-0.6,0.2-0.9,0.1c-0.3-0.1-0.5-0.3-0.6-0.6c-1.8-4.5-6.2-7.5-11-7.5
		s-9.2,2.9-11,7.5c-0.1,0.3-0.3,0.5-0.6,0.6c-0.3,0.1-0.6,0.1-0.9-0.1c-1.7-0.9-3.6-1.4-5.6-1.4c-6.6,0-11.9,5.3-11.9,11.9
		c0,6.6,5.3,11.9,11.9,11.9c3.3,0,6.4-1.3,8.7-3.8c0.4-0.4,1.1-0.4,1.5,0c0.4,0.4,0.5,1.1,0,1.5c-2.6,2.8-6.4,4.4-10.2,4.4
		c-7.7,0-14-6.3-14-14c0-7.7,6.3-14,14-14c1.9,0,3.8,0.4,5.6,1.2c2.4-4.7,7.2-7.8,12.5-7.8c5.4,0,10.2,3,12.5,7.8
		c1.7-0.8,3.6-1.2,5.6-1.2c7.7,0,14,6.3,14,14C78.5,49.6,72.2,55.9,64.5,55.9z"/>
	<path style="clip-path:url(#SVGID_00000008864478104563169340000016631613080498068391_);fill:#FF9D00;" d="M49.5,62.6H31.6
		c-0.6,0-1.1-0.5-1.1-1.1c0-0.6,0.5-1.1,1.1-1.1h17.9c0.6,0,1.1,0.5,1.1,1.1C50.5,62.1,50,62.6,49.5,62.6"/>
	
		<path style="clip-path:url(#SVGID_00000008864478104563169340000016631613080498068391_);fill:none;stroke:#FF9D00;stroke-width:0.722;stroke-miterlimit:10;" d="
		M49.5,62.6H31.6c-0.6,0-1.1-0.5-1.1-1.1c0-0.6,0.5-1.1,1.1-1.1h17.9c0.6,0,1.1,0.5,1.1,1.1C50.5,62.1,50,62.6,49.5,62.6z"/>
</g>
<line class="st5" x1="99.1" y1="46.7" x2="134" y2="46.7"/>
<path class="st6" d="M135.7,46.7L135.7,46.7 M95.7,46.7L95.7,46.7"/>
<line class="st5" x1="237.6" y1="46.7" x2="272.6" y2="46.7"/>
<path class="st6" d="M274.3,46.7L274.3,46.7 M234.3,46.7L234.3,46.7"/>
</svg>
