<?xml version="1.0" encoding="utf-8"?>
<!-- Generator: Adobe Illustrator 26.0.2, SVG Export Plug-In . SVG Version: 6.00 Build 0)  -->
<svg version="1.1" id="Ebene_1" xmlns="http://www.w3.org/2000/svg" xmlns:xlink="http://www.w3.org/1999/xlink" x="0px" y="0px"
	 viewBox="0 0 127.6 127.6" style="enable-background:new 0 0 127.6 127.6;" xml:space="preserve">
<style type="text/css">
	.st0{clip-path:url(#SVGID_00000107576127716411632950000008900857452594683044_);fill:#92CC18;}
	.st1{clip-path:url(#SVGID_00000107576127716411632950000008900857452594683044_);fill:#FFFFFF;}
</style>
<g>
	<defs>
		<rect id="SVGID_1_" width="127.6" height="127.6"/>
	</defs>
	<clipPath id="SVGID_00000148651030838881030910000016509209463846012814_">
		<use xlink:href="#SVGID_1_"  style="overflow:visible;"/>
	</clipPath>
	<path style="clip-path:url(#SVGID_00000148651030838881030910000016509209463846012814_);fill:#92CC18;" d="M19.7,0h88.2
		c10.8,0,19.7,8.9,19.7,19.7v88.2c0,10.8-8.9,19.7-19.7,19.7H19.7C8.9,127.6,0,118.7,0,107.9V19.7C0,8.9,8.9,0,19.7,0"/>
	<path style="clip-path:url(#SVGID_00000148651030838881030910000016509209463846012814_);fill:#FFFFFF;" d="M77.3,17l7.3,19.4H72.1
		L69.7,17H77.3z M56.9,36.4L59.4,17h7.7l2.4,19.4H56.9z M86.5,17c0.9,0,1.8,0.5,2.3,1.3l11.7,18.2H87.3L80,17H86.5z M56.8,17
		l-2.4,19.4H41.9L49.2,17H56.8z M40,17h6.4l-7.3,19.4H26l11.7-18.2C38.2,17.5,39.1,17,40,17 M88.1,55.8c-0.1-0.1-0.2-0.2-0.3-0.3
		c-1-1.1-2.2-1.9-3.6-2.3c-0.2-1.2-0.8-2.4-1.7-3.1c-0.6-0.4-1.4-0.3-1.8,0.3c-0.2,0.3-0.3,0.7-0.2,1c-0.5-0.1-1-0.2-1.6-0.1
		c-2,0.2-3.7,1.3-4.7,3c-0.3,0.5-0.2,1.1,0.2,1.5c0.2,0.2,0.4,0.4,0.6,0.6c-0.5,0.7-0.8,1.4-1,2.2h-9.6c-1.3-2.2-3.5-3.6-6.1-3.6
		c-0.7,0-1.4,0.1-2.1,0.3l-3.3-2v-1.2c0-0.1,0.1-0.1,0.1-0.1s0.1,0.1,0.1,0.1v0.6h2.6v-0.6c0-1.5-1.2-2.7-2.7-2.7s-2.7,1.2-2.7,2.7
		v1.3l-3,1.9c-0.7-0.2-1.4-0.3-2.1-0.3c-2.6,0-4.7,1.4-6.1,3.6h-0.8V46.2c0.5-0.5,0.9-1,1.2-1.5c1.7,2.6,4.6,4.3,7.9,4.3
		s6.2-1.7,7.9-4.3C57,47.3,60,49,63.2,49s6.2-1.7,7.9-4.3c1.7,2.6,4.6,4.3,7.9,4.3c3.2,0,6.2-1.7,7.9-4.3c0.4,0.6,0.8,1.1,1.2,1.5
		V55.8z M90.6,64.5c-0.3-0.2-0.7-0.5-1-0.7c0.1-0.3,0.2-0.6,0.3-0.8l0.8,1.4l0.2,0.3C90.7,64.7,90.6,64.6,90.6,64.5 M93.1,74.4
		c0.3-0.7,0.5-1.4,0.6-2.2c0.1-0.9,0.1-1.7,0-2.5l2.8,4.7H93.1z M93.6,88.9h3.9V107h-3.9V88.9z M29,86.3v-0.5v-1.3V77h8h1.9H39h1.2
		h0.5h2h1.7h3.6h1.3h1.3h16.9h2h7.6h2h0.6H82h7.3h2.1h6.1v7.6v1.3v0.5h-5.2H91H35.5h-1.3H29z M32.9,107H29V88.9h3.9V107z M34.3,74.4
		H30l1.6-2.6L34.3,74.4z M37.9,61.8l-0.4-0.3l0.1-0.2h0.3C38,61.4,38,61.6,37.9,61.8 M69.4,62.5c-0.5,0-1,0.1-1.6,0.4
		c-0.8,0.3-1.5,0.8-2,1.4c0,0,0,0,0,0c0-1.1-0.1-2.1-0.4-3h3.9c0,0,0,0.1-0.1,0.1C69.2,61.8,69.2,62.1,69.4,62.5 M73.8,63
		c-0.1,0-0.2,0-0.4,0c-0.3-0.6-0.8-1.3-1.4-1.7h1.5C73.6,61.8,73.7,62.4,73.8,63 M67.2,66.7c0.4-0.6,1-1.1,1.7-1.4
		c0.5-0.2,0.9-0.3,1.3-0.1c0.1,0,0.2,0.1,0.3,0.1c-0.2,0.7-0.5,0.9-1.1,1.2c-0.4,0.2-0.8,0.3-1.2,0.3C67.8,66.8,67.5,66.7,67.2,66.7
		 M48.9,72.8c0.1,0,0.2,0,0.4,0c0.8,0,1.7-0.2,2.4-0.7c0.8,0.5,1.6,0.7,2.4,0.7c0.6,0,1.2-0.1,1.8-0.3c0.7,0.2,1.5,0.3,2.3,0.3
		c3,0,5.4-1.6,6.6-4.2c0.2,0.1,0.4,0.2,0.7,0.3c-0.4,1.4-0.5,3-0.1,4.5c0.1,0.4,0.2,0.7,0.4,1.1h-16C49.7,73.9,49.3,73.3,48.9,72.8
		 M55.5,58.3c0.1,0.1,0.1,0.1,0.2,0.2c0.1,0.1,0.1,0.2,0.2,0.2c0.3,0.4,0.5,0.8,0.7,1.3c0.1,0.4,0.3,0.8,0.4,1.3
		c0.2,0.9,0.3,1.9,0.3,3c0,2.1-0.4,4.3-1.5,5.3c-0.4,0.4-0.9,0.6-1.5,0.6c0,0,0,0-0.1,0c-0.4,0-0.8-0.1-1.1-0.3c0,0,0,0,0,0V69v-2.3
		v-0.5v-4v-0.5v-0.5V60v-0.7v-0.6v-0.4V58c0,0,0,0,0,0c0.4-0.2,0.8-0.3,1.1-0.3c0.1,0,0.2,0,0.3,0C54.9,57.8,55.2,57.9,55.5,58.3
		 M46.5,61.2c0.1-0.5,0.2-0.9,0.4-1.3c0.2-0.5,0.4-0.9,0.7-1.3c0.1-0.1,0.1-0.2,0.2-0.2c0.1-0.1,0.1-0.1,0.2-0.2
		c0.3-0.3,0.7-0.5,1-0.6c0.1,0,0.2,0,0.3,0c0.4,0,0.8,0.1,1.1,0.3v0.3v0.4v0.5V60v1.3v0.6v0.2v4.3v0.2V69v0.8
		c-0.4,0.2-0.8,0.3-1.1,0.3c0,0,0,0-0.1,0c-0.6,0-1.1-0.2-1.5-0.6c-1.1-1-1.5-3.2-1.5-5.3C46.2,63.1,46.3,62.1,46.5,61.2 M68.8,74.4
		c-0.4-0.5-0.6-1.1-0.8-1.7c-0.3-1.1-0.2-2.3,0.1-3.4c0.8,0,1.5-0.2,2.2-0.5c0.6-0.3,1.1-0.6,1.5-1c0,0,0.1,0.1,0.1,0.1
		c0.2,0.1,0.4,0.2,0.6,0.2c0.5,0,0.9-0.2,1.1-0.7c0.3-0.5,0.4-1.1,0.4-1.7c0.3,0,0.6,0.1,0.9,0.2c0.2,0.3,0.4,0.6,0.7,0.8
		c0.6,0.7,1.3,1.2,2.1,1.7c0.2,0.1,0.4,0.2,0.6,0.3c0.2,0.3,0.3,0.7,0.4,1c0,0.1,0,0.1,0.1,0.2c0.3,1,0.3,2,0,3
		c-0.1,0.4-0.3,0.9-0.5,1.3c-0.1,0.1-0.2,0.3-0.2,0.4h0H68.8z M91.2,71.9c-0.1,1-0.5,1.8-1,2.5h-9.1c0,0,0,0,0,0
		c0.7-1.6,0.8-3.4,0.4-5.1c0,0,0,0,0,0c0.1,0,0.2,0,0.3,0c2.1,0,4-0.8,5.6-2.2c0.3-0.3,0.6-0.6,0.9-1C90.3,67.2,91.5,69.5,91.2,71.9
		 M80.7,54.5c-0.4,0.6-0.7,0.7-1.4,0.8c-0.4,0-0.8,0-1.2-0.1c-0.3-0.1-0.7-0.2-0.9-0.4c0.5-0.5,1.3-0.8,2-0.9c0.6-0.1,0.9,0,1.3,0.3
		C80.5,54.3,80.6,54.4,80.7,54.5 M76.2,60.8c0-0.3,0-0.6,0.1-0.9c0.1-0.5,0.2-0.9,0.4-1.3c0.2-0.3,0.4-0.7,0.6-1
		c0.5,0.1,1.1,0.2,1.6,0.2c0.2,0,0.4,0,0.7,0c0.7-0.1,1.3-0.3,1.7-0.5c0,0,0.1,0.1,0.1,0.1c0.3,0.3,0.6,0.4,0.9,0.4
		c0.3,0,0.7-0.1,0.9-0.4c0.4-0.4,0.7-0.9,0.9-1.5c0.7,0.3,1.3,0.7,1.8,1.3c0.4,0.4,0.7,0.9,1,1.4c0.2,0.4,0.3,0.8,0.4,1.3
		c0.1,0.4,0.1,0.9,0.1,1.3c0,0,0,0,0,0c0,0.6-0.1,1.2-0.3,1.7c-0.2,0.4-0.4,0.8-0.6,1.2c-0.2,0.4-0.5,0.7-0.8,1
		c-0.1,0.1-0.2,0.2-0.3,0.3c-0.9,0.7-2,1.1-3.2,1.2c-0.2,0-0.4,0-0.5,0c-0.4,0-0.8-0.1-1.2-0.2c-0.1,0-0.2,0-0.2-0.1
		c-0.4-0.1-0.7-0.3-1-0.4c-0.5-0.3-1.1-0.7-1.5-1.2c-0.3-0.4-0.6-0.8-0.8-1.2c-0.4-0.8-0.6-1.6-0.7-2.5C76.2,61.1,76.2,61,76.2,60.8
		 M62.1,60c0.2,0.4,0.4,0.8,0.6,1.3c0.3,0.9,0.5,2,0.5,3c0,3.6-1.8,5.8-4.7,5.9c0.9-1.5,1.3-3.5,1.3-5.9c0-1.1-0.1-2.1-0.3-3
		c-0.1-0.5-0.2-0.9-0.3-1.3c-0.1-0.5-0.3-0.9-0.5-1.3c-0.2-0.4-0.3-0.7-0.5-1c0,0,0,0,0,0c1.1,0,2,0.4,2.8,1
		C61.5,59,61.8,59.5,62.1,60 M41.4,60c0.3-0.5,0.6-0.9,1.1-1.3c0.7-0.6,1.6-1,2.8-1c0,0,0,0,0,0c-0.2,0.3-0.4,0.6-0.5,1
		c-0.2,0.4-0.3,0.8-0.5,1.3c-0.1,0.4-0.2,0.8-0.3,1.3c-0.2,0.9-0.3,1.9-0.3,3c0,1.2,0.1,2.4,0.4,3.4l-3.7-3.5c0-1,0.2-1.9,0.5-2.8
		C40.9,60.8,41.1,60.4,41.4,60 M46.6,73.9c0.1,0.2,0.2,0.3,0.4,0.5h-0.3C46.6,74.3,46.6,74.1,46.6,73.9 M30.3,65.8
		c0-0.3,0-0.5,0.1-0.8c0.1-0.2,0.1-0.5,0.2-0.7c0.1-0.2,0.2-0.3,0.3-0.5c0.1-0.1,0.1-0.1,0.2-0.2c0,0,0,0,0,0l0.2-0.2
		c0,0,0.1-0.1,0.1-0.1c0.2-0.2,0.4-0.3,0.5-0.4c0.1,0,0.1-0.1,0.2-0.1c0.1-0.1,0.3-0.1,0.4-0.2c0.3-0.1,0.6-0.2,0.9-0.2
		c0.1,0,0.1,0,0.2,0c0.1,0,0.3,0,0.4,0c0.4,0.1,0.9,0.2,1.2,0.4c0.2,0.1,0.3,0.2,0.5,0.4l0,0l0.5,0.4l0.9,0.9l-0.5,0.5l-0.5,0.5
		c-0.5,0.5-0.5,1.3,0,1.8c0.2,0.2,0.6,0.4,0.9,0.4c0.3,0,0.7-0.1,0.9-0.4l0.1-0.1l0.9-0.9l0.2,0.2l3.3,3.1l-0.7,0.7l-0.2,0.2
		c-0.3,0.3-0.4,0.7-0.3,1c0,0.3,0.2,0.6,0.4,0.8c0.2,0.2,0.6,0.4,0.9,0.4c0.3,0,0.6-0.1,0.9-0.3c0,0,0.1,0,0.1-0.1l0.9-0.9l0,0
		c0,0,0,0,0,0c0.4,0.4,0.8,0.8,1.1,1.1c0.1,0.1,0.2,0.2,0.3,0.3c-0.5-0.2-1.1-0.2-1.5,0.3l-1,1.1h-1.2c0-0.3-0.2-0.5-0.4-0.7
		c-0.5-0.5-1.3-0.5-1.8,0l-0.7,0.7h-1.2l-2.5-2.3l0.6-0.6c0.5-0.5,0.5-1.3,0-1.8s-1.3-0.5-1.8,0l-0.6,0.6l-0.9-0.8l-1-0.9L31.3,68
		c-0.1-0.1-0.2-0.2-0.3-0.4C30.6,67.1,30.3,66.5,30.3,65.8 M101.5,39v0.6c0,3.7-3,6.8-6.8,6.8c-1.5,0-2.9-0.5-4.1-1.4
		c-0.5-0.4-0.9-0.8-1.3-1.3c-0.6-0.8-1-1.7-1.3-2.7h0h-2.5c-0.7,3.1-3.5,5.3-6.6,5.3c-3.2,0-5.9-2.2-6.6-5.3h-2.5
		c-0.7,3.1-3.5,5.3-6.6,5.3s-5.9-2.2-6.6-5.3h-2.5c-0.7,3.1-3.5,5.3-6.6,5.3c-3.2,0-5.9-2.2-6.6-5.3h-2.5h0c-0.2,1-0.7,1.9-1.3,2.7
		c-0.4,0.5-0.8,0.9-1.3,1.3c-1.1,0.9-2.6,1.4-4.1,1.4c-3.7,0-6.8-3-6.8-6.8V39v-0.5l10.9,0l2.5,0l0.7,0l15.5,0l17.4,0l15.4,0l0.8,0
		l2.5,0l10.9,0V39z M104,37.4c0-0.1-0.1-0.2-0.2-0.3L90.9,16.9c-1-1.5-2.7-2.5-4.5-2.5h-8.3h-9.9h-10h-9.9H40
		c-1.8,0-3.5,0.9-4.5,2.5L22.6,37c0,0.1-0.1,0.2-0.1,0.2h-0.1v2.4c0,5.2,4.2,9.4,9.4,9.4c1.4,0,2.8-0.3,4.1-0.9v11.4l-0.4,0.7
		c-1-0.3-2-0.4-3-0.2l-1.9-4.5L29.3,56l-1.2,0.5l1.3,3l-2.7-2.6l-1.8,1.8l2.4,2.4L24.3,60l-0.5,1.2l-0.5,1.2l4.6,1.7
		c-0.2,0.6-0.3,1.2-0.2,1.8c0,1.5,0.7,2.9,1.8,4l0.1,0.1l-3,5.1c0,0,0,0,0,0c0,0,0,0.1-0.1,0.1c0,0,0,0.1-0.1,0.1c0,0,0,0,0,0
		c0,0,0,0.1,0,0.1c0,0,0,0,0,0c0,0,0,0.1,0,0.1c0,0,0,0,0,0c0,0,0,0,0,0v10.1v1.8v20.7c0,0.7,0.6,1.3,1.3,1.3h6.5
		c0.7,0,1.3-0.6,1.3-1.3V88.9H91v19.4c0,0.7,0.6,1.3,1.3,1.3h6.5c0.7,0,1.3-0.6,1.3-1.3V87.6v-1.8V75.7c0,0,0,0,0,0c0,0,0,0,0,0
		c0,0,0-0.1,0-0.1c0,0,0,0,0,0c0,0,0-0.1,0-0.1c0,0,0,0,0,0c0,0,0-0.1-0.1-0.1c0,0,0-0.1-0.1-0.1c0,0,0,0,0,0l-9.2-15.6V48
		c1.2,0.6,2.6,0.9,4.1,0.9c5.2,0,9.4-4.2,9.4-9.4L104,37.4L104,37.4z"/>
	<path style="clip-path:url(#SVGID_00000148651030838881030910000016509209463846012814_);fill:#FFFFFF;" d="M38.3,72.8
		c0.3,0,0.7-0.1,0.9-0.4l1.2-1.3l0.5-0.5c0.2-0.2,0.2-0.3,0.3-0.5c0.1-0.4,0-0.9-0.3-1.3c-0.3-0.3-0.6-0.4-0.9-0.4
		c-0.3,0-0.6,0.1-0.9,0.4l-0.2,0.2l-1.5,1.6c-0.5,0.5-0.5,1.3,0,1.8C37.6,72.7,38,72.8,38.3,72.8"/>
</g>
</svg>
