<?xml version="1.0" encoding="utf-8"?>
<!-- Generator: Adobe Illustrator 25.2.0, SVG Export Plug-In . SVG Version: 6.00 Build 0)  -->
<svg version="1.1" id="Ebene_1" xmlns="http://www.w3.org/2000/svg" xmlns:xlink="http://www.w3.org/1999/xlink" x="0px" y="0px"
	 viewBox="0 0 425.03 425.03" style="enable-background:new 0 0 425.03 425.03;" xml:space="preserve">
<style type="text/css">
	.st0{clip-path:url(#SVGID_2_);fill:none;stroke:#FFFFFF;stroke-width:5;stroke-miterlimit:10;}
	.st1{clip-path:url(#SVGID_2_);fill:#FFFFFF;}
</style>
<g>
	<defs>
		<rect id="SVGID_1_" y="0" width="425.03" height="425.03"/>
	</defs>
	<clipPath id="SVGID_2_">
		<use xlink:href="#SVGID_1_"  style="overflow:visible;"/>
	</clipPath>
	<path class="st0" d="M67.35,2.5h290.33c35.67,0,64.85,29.18,64.85,64.85v290.33c0,35.67-29.18,64.85-64.85,64.85H67.35
		c-35.67,0-64.85-29.18-64.85-64.85V67.35C2.5,31.68,31.68,2.5,67.35,2.5z"/>
	<path class="st1" d="M267.59,284.94c-2.43,0-4.39-1.97-4.39-4.39v-116.1c0-2.43,1.97-4.39,4.39-4.39c2.43,0,4.39,1.96,4.39,4.39
		v116.1C271.99,282.98,270.02,284.94,267.59,284.94"/>
	<path class="st1" d="M167.39,261.58c-14.18,0-25.72,11.54-25.72,25.72c0,14.18,11.54,25.72,25.72,25.72
		c14.18,0,25.71-11.54,25.71-25.72C193.1,273.12,181.57,261.58,167.39,261.58 M167.39,321.8c-19.03,0-34.5-15.48-34.5-34.5
		c0-19.02,15.48-34.5,34.5-34.5c19.02,0,34.5,15.48,34.5,34.5C201.89,306.32,186.41,321.8,167.39,321.8"/>
	<path class="st1" d="M167.39,279.85c-4.1,0-7.44,3.34-7.44,7.44c0,4.11,3.34,7.44,7.44,7.44c4.1,0,7.44-3.34,7.44-7.44
		C174.83,283.19,171.49,279.85,167.39,279.85 M167.39,303.53c-8.95,0-16.23-7.28-16.23-16.23s7.28-16.23,16.23-16.23
		c8.95,0,16.23,7.28,16.23,16.23S176.34,303.53,167.39,303.53"/>
	<path class="st1" d="M314.52,279.85c-4.1,0-7.45,3.34-7.45,7.44c0,4.11,3.34,7.44,7.45,7.44c4.1,0,7.45-3.34,7.45-7.44
		C321.96,283.19,318.62,279.85,314.52,279.85 M314.52,303.53c-8.95,0-16.23-7.28-16.23-16.23s7.28-16.23,16.23-16.23
		c8.95,0,16.23,7.28,16.23,16.23S323.47,303.53,314.52,303.53"/>
	<path class="st1" d="M314.52,261.58c-14.18,0-25.72,11.54-25.72,25.72c0,14.18,11.54,25.72,25.72,25.72
		c14.18,0,25.72-11.54,25.72-25.72C340.23,273.12,328.7,261.58,314.52,261.58 M314.52,321.8c-19.02,0-34.5-15.48-34.5-34.5
		c0-19.02,15.48-34.5,34.5-34.5c19.03,0,34.5,15.48,34.5,34.5C349.02,306.32,333.54,321.8,314.52,321.8"/>
	<path class="st1" d="M363.46,284.94h-19.66c-2.05,0-3.82-1.42-4.28-3.41c-2.7-11.75-12.98-19.96-25-19.96
		c-12.02,0-22.31,8.21-25.01,19.96c-0.46,1.99-2.24,3.41-4.28,3.41h-88.55c-2.05,0-3.82-1.42-4.28-3.41
		c-2.7-11.75-12.98-19.96-25.01-19.96s-22.31,8.21-25.01,19.96c-0.46,1.99-2.24,3.41-4.28,3.41H99.94c-2.43,0-4.39-1.97-4.39-4.39
		v-64.34c0-2.43,1.97-4.39,4.39-4.39c2.43,0,4.39,1.96,4.39,4.39v59.94h30.45c4.71-13.92,17.65-23.37,32.61-23.37
		s27.9,9.45,32.6,23.37h81.92c4.71-13.92,17.65-23.37,32.61-23.37c14.95,0,27.9,9.45,32.6,23.37h11.94v-55.67l-28.08-51.64h-63.39
		c-2.43,0-4.39-1.96-4.39-4.39v-31.74h-71.91c-2.43,0-4.39-1.96-4.39-4.39c0-2.43,1.97-4.39,4.39-4.39h76.31
		c2.43,0,4.39,1.96,4.39,4.39v31.74h61.61c1.61,0,3.09,0.88,3.86,2.3l29.87,54.92c0.35,0.64,0.54,1.37,0.54,2.1v61.18
		C367.85,282.98,365.89,284.94,363.46,284.94"/>
	<path class="st1" d="M298.02,214.98h58.05l-17.23-31.69l-40.82,0.12V214.98z M363.46,223.76h-69.83c-2.43,0-4.39-1.96-4.39-4.39
		v-40.34c0-2.42,1.96-4.38,4.38-4.39l47.82-0.14c1.62,0,3.1,0.88,3.87,2.3l22.02,40.48c0.74,1.36,0.71,3.01-0.08,4.34
		C366.44,222.95,365.01,223.76,363.46,223.76"/>
	<path class="st1" d="M160.01,147.04c-21.63,0-39.22,17.6-39.22,39.22s17.59,39.22,39.22,39.22s39.22-17.6,39.22-39.22
		S181.64,147.04,160.01,147.04 M160.01,234.27c-26.47,0-48.01-21.53-48.01-48.01c0-26.47,21.54-48.01,48.01-48.01
		c26.47,0,48.01,21.53,48.01,48.01C208.02,212.73,186.48,234.27,160.01,234.27"/>
	<path class="st1" d="M99.94,197.25h-8.79c-2.43,0-4.39-1.97-4.39-4.39c0-2.43,1.97-4.39,4.39-4.39h8.79c2.43,0,4.39,1.96,4.39,4.39
		C104.33,195.28,102.37,197.25,99.94,197.25"/>
	<path class="st1" d="M79.06,197.25h-12.1c-2.43,0-4.39-1.97-4.39-4.39c0-2.43,1.97-4.39,4.39-4.39h12.1c2.43,0,4.39,1.96,4.39,4.39
		C83.45,195.28,81.48,197.25,79.06,197.25"/>
	<path class="st1" d="M54.85,197.25h-8.79c-2.43,0-4.39-1.97-4.39-4.39c0-2.43,1.97-4.39,4.39-4.39h8.79c2.43,0,4.39,1.96,4.39,4.39
		C59.25,195.28,57.28,197.25,54.85,197.25"/>
	<path class="st1" d="M104.62,164.52h-8.79c-2.43,0-4.39-1.96-4.39-4.39c0-2.43,1.97-4.39,4.39-4.39h8.79
		c2.43,0,4.39,1.96,4.39,4.39C109.01,162.55,107.04,164.52,104.62,164.52"/>
	<path class="st1" d="M82.17,164.52H68.51c-2.43,0-4.39-1.96-4.39-4.39c0-2.43,1.97-4.39,4.39-4.39h13.66
		c2.43,0,4.39,1.96,4.39,4.39C86.56,162.55,84.6,164.52,82.17,164.52"/>
	<path class="st1" d="M54.85,164.52h-8.79c-2.43,0-4.39-1.96-4.39-4.39c0-2.43,1.97-4.39,4.39-4.39h8.79c2.43,0,4.39,1.96,4.39,4.39
		C59.25,162.55,57.28,164.52,54.85,164.52"/>
	<path class="st1" d="M134.58,131.79h-8.79c-2.43,0-4.39-1.96-4.39-4.39c0-2.43,1.97-4.39,4.39-4.39h8.79
		c2.43,0,4.39,1.96,4.39,4.39C138.97,129.82,137.01,131.79,134.58,131.79"/>
	<path class="st1" d="M83.23,131.79H69.04c-2.43,0-4.39-1.96-4.39-4.39c0-2.43,1.97-4.39,4.39-4.39h14.19
		c2.43,0,4.39,1.96,4.39,4.39C87.62,129.82,85.66,131.79,83.23,131.79 M111.6,131.79H97.42c-2.43,0-4.39-1.96-4.39-4.39
		c0-2.43,1.97-4.39,4.39-4.39h14.19c2.43,0,4.39,1.96,4.39,4.39C116,129.82,114.03,131.79,111.6,131.79"/>
	<path class="st1" d="M54.85,131.79h-8.79c-2.43,0-4.39-1.96-4.39-4.39c0-2.43,1.97-4.39,4.39-4.39h8.79c2.43,0,4.39,1.96,4.39,4.39
		C59.25,129.82,57.28,131.79,54.85,131.79"/>
	<path class="st1" d="M267.59,261.58H99.94c-2.43,0-4.39-1.96-4.39-4.39c0-2.43,1.97-4.39,4.39-4.39h167.65
		c2.43,0,4.39,1.96,4.39,4.39C271.99,259.61,270.02,261.58,267.59,261.58"/>
	<path class="st1" d="M245.99,234.27c-2.43,0-4.39-1.96-4.39-4.39v-83.73c0-2.43,1.97-4.39,4.39-4.39c2.43,0,4.39,1.96,4.39,4.39
		v83.73C250.38,232.3,248.41,234.27,245.99,234.27"/>
	<path class="st1" d="M348.27,321.8H63.79c-2.43,0-4.39-1.97-4.39-4.39c0-2.43,1.97-4.39,4.39-4.39h284.48
		c2.43,0,4.39,1.97,4.39,4.39C352.66,319.83,350.69,321.8,348.27,321.8"/>
	<path class="st1" d="M179.91,173.85c-0.07,0-0.14-0.01-0.21-0.02l-5.12-0.86c-0.54-0.09-0.96-0.51-1.04-1.04l-0.86-5.12
		c-0.12-0.69,0.35-1.35,1.04-1.47c0.69-0.12,1.35,0.35,1.47,1.04l0.71,4.23l4.23,0.71c0.69,0.12,1.16,0.77,1.04,1.47
		C181.06,173.41,180.52,173.85,179.91,173.85"/>
	<path class="st1" d="M180.8,187.5h-13.82c-0.4,0-0.77-0.18-1.01-0.5c-0.24-0.31-0.32-0.72-0.22-1.1l0.6-2.23l-1.97-0.91
		c-0.64-0.3-0.92-1.05-0.62-1.69c0.3-0.64,1.05-0.92,1.69-0.62l2.94,1.36c0.56,0.26,0.85,0.89,0.7,1.48l-0.44,1.66h12.16
		c0.7,0,1.27,0.57,1.27,1.27C182.07,186.93,181.5,187.5,180.8,187.5"/>
	<path class="st1" d="M183.81,191.73c-0.4,0-0.79-0.19-1.04-0.53l-3.01-4.23c-0.32-0.44-0.32-1.04,0-1.48l3.01-4.23
		c0.41-0.57,1.2-0.71,1.78-0.3c0.57,0.41,0.71,1.2,0.3,1.78l-2.49,3.49l2.49,3.49c0.41,0.57,0.27,1.37-0.3,1.78
		C184.32,191.65,184.06,191.73,183.81,191.73"/>
	<path class="st1" d="M174.79,202c-0.33,0-0.65-0.12-0.9-0.37l-9.77-9.77c-0.29-0.29-0.42-0.7-0.36-1.11
		c0.07-0.4,0.32-0.75,0.69-0.93l1.88-0.93l-0.59-2.35c-0.17-0.68,0.24-1.38,0.92-1.55c0.68-0.17,1.38,0.24,1.55,0.92l0.84,3.34
		c0.15,0.58-0.13,1.19-0.67,1.45l-1.21,0.6l8.52,8.52c0.5,0.5,0.5,1.3,0,1.8C175.44,201.88,175.11,202,174.79,202"/>
	<path class="st1" d="M173.93,207.13c-0.07,0-0.14-0.01-0.21-0.02c-0.69-0.12-1.16-0.77-1.04-1.47l0.86-5.12
		c0.09-0.54,0.51-0.96,1.04-1.04l5.12-0.86c0.69-0.12,1.35,0.35,1.47,1.04c0.12,0.69-0.35,1.35-1.04,1.47l-4.23,0.71l-0.71,4.23
		C175.08,206.69,174.54,207.13,173.93,207.13"/>
	<path class="st1" d="M160.28,208.01c-0.7,0-1.27-0.57-1.27-1.27v-13.82c0-0.4,0.18-0.77,0.5-1.01c0.31-0.24,0.73-0.32,1.11-0.22
		l2.18,0.59l1.11-1.95c0.35-0.61,1.13-0.83,1.74-0.48c0.61,0.35,0.82,1.13,0.48,1.74l-1.6,2.81c-0.29,0.5-0.88,0.75-1.44,0.6
		l-1.53-0.41v12.16C161.55,207.44,160.98,208.01,160.28,208.01"/>
	<path class="st1" d="M156.05,211.03c-0.4,0-0.79-0.19-1.04-0.53c-0.41-0.57-0.27-1.37,0.3-1.78l4.23-3.01
		c0.44-0.31,1.04-0.31,1.48,0l4.23,3.01c0.57,0.41,0.71,1.2,0.3,1.78c-0.41,0.57-1.2,0.71-1.78,0.3l-3.49-2.49l-3.49,2.49
		C156.56,210.95,156.3,211.03,156.05,211.03"/>
	<path class="st1" d="M164.91,182.87c-0.09,0-0.19-0.01-0.28-0.03c-0.43-0.1-0.77-0.4-0.92-0.82l-0.76-2.14l-2.21,0.84
		c-0.39,0.15-0.83,0.09-1.18-0.14c-0.35-0.24-0.55-0.63-0.55-1.05V165.7c0-0.7,0.57-1.27,1.27-1.27c0.7,0,1.27,0.57,1.27,1.27v11.98
		l1.7-0.65c0.32-0.12,0.67-0.11,0.99,0.04c0.31,0.14,0.55,0.41,0.66,0.73l0.52,1.47l8.45-8.45c0.5-0.5,1.3-0.5,1.8,0
		c0.5,0.5,0.5,1.3,0,1.8l-9.88,9.88C165.56,182.74,165.24,182.87,164.91,182.87"/>
	<path class="st1" d="M160.28,166.98c-0.26,0-0.52-0.08-0.74-0.24l-4.23-3.01c-0.57-0.41-0.71-1.2-0.3-1.78
		c0.41-0.57,1.2-0.71,1.78-0.3l3.49,2.49l3.49-2.49c0.57-0.41,1.37-0.27,1.78,0.3c0.41,0.57,0.28,1.37-0.3,1.78l-4.23,3.01
		C160.8,166.9,160.54,166.98,160.28,166.98"/>
	<path class="st1" d="M140.64,173.85c0.07,0,0.14-0.01,0.21-0.02l5.12-0.86c0.54-0.09,0.96-0.51,1.04-1.04l0.86-5.12
		c0.12-0.69-0.35-1.35-1.04-1.47c-0.69-0.12-1.35,0.35-1.47,1.04l-0.71,4.23l-4.23,0.71c-0.69,0.12-1.16,0.77-1.04,1.47
		C139.49,173.41,140.03,173.85,140.64,173.85"/>
	<path class="st1" d="M139.76,187.5h13.82c0.4,0,0.77-0.18,1.01-0.5c0.24-0.31,0.32-0.72,0.22-1.1l-0.6-2.23l1.97-0.91
		c0.64-0.3,0.92-1.05,0.62-1.69c-0.3-0.64-1.05-0.92-1.69-0.62l-2.94,1.36c-0.56,0.26-0.85,0.89-0.7,1.48l0.44,1.66h-12.16
		c-0.7,0-1.27,0.57-1.27,1.27C138.48,186.93,139.05,187.5,139.76,187.5"/>
	<path class="st1" d="M136.74,191.73c0.4,0,0.79-0.19,1.04-0.53l3.01-4.23c0.32-0.44,0.32-1.04,0-1.48l-3.01-4.23
		c-0.41-0.57-1.2-0.71-1.78-0.3c-0.57,0.41-0.71,1.2-0.3,1.78l2.49,3.49l-2.49,3.49c-0.41,0.57-0.27,1.37,0.3,1.78
		C136.23,191.65,136.49,191.73,136.74,191.73"/>
	<path class="st1" d="M145.77,202c0.33,0,0.65-0.12,0.9-0.37l9.77-9.77c0.29-0.29,0.42-0.7,0.36-1.11c-0.07-0.4-0.32-0.75-0.69-0.93
		l-1.88-0.93l0.59-2.35c0.17-0.68-0.24-1.38-0.92-1.55c-0.68-0.17-1.38,0.24-1.55,0.92l-0.84,3.34c-0.15,0.58,0.13,1.19,0.67,1.45
		l1.21,0.6l-8.52,8.52c-0.5,0.5-0.5,1.3,0,1.8C145.11,201.88,145.44,202,145.77,202"/>
	<path class="st1" d="M146.63,207.13c0.07,0,0.14-0.01,0.21-0.02c0.69-0.12,1.16-0.77,1.04-1.47l-0.86-5.12
		c-0.09-0.54-0.51-0.96-1.04-1.04l-5.12-0.86c-0.69-0.12-1.35,0.35-1.47,1.04c-0.12,0.69,0.35,1.35,1.04,1.47l4.23,0.71l0.71,4.23
		C145.48,206.69,146.02,207.13,146.63,207.13"/>
	<path class="st1" d="M160.27,208.01c0.7,0,1.27-0.57,1.27-1.27v-13.82c0-0.4-0.18-0.77-0.5-1.01c-0.31-0.24-0.73-0.32-1.11-0.22
		l-2.18,0.59l-1.11-1.95c-0.35-0.61-1.13-0.83-1.74-0.48c-0.61,0.35-0.82,1.13-0.48,1.74l1.6,2.81c0.29,0.5,0.88,0.75,1.44,0.6
		l1.53-0.41v12.16C159,207.44,159.57,208.01,160.27,208.01"/>
	<path class="st1" d="M164.51,211.03c0.4,0,0.79-0.19,1.04-0.53c0.41-0.57,0.27-1.37-0.3-1.78l-4.23-3.01
		c-0.44-0.31-1.03-0.31-1.48,0l-4.23,3.01c-0.57,0.41-0.71,1.2-0.3,1.78c0.41,0.57,1.2,0.71,1.78,0.3l3.49-2.49l3.49,2.49
		C163.99,210.95,164.25,211.03,164.51,211.03"/>
	<path class="st1" d="M155.65,182.87c0.09,0,0.19-0.01,0.28-0.03c0.43-0.1,0.77-0.4,0.92-0.82l0.76-2.14l2.21,0.84
		c0.39,0.15,0.83,0.09,1.18-0.14c0.34-0.24,0.55-0.63,0.55-1.05V165.7c0-0.7-0.57-1.27-1.27-1.27c-0.7,0-1.27,0.57-1.27,1.27v11.98
		l-1.7-0.65c-0.32-0.12-0.67-0.11-0.99,0.04c-0.31,0.14-0.55,0.41-0.66,0.73l-0.52,1.47l-8.46-8.45c-0.5-0.5-1.3-0.5-1.8,0
		c-0.5,0.5-0.5,1.3,0,1.8l9.88,9.88C154.99,182.74,155.31,182.87,155.65,182.87"/>
	<path class="st1" d="M160.27,166.98c0.26,0,0.52-0.08,0.74-0.24l4.23-3.01c0.57-0.41,0.71-1.2,0.3-1.78
		c-0.41-0.57-1.2-0.71-1.78-0.3l-3.49,2.49l-3.49-2.49c-0.57-0.41-1.37-0.27-1.78,0.3c-0.41,0.57-0.28,1.37,0.3,1.78l4.23,3.01
		C159.76,166.9,160.01,166.98,160.27,166.98"/>
</g>
</svg>
