<?xml version="1.0" encoding="utf-8"?>
<!-- Generator: Adobe Illustrator 26.0.2, SVG Export Plug-In . SVG Version: 6.00 Build 0)  -->
<svg version="1.1" id="Ebene_1" xmlns="http://www.w3.org/2000/svg" xmlns:xlink="http://www.w3.org/1999/xlink" x="0px" y="0px"
	 viewBox="0 0 37.4 25.1" style="enable-background:new 0 0 37.4 25.1;" xml:space="preserve">
<style type="text/css">
	.st0{clip-path:url(#SVGID_00000107554874373430941960000002455499924035522989_);fill:#FFFFFF;}
	
		.st1{clip-path:url(#SVGID_00000107554874373430941960000002455499924035522989_);fill:none;stroke:#FFFFFF;stroke-width:0.359;stroke-miterlimit:10;}
</style>
<g>
	<defs>
		<rect id="SVGID_1_" width="37.4" height="25.1"/>
	</defs>
	<clipPath id="SVGID_00000071536415939320823010000018259660659575411130_">
		<use xlink:href="#SVGID_1_"  style="overflow:visible;"/>
	</clipPath>
	<path style="clip-path:url(#SVGID_00000071536415939320823010000018259660659575411130_);fill:#FFFFFF;" d="M2.4,17.6
		c-0.6,0-1.2,0.5-1.2,1.2c0,0.6,0.5,1.2,1.2,1.2h27.5c0.6,0,1.2-0.5,1.2-1.2c0-0.6-0.5-1.2-1.2-1.2H2.4z M29.8,20.8H2.4
		c-1.1,0-2.1-0.9-2.1-2.1c0-1.1,0.9-2.1,2.1-2.1h27.5c1.1,0,2.1,0.9,2.1,2.1C31.9,19.9,31,20.8,29.8,20.8"/>
	
		<path style="clip-path:url(#SVGID_00000071536415939320823010000018259660659575411130_);fill:none;stroke:#FFFFFF;stroke-width:0.359;stroke-miterlimit:10;" d="
		M2.4,17.6c-0.6,0-1.2,0.5-1.2,1.2c0,0.6,0.5,1.2,1.2,1.2h27.5c0.6,0,1.2-0.5,1.2-1.2c0-0.6-0.5-1.2-1.2-1.2H2.4z M29.8,20.8H2.4
		c-1.1,0-2.1-0.9-2.1-2.1c0-1.1,0.9-2.1,2.1-2.1h27.5c1.1,0,2.1,0.9,2.1,2.1C31.9,19.9,31,20.8,29.8,20.8z"/>
	<path style="clip-path:url(#SVGID_00000071536415939320823010000018259660659575411130_);fill:#FFFFFF;" d="M29.7,17.6H2.5v-0.5
		c0-3.2,1.2-6.4,3.3-8.8c0.2-0.2,0.5-0.2,0.6,0c0.2,0.2,0.2,0.5,0,0.6c-1.9,2.2-2.9,4.9-3,7.8h25.3C28.5,9.9,22.9,4.4,16.1,4.4
		c-2.3,0-4.5,0.6-6.5,1.8C9.4,6.3,9.1,6.3,9,6.1C8.9,5.8,8.9,5.6,9.2,5.4c2.1-1.2,4.5-1.9,6.9-1.9c7.5,0,13.6,6.1,13.6,13.6V17.6z"
		/>
	
		<path style="clip-path:url(#SVGID_00000071536415939320823010000018259660659575411130_);fill:none;stroke:#FFFFFF;stroke-width:0.359;stroke-miterlimit:10;" d="
		M29.7,17.6H2.5v-0.5c0-3.2,1.2-6.4,3.3-8.8c0.2-0.2,0.5-0.2,0.6,0c0.2,0.2,0.2,0.5,0,0.6c-1.9,2.2-2.9,4.9-3,7.8h25.3
		C28.5,9.9,22.9,4.4,16.1,4.4c-2.3,0-4.5,0.6-6.5,1.8C9.4,6.3,9.1,6.3,9,6.1C8.9,5.8,8.9,5.6,9.2,5.4c2.1-1.2,4.5-1.9,6.9-1.9
		c7.5,0,13.6,6.1,13.6,13.6V17.6z"/>
	<path style="clip-path:url(#SVGID_00000071536415939320823010000018259660659575411130_);fill:#FFFFFF;" d="M16.1,1.2
		c-0.7,0-1.3,0.7-1.3,1.5c0,0.3,0.1,0.7,0.3,0.9c0.7,0,1.3,0,2,0c0.2-0.3,0.3-0.6,0.3-0.9C17.4,1.9,16.8,1.2,16.1,1.2 M17.3,4.5
		C17.3,4.5,17.2,4.5,17.3,4.5c-0.8-0.1-1.5-0.1-2.3,0c-0.1,0-0.3,0-0.4-0.1c-0.4-0.5-0.7-1.1-0.7-1.7c0-1.3,1-2.4,2.2-2.4
		c1.2,0,2.2,1.1,2.2,2.4c0,0.6-0.2,1.3-0.7,1.7C17.5,4.4,17.4,4.5,17.3,4.5"/>
	
		<path style="clip-path:url(#SVGID_00000071536415939320823010000018259660659575411130_);fill:none;stroke:#FFFFFF;stroke-width:0.359;stroke-miterlimit:10;" d="
		M16.1,1.2c-0.7,0-1.3,0.7-1.3,1.5c0,0.3,0.1,0.7,0.3,0.9c0.7,0,1.3,0,2,0c0.2-0.3,0.3-0.6,0.3-0.9C17.4,1.9,16.8,1.2,16.1,1.2z
		 M17.3,4.5C17.3,4.5,17.2,4.5,17.3,4.5c-0.8-0.1-1.5-0.1-2.3,0c-0.1,0-0.3,0-0.4-0.1c-0.4-0.5-0.7-1.1-0.7-1.7c0-1.3,1-2.4,2.2-2.4
		c1.2,0,2.2,1.1,2.2,2.4c0,0.6-0.2,1.3-0.7,1.7C17.5,4.4,17.4,4.5,17.3,4.5z"/>
	<path style="clip-path:url(#SVGID_00000071536415939320823010000018259660659575411130_);fill:#FFFFFF;" d="M29,15.1H13.6
		c-0.3,0-0.5-0.2-0.5-0.5s0.2-0.5,0.5-0.5H29c0.3,0,0.5,0.2,0.5,0.5S29.2,15.1,29,15.1"/>
	
		<path style="clip-path:url(#SVGID_00000071536415939320823010000018259660659575411130_);fill:none;stroke:#FFFFFF;stroke-width:0.359;stroke-miterlimit:10;" d="
		M29,15.1H13.6c-0.3,0-0.5-0.2-0.5-0.5s0.2-0.5,0.5-0.5H29c0.3,0,0.5,0.2,0.5,0.5S29.2,15.1,29,15.1z"/>
	<path style="clip-path:url(#SVGID_00000071536415939320823010000018259660659575411130_);fill:#FFFFFF;" d="M26.3,8.3h-0.9
		c-0.3,0-0.5-0.2-0.5-0.5c0-0.3,0.2-0.5,0.5-0.5h0.9c0.3,0,0.5,0.2,0.5,0.5C26.8,8.1,26.6,8.3,26.3,8.3"/>
	
		<path style="clip-path:url(#SVGID_00000071536415939320823010000018259660659575411130_);fill:none;stroke:#FFFFFF;stroke-width:0.359;stroke-miterlimit:10;" d="
		M26.3,8.3h-0.9c-0.3,0-0.5-0.2-0.5-0.5c0-0.3,0.2-0.5,0.5-0.5h0.9c0.3,0,0.5,0.2,0.5,0.5C26.8,8.1,26.6,8.3,26.3,8.3z"/>
	<path style="clip-path:url(#SVGID_00000071536415939320823010000018259660659575411130_);fill:#FFFFFF;" d="M31.8,8.3h-0.9
		c-0.3,0-0.5-0.2-0.5-0.5c0-0.3,0.2-0.5,0.5-0.5h0.9c0.3,0,0.5,0.2,0.5,0.5C32.3,8.1,32.1,8.3,31.8,8.3"/>
	
		<path style="clip-path:url(#SVGID_00000071536415939320823010000018259660659575411130_);fill:none;stroke:#FFFFFF;stroke-width:0.359;stroke-miterlimit:10;" d="
		M31.8,8.3h-0.9c-0.3,0-0.5-0.2-0.5-0.5c0-0.3,0.2-0.5,0.5-0.5h0.9c0.3,0,0.5,0.2,0.5,0.5C32.3,8.1,32.1,8.3,31.8,8.3z"/>
	<path style="clip-path:url(#SVGID_00000071536415939320823010000018259660659575411130_);fill:#FFFFFF;" d="M30.4,11.6h-0.9
		c-0.3,0-0.5-0.2-0.5-0.5c0-0.3,0.2-0.5,0.5-0.5h0.9c0.3,0,0.5,0.2,0.5,0.5C30.9,11.4,30.7,11.6,30.4,11.6"/>
	
		<path style="clip-path:url(#SVGID_00000071536415939320823010000018259660659575411130_);fill:none;stroke:#FFFFFF;stroke-width:0.359;stroke-miterlimit:10;" d="
		M30.4,11.6h-0.9c-0.3,0-0.5-0.2-0.5-0.5c0-0.3,0.2-0.5,0.5-0.5h0.9c0.3,0,0.5,0.2,0.5,0.5C30.9,11.4,30.7,11.6,30.4,11.6z"/>
	<path style="clip-path:url(#SVGID_00000071536415939320823010000018259660659575411130_);fill:#FFFFFF;" d="M35.9,11.6h-0.9
		c-0.3,0-0.5-0.2-0.5-0.5c0-0.3,0.2-0.5,0.5-0.5h0.9c0.3,0,0.5,0.2,0.5,0.5C36.3,11.4,36.1,11.6,35.9,11.6"/>
	
		<path style="clip-path:url(#SVGID_00000071536415939320823010000018259660659575411130_);fill:none;stroke:#FFFFFF;stroke-width:0.359;stroke-miterlimit:10;" d="
		M35.9,11.6h-0.9c-0.3,0-0.5-0.2-0.5-0.5c0-0.3,0.2-0.5,0.5-0.5h0.9c0.3,0,0.5,0.2,0.5,0.5C36.3,11.4,36.1,11.6,35.9,11.6z"/>
	<path style="clip-path:url(#SVGID_00000071536415939320823010000018259660659575411130_);fill:#FFFFFF;" d="M31.2,15.5h-0.9
		c-0.3,0-0.5-0.2-0.5-0.5c0-0.3,0.2-0.5,0.5-0.5h0.9c0.3,0,0.5,0.2,0.5,0.5C31.6,15.3,31.4,15.5,31.2,15.5"/>
	
		<path style="clip-path:url(#SVGID_00000071536415939320823010000018259660659575411130_);fill:none;stroke:#FFFFFF;stroke-width:0.359;stroke-miterlimit:10;" d="
		M31.2,15.5h-0.9c-0.3,0-0.5-0.2-0.5-0.5c0-0.3,0.2-0.5,0.5-0.5h0.9c0.3,0,0.5,0.2,0.5,0.5C31.6,15.3,31.4,15.5,31.2,15.5z"/>
	<path style="clip-path:url(#SVGID_00000071536415939320823010000018259660659575411130_);fill:#FFFFFF;" d="M36.6,15.5h-0.9
		c-0.3,0-0.5-0.2-0.5-0.5c0-0.3,0.2-0.5,0.5-0.5h0.9c0.3,0,0.5,0.2,0.5,0.5C37.1,15.3,36.9,15.5,36.6,15.5"/>
	
		<path style="clip-path:url(#SVGID_00000071536415939320823010000018259660659575411130_);fill:none;stroke:#FFFFFF;stroke-width:0.359;stroke-miterlimit:10;" d="
		M36.6,15.5h-0.9c-0.3,0-0.5-0.2-0.5-0.5c0-0.3,0.2-0.5,0.5-0.5h0.9c0.3,0,0.5,0.2,0.5,0.5C37.1,15.3,36.9,15.5,36.6,15.5z"/>
	<path style="clip-path:url(#SVGID_00000071536415939320823010000018259660659575411130_);fill:#FFFFFF;" d="M8.6,20.8
		c-0.9,0-1.5,0.7-1.5,1.5c0,0.9,0.7,1.5,1.5,1.5s1.5-0.7,1.5-1.5C10.2,21.5,9.5,20.8,8.6,20.8 M8.6,24.8c-1.4,0-2.5-1.1-2.5-2.5
		c0-1.4,1.1-2.5,2.5-2.5s2.5,1.1,2.5,2.5C11.1,23.7,10,24.8,8.6,24.8"/>
	
		<path style="clip-path:url(#SVGID_00000071536415939320823010000018259660659575411130_);fill:none;stroke:#FFFFFF;stroke-width:0.359;stroke-miterlimit:10;" d="
		M8.6,20.8c-0.9,0-1.5,0.7-1.5,1.5c0,0.9,0.7,1.5,1.5,1.5s1.5-0.7,1.5-1.5C10.2,21.5,9.5,20.8,8.6,20.8z M8.6,24.8
		c-1.4,0-2.5-1.1-2.5-2.5c0-1.4,1.1-2.5,2.5-2.5s2.5,1.1,2.5,2.5C11.1,23.7,10,24.8,8.6,24.8z"/>
	<path style="clip-path:url(#SVGID_00000071536415939320823010000018259660659575411130_);fill:#FFFFFF;" d="M23.6,20.8
		c-0.9,0-1.5,0.7-1.5,1.5c0,0.9,0.7,1.5,1.5,1.5s1.5-0.7,1.5-1.5C25.1,21.5,24.4,20.8,23.6,20.8 M23.6,24.8c-1.4,0-2.5-1.1-2.5-2.5
		c0-1.4,1.1-2.5,2.5-2.5S26,21,26,22.3C26,23.7,24.9,24.8,23.6,24.8"/>
	
		<path style="clip-path:url(#SVGID_00000071536415939320823010000018259660659575411130_);fill:none;stroke:#FFFFFF;stroke-width:0.359;stroke-miterlimit:10;" d="
		M23.6,20.8c-0.9,0-1.5,0.7-1.5,1.5c0,0.9,0.7,1.5,1.5,1.5s1.5-0.7,1.5-1.5C25.1,21.5,24.4,20.8,23.6,20.8z M23.6,24.8
		c-1.4,0-2.5-1.1-2.5-2.5c0-1.4,1.1-2.5,2.5-2.5S26,21,26,22.3C26,23.7,24.9,24.8,23.6,24.8z"/>
</g>
</svg>
