<?xml version="1.0" encoding="utf-8"?>
<!-- Generator: Adobe Illustrator 25.2.0, SVG Export Plug-In . SVG Version: 6.00 Build 0)  -->
<svg version="1.1" id="Ebene_1" xmlns="http://www.w3.org/2000/svg" xmlns:xlink="http://www.w3.org/1999/xlink" x="0px" y="0px"
	 viewBox="0 0 425.03 425.03" style="enable-background:new 0 0 425.03 425.03;" xml:space="preserve">
<style type="text/css">
	.st0{clip-path:url(#SVGID_2_);fill:none;stroke:#FFFFFF;stroke-width:5;stroke-miterlimit:10;}
	.st1{clip-path:url(#SVGID_2_);fill:#FFFFFF;}
</style>
<g>
	<defs>
		<rect id="SVGID_1_" y="0" width="425.03" height="425.03"/>
	</defs>
	<clipPath id="SVGID_2_">
		<use xlink:href="#SVGID_1_"  style="overflow:visible;"/>
	</clipPath>
	<path class="st0" d="M67.35,2.5h290.33c35.67,0,64.85,29.18,64.85,64.85v290.33c0,35.67-29.18,64.85-64.85,64.85H67.35
		c-35.67,0-64.85-29.18-64.85-64.85V67.35C2.5,31.68,31.68,2.5,67.35,2.5z"/>
	<path class="st1" d="M250.29,328.83c-0.88,0-1.76-0.29-2.49-0.9c-1.66-1.38-1.89-3.84-0.51-5.5l4.92-5.93
		c3.43-4.14,5.32-9.38,5.32-14.76v-60.58c0-2.67-2.17-4.85-4.85-4.85c-2.67,0-4.85,2.18-4.85,4.85c0,2.16-1.75,3.9-3.9,3.9
		c-2.15,0-3.9-1.75-3.9-3.9v-3.72c0-1.59,0.95-2.96,2.31-3.57c2.29-3.25,6.08-5.37,10.35-5.37c6.98,0,12.65,5.68,12.65,12.66v60.58
		c0,7.19-2.53,14.2-7.11,19.74l-4.92,5.93C252.53,328.35,251.41,328.83,250.29,328.83"/>
	<path class="st1" d="M243.92,262.5c-2.16,0-3.9-1.75-3.9-3.9v-25.38c0-2.67-2.17-4.85-4.85-4.85c-2.67,0-4.85,2.18-4.85,4.85v4.53
		c0,2.15-1.75,3.9-3.9,3.9c-2.16,0-3.9-1.75-3.9-3.9v-4.53c0-6.98,5.68-12.66,12.65-12.66c6.98,0,12.66,5.68,12.66,12.66v25.38
		C247.82,260.75,246.07,262.5,243.92,262.5"/>
	<path class="st1" d="M226.41,258.11c-2.16,0-3.9-1.75-3.9-3.9v-26.19c0-2.67-2.18-4.85-4.85-4.85c-2.67,0-4.85,2.17-4.85,4.85
		l0,23.42c0,2.16-1.75,3.9-3.9,3.9c-2.16,0-3.9-1.75-3.9-3.9l0-23.42c0-6.98,5.68-12.65,12.65-12.65s12.66,5.68,12.66,12.65v26.19
		C230.32,256.36,228.57,258.11,226.41,258.11"/>
	<path class="st1" d="M250.29,362.9c-2.16,0-3.9-1.75-3.9-3.9v-34.07c0-0.91,0.32-1.79,0.9-2.49l4.91-5.93
		c3.43-4.14,5.32-9.38,5.32-14.76v-52.02c0-2.16,1.75-3.9,3.9-3.9c2.16,0,3.9,1.75,3.9,3.9v52.02c0,7.19-2.53,14.2-7.11,19.74
		l-4.02,4.85V359C254.19,361.15,252.45,362.9,250.29,362.9"/>
	<path class="st1" d="M177.87,362.9c-2.16,0-3.9-1.75-3.9-3.9v-32.26l-12.48-10.6c-4.65-3.94-7.32-9.7-7.32-15.8V247.2
		c0-3.97,1.65-7.81,4.53-10.54c2.92-2.77,6.73-4.19,10.77-3.97c7.71,0.4,13.75,7.04,13.75,15.11v30.29c0,1.11,0.96,2.02,2.14,2.02
		c1.18,0,2.14-0.91,2.14-2.02v-82.47c0-3.57,1.52-6.99,4.17-9.39c2.64-2.39,6.21-3.55,9.78-3.2c6.37,0.64,11.36,6.39,11.36,13.09
		v38.72c0,2.15-1.75,3.9-3.9,3.9c-2.16,0-3.9-1.75-3.9-3.9v-38.72c0-2.74-1.9-5.08-4.33-5.32c-1.38-0.14-2.74,0.29-3.76,1.22
		c-1.03,0.93-1.6,2.21-1.6,3.6v82.47c0,5.42-4.46,9.83-9.95,9.83s-9.95-4.41-9.95-9.83V247.8c0-3.85-2.85-7.13-6.35-7.31
		c-1.86-0.09-3.64,0.55-4.99,1.84c-1.35,1.28-2.09,3.01-2.09,4.87v53.13c0,3.8,1.66,7.39,4.56,9.85l13.86,11.77
		c0.87,0.74,1.38,1.83,1.38,2.98V359C181.78,361.15,180.03,362.9,177.87,362.9"/>
	<path class="st1" d="M250.29,328.83h-72.42c-2.15,0-3.9-1.75-3.9-3.9c0-2.16,1.75-3.9,3.9-3.9h72.42c2.15,0,3.9,1.75,3.9,3.9
		C254.19,327.09,252.45,328.83,250.29,328.83"/>
	<path class="st1" d="M250.29,348.92h-57.97c-2.16,0-3.9-1.75-3.9-3.9c0-2.16,1.75-3.9,3.9-3.9h57.97c2.15,0,3.9,1.75,3.9,3.9
		C254.19,347.18,252.45,348.92,250.29,348.92"/>
	<path class="st1" d="M197.15,148.91c6.33,0,12.62,2.61,17.29,7.29l0.3,0.3c2.77,2.77,3.64,6.93,2.29,10.85
		c-0.92,2.65-0.38,6.31,2.92,8.51c2.31,1.54,5.43,1.59,7.75,0.12c3.46-2.17,4.04-5.92,3.09-8.67c-0.49-1.41-0.13-2.98,0.93-4.04
		c1.06-1.06,2.63-1.41,4.03-0.93c2.75,0.95,6.5,0.36,8.67-3.09c1.47-2.33,1.42-5.45-0.12-7.76c-2.19-3.29-5.85-3.84-8.51-2.92
		c-3.92,1.37-8.09,0.48-10.85-2.29l-0.3-0.3c-5.42-5.42-8.07-13.02-7.09-20.32c0.87-6.41,0.88-18.74-8.74-29.27
		c-5.31-5.82-12.18-8.77-20.06-8.61c-17.41,0.22-32.3,15.11-32.52,32.52c-0.1,8,2.8,14.75,8.61,20.06
		c10.53,9.62,22.85,9.61,29.27,8.74C195.13,148.98,196.14,148.91,197.15,148.91 M223.93,184.83c-2.92,0-5.84-0.83-8.31-2.48
		c-5.85-3.9-8.25-10.96-5.96-17.55c0.14-0.41,0.53-1.82-0.43-2.78l-0.3-0.3c-3.71-3.71-8.86-5.53-13.75-4.87
		c-6.25,0.84-22.23,1.49-35.58-10.71c-7.53-6.88-11.28-15.6-11.15-25.93c0.27-21.9,18.32-39.95,40.22-40.23
		c10.41-0.12,19.05,3.62,25.93,11.15c12.2,13.35,11.55,29.33,10.71,35.58c-0.66,4.9,1.16,10.05,4.87,13.76l0.3,0.3
		c0.96,0.96,2.37,0.57,2.78,0.43c6.6-2.29,13.65,0.11,17.56,5.96c3.21,4.82,3.31,11.35,0.23,16.24c-2.71,4.32-7.24,6.87-12.04,7.13
		c-0.26,4.81-2.82,9.33-7.13,12.04C229.47,184.09,226.7,184.83,223.93,184.83"/>
	<path class="st1" d="M169.3,109.22c-1,0-2-0.38-2.76-1.14c-1.52-1.53-1.52-4,0-5.52c6.65-6.65,13.47-9.93,20.84-10.02
		c8.02-0.05,14.7,2.8,20.01,8.61c1.45,1.59,1.34,4.06-0.25,5.52c-1.59,1.46-4.06,1.35-5.51-0.25c-3.8-4.15-8.49-6.2-14.15-6.07
		c-5.24,0.07-10.28,2.6-15.42,7.73C171.3,108.84,170.3,109.22,169.3,109.22"/>
	<path class="st1" d="M209.83,161.21c-1,0-2-0.38-2.76-1.14c-1.52-1.53-1.52-3.99,0-5.52L223,138.62c1.53-1.52,4-1.52,5.52,0
		c1.52,1.52,1.52,3.99,0,5.52l-15.93,15.93C211.82,160.83,210.82,161.21,209.83,161.21"/>
	<path class="st1" d="M177.87,207.64c-0.4,0-0.81-0.06-1.21-0.19c-32.42-10.6-54.21-40.65-54.21-74.79
		c0-43.38,35.29-78.66,78.66-78.66s78.66,35.29,78.66,78.66c0,33.42-21.19,63.27-52.72,74.28c-2.04,0.71-4.26-0.36-4.97-2.4
		c-0.71-2.04,0.36-4.26,2.4-4.97c28.4-9.92,47.49-36.81,47.49-66.91c0-39.07-31.79-70.86-70.86-70.86
		c-39.07,0-70.86,31.79-70.86,70.86c0,30.75,19.62,57.82,48.83,67.37c2.05,0.67,3.17,2.87,2.5,4.92
		C181.04,206.6,179.51,207.64,177.87,207.64"/>
</g>
</svg>
