<?xml version="1.0" encoding="utf-8"?>
<!-- Generator: Adobe Illustrator 25.2.0, SVG Export Plug-In . SVG Version: 6.00 Build 0)  -->
<svg version="1.1" id="Ebene_1" xmlns="http://www.w3.org/2000/svg" xmlns:xlink="http://www.w3.org/1999/xlink" x="0px" y="0px"
	 viewBox="0 0 160.88 191.71" style="enable-background:new 0 0 160.88 191.71;" xml:space="preserve">
<style type="text/css">

		.st0{clip-path:url(#SVGID_2_);fill:none;stroke:#2B363D;stroke-width:12.551;stroke-linecap:round;stroke-linejoin:round;stroke-miterlimit:10;}
	.st1{clip-path:url(#SVGID_2_);fill:#2B363D;}
</style>
<g>
	<defs>
		<rect id="SVGID_1_" width="160.88" height="191.71"/>
	</defs>
	<clipPath id="SVGID_2_">
		<use xlink:href="#SVGID_1_"  style="overflow:visible;"/>
	</clipPath>
	<path class="st0" d="M145.15,77.47C131.57,62.39,108.1,61.16,93,74.74L80.45,86.06L67.87,74.74c-15.1-13.58-38.57-12.35-52.15,2.73
		c-13.6,15.1-12.37,38.57,2.73,52.15l61.99,55.82l61.98-55.82C157.52,116.04,158.76,92.57,145.15,77.47z"/>
	<path class="st1" d="M67.68,42.32L55.71,30.35c-1.3-1.3-1.3-3.4,0-4.69c1.3-1.3,3.4-1.3,4.7,0l11.97,11.97
		c1.4-9.92-1.68-20.35-9.32-27.98C54.42,1.01,42.19-1.81,31.18,1.12c-2.94,11.01-0.12,23.25,8.52,31.89
		C47.34,40.64,57.76,43.72,67.68,42.32"/>
	<path class="st1" d="M82.76,57.87c0.15,0.01,0.29,0.01,0.44,0.01c3.47,0,6.39-2.7,6.62-6.21c0.84-13.03,8.31-27.7,26.72-29.81
		c3.64-0.42,6.26-3.71,5.85-7.35c-0.42-3.65-3.75-6.28-7.35-5.85c-21.88,2.5-36.98,19.04-38.47,42.14
		C76.33,54.47,79.1,57.63,82.76,57.87"/>
</g>
</svg>
