<?xml version="1.0" encoding="utf-8"?>
<!-- Generator: Adobe Illustrator 26.0.2, SVG Export Plug-In . SVG Version: 6.00 Build 0)  -->
<svg version="1.1" id="Ebene_1" xmlns="http://www.w3.org/2000/svg" xmlns:xlink="http://www.w3.org/1999/xlink" x="0px" y="0px"
	 viewBox="0 0 69 69" style="enable-background:new 0 0 69 69;" xml:space="preserve">
<style type="text/css">
	.st0{clip-path:url(#SVGID_00000098206387575353388710000008891304833136386964_);fill:#FFBD00;}
	.st1{clip-path:url(#SVGID_00000098206387575353388710000008891304833136386964_);fill:none;stroke:#FFFFFF;}
	.st2{clip-path:url(#SVGID_00000098206387575353388710000008891304833136386964_);fill:#FFFFFF;}
</style>
<g>
	<defs>
		<rect id="SVGID_1_" width="69" height="69"/>
	</defs>
	<clipPath id="SVGID_00000011718092110864906800000003841506181831495845_">
		<use xlink:href="#SVGID_1_"  style="overflow:visible;"/>
	</clipPath>
	<path style="clip-path:url(#SVGID_00000011718092110864906800000003841506181831495845_);fill:#FFBD00;" d="M34.5,68.5
		c18.8,0,34-15.2,34-34s-15.2-34-34-34s-34,15.2-34,34S15.7,68.5,34.5,68.5"/>
	
		<circle style="clip-path:url(#SVGID_00000011718092110864906800000003841506181831495845_);fill:none;stroke:#FFFFFF;" cx="34.5" cy="34.5" r="34"/>
	<path style="clip-path:url(#SVGID_00000011718092110864906800000003841506181831495845_);fill:#FFFFFF;" d="M15.9,35.2l2.6-1.5
		c-0.9-0.6-1.3-1.1-1.3-1.7c0-1.2,1.9-2.3,4.9-3.3c2.1-0.6,4.6-1.1,7.5-1.4l3.8-2.2c-4.6,0.1-8.8,0.8-11.9,1.7
		c-3.9,1.2-6.3,3-6.3,5.1c0,0.4,0.1,0.7,0.2,1C15.5,33.7,15.7,34.4,15.9,35.2 M16,39.8l0.5,1.1l39-18.1c-0.1-1.1-0.8-1.9-2.2-2.2
		L16,39.8z M11.7,39.4l0.6,1l36.2-18.9c-0.1-1.1-0.8-1.8-2.1-2L11.7,39.4z M55.2,33c-0.7,5.6-4.2,10.5-9.3,13.4
		c-3.1,1.7-6.7,2.3-10.6,2.3c-3.6,0-7-0.4-9.9-1.9c-2.5-1.3-4.7-3.1-6.3-5.3l10.6-4.9c1.8,0.2,3.7,0.3,5.7,0.3
		c5.2,0,9.9-0.6,13.2-1.7c3-0.9,4.9-2.1,4.9-3.2c0-1.2-1.9-2.3-4.9-3.3c-0.4-0.1-0.8-0.2-1.2-0.3l2.6-1.2c3.4,1.2,5.4,2.9,5.4,4.8
		C55.4,32.3,55.4,32.6,55.2,33"/>
</g>
</svg>
