<?xml version="1.0" encoding="utf-8"?>
<!-- Generator: Adobe Illustrator 26.0.2, SVG Export Plug-In . SVG Version: 6.00 Build 0)  -->
<svg version="1.1" id="Ebene_1" xmlns="http://www.w3.org/2000/svg" xmlns:xlink="http://www.w3.org/1999/xlink" x="0px" y="0px"
	 viewBox="0 0 127.6 127.6" style="enable-background:new 0 0 127.6 127.6;" xml:space="preserve">
<style type="text/css">
	.st0{clip-path:url(#SVGID_00000171692002916982599820000005308854145528505009_);fill:#E4025D;}
	.st1{clip-path:url(#SVGID_00000171692002916982599820000005308854145528505009_);fill:#FFFFFF;}
</style>
<g>
	<defs>
		<rect id="SVGID_1_" width="127.6" height="127.6"/>
	</defs>
	<clipPath id="SVGID_00000108273517035077125590000008603612572253678220_">
		<use xlink:href="#SVGID_1_"  style="overflow:visible;"/>
	</clipPath>
	<path style="clip-path:url(#SVGID_00000108273517035077125590000008603612572253678220_);fill:#E4025D;" d="M19.7,0h88.2
		c10.8,0,19.7,8.9,19.7,19.7v88.2c0,10.8-8.9,19.7-19.7,19.7H19.7C8.9,127.6,0,118.7,0,107.9V19.7C0,8.9,8.9,0,19.7,0"/>
	<path style="clip-path:url(#SVGID_00000108273517035077125590000008603612572253678220_);fill:#FFFFFF;" d="M105.8,41.8l-14.6,3.7
		l5-8.7l12.4-3.2c-0.4,2.8-1.3,5.5-2.6,8.1C105.9,41.8,105.8,41.8,105.8,41.8 M85.8,69.2H84V58.9c0.6,0,1.2-0.1,1.8-0.2V69.2z
		 M90.3,23.1l3.5,12.3l-5,8.7l-4.1-14.5c0-0.1,0-0.1-0.1-0.2C86.2,27,88.1,24.9,90.3,23.1 M95.7,32.2l-2.9-10.3
		c0-0.2-0.1-0.3-0.2-0.4c3.4-2.2,7.4-3.7,11.7-4.2L95.7,32.2z M108.4,30.9L98,33.6l8.6-14.9c1.7,4,2.4,8.1,2.2,12.2
		C108.7,30.9,108.6,30.9,108.4,30.9 M82.2,34.3c0.2-0.5,0.4-1,0.6-1.4l3.6,12.8l0.4,1.4l0.1,0.5l-0.8,1.3l-0.3,0.5l-1.1,2L84,52.4
		l-1.1,1.8l0,0.1l-0.2,0.3c0-0.1,0-0.1-0.1-0.2c-0.1-0.2-0.2-0.4-0.3-0.7c-0.4-1.2-0.8-2.3-1.1-3.5c-1-4.1-1.1-8.3-0.2-12.3
		c0.1-0.7,0.3-1.4,0.5-2C81.8,35.4,82,34.9,82.2,34.3 M73.7,59.4c0.6,0,1.2,0.1,1.8,0.1v9.7h-1.8V59.4z M78.2,56.7
		c-0.5,0-0.9,0.1-1.4,0.1c-0.5,0-0.9,0-1.4,0c-0.6,0-1.2,0-1.8-0.1c-0.5,0-0.9-0.1-1.4-0.1c-0.5-0.1-0.9-0.1-1.4-0.2
		c-1.1-0.2-2.1-0.4-3.1-0.7c-0.9-0.3-1.8-0.6-2.7-1c-2.8-1.2-5.3-2.9-7.4-5c-6.2-6.2-8.5-15.4-6.3-24.9c9.4-2.2,18.7,0.1,24.9,6.3
		c1.1,1.1,2.1,2.3,2.9,3.6c-1.2,3.7-1.7,7.6-1.3,11.5c0.1,0.9,0.2,1.7,0.3,2.6c0.1,0.4,0.1,0.7,0.2,1.1l-0.2-0.2l-1.4-1.4L75.5,47
		l-1.4-1.4l-11-11c-0.5-0.5-1.4-0.5-1.9,0c-0.5,0.5-0.5,1.4,0,1.9l9.8,9.8l1.2,1.2l1.4,1.4l1.8,1.8l1.4,1.4l1.4,1.4l1.9,1.9
		c0.1,0.3,0.3,0.7,0.4,1C79.7,56.5,79,56.6,78.2,56.7 M94.3,53.2c-0.9,0.4-1.8,0.8-2.7,1.2c-1,0.4-2,0.7-3.1,1
		c-0.4,0.1-0.9,0.2-1.4,0.3c-0.4,0.1-0.9,0.2-1.4,0.2c-0.1,0-0.3,0-0.4,0.1c-0.1,0-0.2,0-0.3,0l0.5-0.8l0.3-0.5l1.4-2.4l1.4-2.4
		l0.7-1.2l2.4-0.6l2.7-0.7l9.6-2.4C101.4,48.5,98.1,51.3,94.3,53.2 M108,15.1c-0.2-0.5-0.7-0.8-1.3-0.7c-10.6,0.4-20,6-25.1,14.8
		c-0.5,0.8-0.9,1.6-1.3,2.5c-0.7-0.9-1.4-1.7-2.2-2.5c-7.1-7.1-17.6-9.6-28.3-6.8c-0.5,0.1-0.8,0.5-1,1c-2.8,10.7-0.2,21.2,6.8,28.3
		c2.7,2.7,5.9,4.7,9.4,6v13.3c0,6,2.2,10.5,6.4,12.8c1.7,1,2.8,2.8,2.8,4.7v22.9h2.7V88.4c0-3-1.6-5.7-4.2-7.1
		c-3.3-1.8-5-5.3-5-10.4V58.5c1,0.3,2,0.5,3.1,0.7v11.4c0,0.8,0.6,1.4,1.4,1.4h4.5c0.8,0,1.4-0.6,1.4-1.4V59.4
		c1-0.1,2.1-0.2,3.1-0.4v11.6c0,0.8,0.6,1.4,1.4,1.4h4.5c0.8,0,1.4-0.6,1.4-1.4V58.2c1.1-0.2,2.1-0.5,3.1-0.9v13.6
		c0,5.1-1.7,8.6-5,10.4c-2.6,1.4-4.2,4.2-4.2,7.1v22.9h2.7V88.4c0-2,1.1-3.8,2.8-4.7c4.2-2.3,6.4-6.7,6.4-12.8V56.2
		c5.6-2.5,10.3-6.7,13.4-12C112.8,35.4,112.9,24.5,108,15.1"/>
	<path style="clip-path:url(#SVGID_00000108273517035077125590000008603612572253678220_);fill:#FFFFFF;" d="M34.9,68.7
		c-11.3,0-20.6,9.2-20.6,20.6c0,11.3,9.2,20.6,20.6,20.6s20.6-9.2,20.6-20.6C55.5,78,46.3,68.7,34.9,68.7 M34.9,112.5
		c-12.8,0-23.2-10.4-23.2-23.2c0-12.8,10.4-23.2,23.2-23.2c12.8,0,23.2,10.4,23.2,23.2C58.2,102.1,47.7,112.5,34.9,112.5"/>
	<path style="clip-path:url(#SVGID_00000108273517035077125590000008603612572253678220_);fill:#FFFFFF;" d="M34.9,73.6
		c-8.7,0-15.7,7-15.7,15.7s7,15.7,15.7,15.7c8.7,0,15.7-7,15.7-15.7S43.6,73.6,34.9,73.6 M34.9,107.7c-10.1,0-18.4-8.2-18.4-18.4
		s8.2-18.4,18.4-18.4s18.4,8.2,18.4,18.4S45.1,107.7,34.9,107.7"/>
	<path style="clip-path:url(#SVGID_00000108273517035077125590000008603612572253678220_);fill:#FFFFFF;" d="M23.4,89.3
		c0,0.8-0.7,1.5-1.5,1.5c-0.8,0-1.5-0.7-1.5-1.5s0.7-1.5,1.5-1.5C22.7,87.8,23.4,88.5,23.4,89.3"/>
	<path style="clip-path:url(#SVGID_00000108273517035077125590000008603612572253678220_);fill:#FFFFFF;" d="M49.5,89.3
		c0,0.8-0.7,1.5-1.5,1.5c-0.8,0-1.5-0.7-1.5-1.5s0.7-1.5,1.5-1.5C48.8,87.8,49.5,88.5,49.5,89.3"/>
	<path style="clip-path:url(#SVGID_00000108273517035077125590000008603612572253678220_);fill:#FFFFFF;" d="M34.9,100.9
		c0.8,0,1.5,0.7,1.5,1.5s-0.7,1.5-1.5,1.5c-0.8,0-1.5-0.7-1.5-1.5S34.1,100.9,34.9,100.9"/>
	<path style="clip-path:url(#SVGID_00000108273517035077125590000008603612572253678220_);fill:#FFFFFF;" d="M34.9,74.7
		c0.8,0,1.5,0.7,1.5,1.5c0,0.8-0.7,1.5-1.5,1.5c-0.8,0-1.5-0.7-1.5-1.5C33.4,75.4,34.1,74.7,34.9,74.7"/>
	<path style="clip-path:url(#SVGID_00000108273517035077125590000008603612572253678220_);fill:#FFFFFF;" d="M43.3,90.6h-8.4
		c-0.7,0-1.3-0.6-1.3-1.3v-5.2c0-0.7,0.6-1.3,1.3-1.3c0.7,0,1.3,0.6,1.3,1.3V88h7.1c0.7,0,1.3,0.6,1.3,1.3
		C44.7,90,44.1,90.6,43.3,90.6"/>
</g>
</svg>
