<?xml version="1.0" encoding="utf-8"?>
<!-- Generator: Adobe Illustrator 25.2.0, SVG Export Plug-In . SVG Version: 6.00 Build 0)  -->
<svg version="1.1" id="Ebene_1" xmlns="http://www.w3.org/2000/svg" xmlns:xlink="http://www.w3.org/1999/xlink" x="0px" y="0px"
	 viewBox="0 0 425.03 425.03" style="enable-background:new 0 0 425.03 425.03;" xml:space="preserve">
<style type="text/css">
	.st0{clip-path:url(#SVGID_2_);fill:none;stroke:#FFFFFF;stroke-width:5;stroke-miterlimit:10;}
	.st1{clip-path:url(#SVGID_2_);fill:#FFFFFF;}
</style>
<g>
	<defs>
		<rect id="SVGID_1_" y="0" width="425.03" height="425.03"/>
	</defs>
	<clipPath id="SVGID_2_">
		<use xlink:href="#SVGID_1_"  style="overflow:visible;"/>
	</clipPath>
	<path class="st0" d="M67.35,2.5h290.33c35.67,0,64.85,29.18,64.85,64.85v290.33c0,35.67-29.18,64.85-64.85,64.85H67.35
		c-35.67,0-64.85-29.18-64.85-64.85V67.35C2.5,31.68,31.68,2.5,67.35,2.5z"/>
	<path class="st1" d="M104.51,177.28v57.83c0,41.4,33.68,75.08,75.08,75.08h68.32c41.4,0,75.08-33.68,75.08-75.08v-57.83H104.51z
		 M247.91,319.22h-68.32c-46.38,0-84.11-37.73-84.11-84.11v-62.34c0-2.5,2.02-4.51,4.51-4.51h227.5c2.49,0,4.51,2.02,4.51,4.51
		v62.34C332.01,281.49,294.28,319.22,247.91,319.22"/>
	<path class="st1" d="M155.83,331.75h115.83v-16.01c-7.77,2.32-15.74,3.48-23.76,3.48h-68.32c-8.02,0-15.99-1.17-23.76-3.48V331.75z
		 M272.2,340.78h-116.9c-4.68,0-8.49-3.81-8.49-8.5v-22.84c0-1.49,0.73-2.87,1.95-3.72c1.22-0.85,2.78-1.03,4.17-0.5
		c8.66,3.3,17.63,4.97,26.66,4.97h68.32c9.04,0,18.01-1.67,26.66-4.97c1.38-0.53,2.95-0.34,4.17,0.5c1.22,0.84,1.95,2.23,1.95,3.72
		v22.84C280.69,336.97,276.88,340.78,272.2,340.78"/>
	<path class="st1" d="M171.42,152.56c-0.74,0-1.49-0.18-2.19-0.57c-2.18-1.21-2.97-3.96-1.75-6.14l7.36-13.25
		c2.26-4.06,2-9.15-0.65-12.96c-4.99-7.19-5.11-16.55-0.3-23.86l6.2-9.42c1.38-2.08,4.17-2.66,6.25-1.29
		c2.08,1.37,2.66,4.17,1.29,6.25l-6.2,9.42c-2.77,4.21-2.71,9.61,0.17,13.75c4.6,6.62,5.04,15.45,1.12,22.49l-7.36,13.25
		C174.54,151.72,173,152.56,171.42,152.56"/>
	<path class="st1" d="M207.52,152.56c-0.74,0-1.49-0.18-2.19-0.57c-2.18-1.21-2.96-3.96-1.75-6.14l7.36-13.25
		c2.26-4.06,2-9.15-0.65-12.96c-4.99-7.19-5.11-16.55-0.3-23.86l6.2-9.42c1.37-2.08,4.17-2.66,6.25-1.29
		c2.08,1.37,2.66,4.17,1.29,6.25l-6.2,9.42c-2.77,4.21-2.71,9.61,0.17,13.75c4.6,6.62,5.04,15.45,1.12,22.49l-7.36,13.25
		C210.65,151.72,209.11,152.56,207.52,152.56"/>
	<path class="st1" d="M243.63,152.56c-0.74,0-1.5-0.18-2.19-0.57c-2.18-1.21-2.96-3.96-1.75-6.14l7.36-13.25
		c2.25-4.06,2-9.15-0.65-12.96c-4.99-7.19-5.11-16.55-0.3-23.86l6.2-9.42c1.37-2.08,4.17-2.66,6.25-1.29
		c2.08,1.37,2.66,4.17,1.29,6.25l-6.2,9.42c-2.77,4.21-2.7,9.61,0.17,13.75c4.6,6.62,5.04,15.45,1.12,22.49l-7.36,13.25
		C246.76,151.72,245.22,152.56,243.63,152.56"/>
</g>
</svg>
