<?xml version="1.0" encoding="utf-8"?>
<!-- Generator: Adobe Illustrator 26.0.2, SVG Export Plug-In . SVG Version: 6.00 Build 0)  -->
<svg version="1.1" id="Ebene_1" xmlns="http://www.w3.org/2000/svg" xmlns:xlink="http://www.w3.org/1999/xlink" x="0px" y="0px"
	 viewBox="0 0 127.6 127.6" style="enable-background:new 0 0 127.6 127.6;" xml:space="preserve">
<style type="text/css">
	.st0{clip-path:url(#SVGID_00000141424715513658769300000011589380770446868400_);fill:#FF9D00;}
	.st1{clip-path:url(#SVGID_00000141424715513658769300000011589380770446868400_);fill:#FFFFFF;}
</style>
<g>
	<defs>
		<rect id="SVGID_1_" width="127.6" height="127.6"/>
	</defs>
	<clipPath id="SVGID_00000078749802975120232260000011377599543659300538_">
		<use xlink:href="#SVGID_1_"  style="overflow:visible;"/>
	</clipPath>
	<path style="clip-path:url(#SVGID_00000078749802975120232260000011377599543659300538_);fill:#FF9D00;" d="M19.7,0h88.2
		c10.8,0,19.7,8.9,19.7,19.7v88.2c0,10.8-8.9,19.7-19.7,19.7H19.7C8.9,127.6,0,118.7,0,107.9V19.7C0,8.9,8.9,0,19.7,0"/>
	<path style="clip-path:url(#SVGID_00000078749802975120232260000011377599543659300538_);fill:#FFFFFF;" d="M107.5,80.9l-2.9,2
		c-1.6,1.1-2.6,2.9-2.8,4.8l-0.3,3.5c-0.1,1.5-1.2,2.8-2.7,3.2l-3.4,0.9c-1.9,0.5-3.4,1.8-4.3,3.6l-1.5,3.2
		c-0.6,1.4-2.1,2.2-3.6,2.1l-3.5-0.3c-1.9-0.2-3.8,0.5-5.2,1.9l-2.5,2.5c-1.1,1.1-2.7,1.4-4.1,0.7l-3.1-1.5
		c-0.9-0.4-1.8-0.6-2.8-0.6c-1,0-1.9,0.2-2.8,0.6l-3.1,1.5c-1.4,0.7-3,0.4-4.1-0.7l-2.5-2.5c-1.4-1.4-3.3-2.1-5.2-1.9l-3.5,0.3
		c-1.5,0.1-3-0.7-3.6-2.1l-1.5-3.2c-0.8-1.8-2.4-3.1-4.3-3.6L31,94.4c-1.5-0.4-2.6-1.7-2.7-3.2l-0.3-3.5c-0.2-1.9-1.2-3.7-2.8-4.8
		l-2.9-2C21.2,80,20.6,78.5,21,77l0.9-3.4c0.5-1.9,0.2-3.9-1-5.5l-2-2.9c-0.9-1.2-0.9-2.9,0-4.2l2-2.9c1.1-1.6,1.5-3.6,1-5.5
		L21,49.4c-0.4-1.5,0.2-3.1,1.4-3.9l2.9-2c1.6-1.1,2.6-2.9,2.8-4.8l0.3-3.5c0.1-1.5,1.2-2.8,2.7-3.2l3.4-0.9
		c1.9-0.5,3.4-1.8,4.3-3.6l1.5-3.2c0.6-1.4,2.1-2.2,3.6-2.1l3.5,0.3c1.9,0.2,3.8-0.5,5.2-1.9l2.5-2.5c1.1-1.1,2.7-1.4,4.1-0.7
		l3.1,1.5c1.8,0.8,3.8,0.8,5.6,0l3.1-1.5c1.4-0.7,3-0.4,4.1,0.7l2.5,2.5c1.4,1.4,3.3,2.1,5.2,1.9l3.5-0.3c1.5-0.1,3,0.7,3.6,2.1
		l1.5,3.2c0.8,1.8,2.4,3.1,4.3,3.6l3.4,0.9c1.5,0.4,2.6,1.7,2.7,3.2l0.3,3.5c0.2,1.9,1.2,3.7,2.8,4.8l2.9,2c1.3,0.9,1.8,2.5,1.4,3.9
		l-0.9,3.4c-0.5,1.9-0.2,3.9,1,5.5l2,2.9c0.9,1.2,0.9,2.9,0,4.2l-2,2.9c-1.1,1.6-1.5,3.6-1,5.5L109,77
		C109.4,78.5,108.8,80,107.5,80.9 M113.4,67c1.6-2.3,1.6-5.3,0-7.5l-2-2.9c-0.6-0.9-0.8-2-0.5-3l0.9-3.4c0.7-2.7-0.3-5.5-2.6-7.1
		l-2.9-2c-0.9-0.6-1.5-1.6-1.5-2.7l-0.3-3.5c-0.2-2.7-2.2-5.1-4.9-5.8l-3.4-0.9c-1-0.3-1.9-1-2.4-2l-1.5-3.2c-1.2-2.5-3.8-4-6.5-3.8
		l-3.5,0.3c-1.1,0.1-2.1-0.3-2.9-1.1l-2.5-2.5c-2-2-4.9-2.5-7.4-1.3l-3.1,1.5c-1,0.5-2.1,0.5-3.1,0l-3.1-1.5
		c-2.5-1.2-5.5-0.6-7.4,1.3l-2.5,2.5c-0.8,0.8-1.8,1.2-2.9,1.1L44,19.4c-2.8-0.2-5.4,1.3-6.5,3.8L36,26.3c-0.5,1-1.3,1.7-2.4,2
		l-3.4,0.9c-2.7,0.7-4.6,3-4.9,5.8l-0.3,3.5c-0.1,1.1-0.7,2.1-1.5,2.7l-2.9,2c-2.3,1.6-3.3,4.4-2.6,7.1l0.9,3.4c0.3,1,0.1,2.2-0.5,3
		l-2,2.9c-1.6,2.3-1.6,5.3,0,7.5l2,2.9c0.6,0.9,0.8,2,0.5,3l-0.9,3.4c-0.7,2.7,0.3,5.5,2.6,7.1l2.9,2c0.9,0.6,1.5,1.6,1.5,2.7
		l0.3,3.5c0.2,2.7,2.2,5.1,4.9,5.8l3.4,0.9c1,0.3,1.9,1,2.4,2l1.5,3.2c1.2,2.5,3.8,4,6.5,3.8l3.5-0.3c1.1-0.1,2.1,0.3,2.9,1.1
		l2.5,2.5c2,2,4.9,2.5,7.4,1.3l3.1-1.5c1-0.5,2.1-0.5,3.1,0l3.1,1.5c0.9,0.4,1.8,0.6,2.8,0.6c1.7,0,3.4-0.7,4.7-1.9l2.5-2.5
		c0.8-0.8,1.8-1.2,2.9-1.1l3.5,0.3c2.7,0.2,5.4-1.3,6.5-3.8l1.5-3.2c0.5-1,1.3-1.7,2.4-2l3.4-0.9c2.7-0.7,4.6-3,4.9-5.8l0.3-3.5
		c0.1-1.1,0.7-2.1,1.5-2.7l2.9-2c2.3-1.6,3.3-4.4,2.6-7.1l-0.9-3.4c-0.3-1-0.1-2.2,0.5-3L113.4,67z"/>
	<path style="clip-path:url(#SVGID_00000078749802975120232260000011377599543659300538_);fill:#FFFFFF;" d="M28.2,63.2
		c0-20.3,16.5-36.8,36.8-36.8s36.8,16.5,36.8,36.8S85.3,100,65,100S28.2,83.5,28.2,63.2 M65,23.5c-21.9,0-39.7,17.8-39.7,39.7
		s17.8,39.7,39.7,39.7s39.7-17.8,39.7-39.7S86.9,23.5,65,23.5"/>
	<path style="clip-path:url(#SVGID_00000078749802975120232260000011377599543659300538_);fill:#FFFFFF;" d="M33,63.2
		C33,45.6,47.4,31.3,65,31.3s31.9,14.3,31.9,31.9S82.6,95.1,65,95.1S33,80.8,33,63.2 M65,28.3c-19.2,0-34.9,15.6-34.9,34.9
		S45.8,98.1,65,98.1s34.9-15.6,34.9-34.9S84.2,28.3,65,28.3"/>
	<path style="clip-path:url(#SVGID_00000078749802975120232260000011377599543659300538_);fill:#FFFFFF;" d="M85.8,77.5l-11.5,2.2
		l4-6.1l9.8-1.9C87.7,73.7,86.9,75.6,85.8,77.5C85.8,77.5,85.8,77.5,85.8,77.5 M67.2,70.4c0,0,0-0.1,0.1-0.1l0.1,0.4l2.3,10.7
		l-1.6,2.3l-1.8,2.7l0,0c0,0,0-0.1,0-0.1c0-0.1,0-0.1-0.1-0.2c-1.2-3.8-1.3-7.8-0.5-11.6c0.2-0.8,0.4-1.6,0.7-2.4
		C66.7,71.7,66.9,71,67.2,70.4 M85.2,57.9l-7,10.6l-1.7-7.8c0,0,0-0.1,0-0.1C79.1,59.1,82.1,58.2,85.2,57.9 M88.7,68.6
		c0,0-0.1,0-0.1,0l-7.9,1.5l7-10.6C88.6,62.5,88.9,65.6,88.7,68.6 M73.9,62.2l2.1,9.7l-4,6.1l-2.5-11.4c0,0,0,0,0,0
		C70.7,65,72.2,63.5,73.9,62.2 M61.8,88.3c-6.2,0-11.8-2.4-15.6-6.7c-4.7-5.3-6.1-12.8-3.9-20.3c7.7-1.3,15,1.1,19.7,6.4
		c0.8,0.9,1.5,1.9,2.1,2.9c-1.4,3.6-1.9,7.5-1.5,11.4L51.4,69.5c-0.5-0.6-1.5-0.7-2.1-0.1c-0.6,0.5-0.7,1.5-0.1,2.1l14.5,16.4
		c0,0.1,0.1,0.3,0.1,0.4C63.1,88.3,62.4,88.3,61.8,88.3 M68.8,88.1C68.8,88.1,68.8,88.1,68.8,88.1L68.8,88.1l3.3-5l11.2-2.1
		C79.6,85,74.5,87.5,68.8,88.1 M89.4,55.8c-0.2-0.5-0.7-0.9-1.3-0.9c-8.9-0.2-17,4-21.7,11.1c-0.3,0.5-0.6,1-0.9,1.5
		c-0.4-0.6-0.9-1.2-1.4-1.7c-5.5-6.3-14.2-8.9-23.3-7.1c-0.5,0.1-0.9,0.5-1.1,1c-2.9,8.8-1.3,17.7,4.3,24c4.4,5,10.8,7.7,17.8,7.7
		c1.2,0,2.5-0.1,3.7-0.3c0.2,0.1,0.3,0.1,0.5,0.1c0.2,0,0.4,0,0.5,0c8.7,0,16.6-4.1,21.2-11.1C92.4,73,93,63.9,89.4,55.8"/>
	<path style="clip-path:url(#SVGID_00000078749802975120232260000011377599543659300538_);fill:#FFFFFF;" d="M64.4,39.8l0.6-1.1
		l0.6,1.1c0.2,0.4,0.6,0.7,1.1,0.8l1.2,0.2L67,41.7c-0.3,0.3-0.5,0.8-0.4,1.3l0.2,1.2l-1.1-0.6c-0.2-0.1-0.4-0.2-0.7-0.2
		s-0.5,0.1-0.7,0.2l-1.1,0.6l0.2-1.2c0.1-0.5-0.1-1-0.4-1.3l-0.9-0.9l1.2-0.2C63.8,40.5,64.2,40.2,64.4,39.8 M60.4,43.2l-0.6,3.4
		c-0.1,0.5,0.1,1.1,0.6,1.4c0.5,0.3,1,0.4,1.5,0.1l3-1.6l3,1.6c0.2,0.1,0.4,0.2,0.7,0.2c0.3,0,0.6-0.1,0.9-0.3
		c0.5-0.3,0.7-0.9,0.6-1.4l-0.6-3.4l2.5-2.4c0.4-0.4,0.5-1,0.4-1.5c-0.2-0.5-0.6-0.9-1.2-1l-3.4-0.5l-1.5-3.1
		c-0.2-0.5-0.8-0.8-1.3-0.8s-1.1,0.3-1.3,0.8l-1.5,3.1l-3.4,0.5c-0.6,0.1-1,0.5-1.2,1c-0.2,0.5,0,1.1,0.4,1.5L60.4,43.2z"/>
	<path style="clip-path:url(#SVGID_00000078749802975120232260000011377599543659300538_);fill:#FFFFFF;" d="M49.2,45.9l0.6-1.1
		l0.6,1.1c0.2,0.4,0.6,0.7,1.1,0.8l1.2,0.2l-0.9,0.9c-0.3,0.3-0.5,0.8-0.4,1.3l0.2,1.2l-1.1-0.6c-0.2-0.1-0.4-0.2-0.7-0.2
		c-0.2,0-0.5,0.1-0.7,0.2L48,50.2l0.2-1.2c0.1-0.5-0.1-1-0.4-1.3l-0.9-0.9l1.2-0.2C48.6,46.6,49,46.3,49.2,45.9 M45.2,49.3l-0.6,3.4
		c-0.1,0.5,0.1,1.1,0.6,1.4c0.5,0.3,1,0.4,1.5,0.1l3-1.6l3,1.6c0.2,0.1,0.4,0.2,0.7,0.2c0.3,0,0.6-0.1,0.9-0.3
		c0.5-0.3,0.7-0.9,0.6-1.4l-0.6-3.4l2.5-2.4c0.4-0.4,0.5-1,0.4-1.5c-0.2-0.5-0.6-0.9-1.2-1l-3.4-0.5l-1.5-3.1
		c-0.2-0.5-0.8-0.8-1.3-0.8c-0.6,0-1.1,0.3-1.3,0.8l-1.5,3.1l-3.4,0.5c-0.6,0.1-1,0.5-1.2,1c-0.2,0.5,0,1.1,0.4,1.5L45.2,49.3z"/>
	<path style="clip-path:url(#SVGID_00000078749802975120232260000011377599543659300538_);fill:#FFFFFF;" d="M79.7,45.9l0.6-1.1
		l0.6,1.1c0.2,0.4,0.6,0.7,1.1,0.8l1.2,0.2l-0.9,0.9c-0.3,0.3-0.5,0.8-0.4,1.3l0.2,1.2l-1.1-0.6c-0.2-0.1-0.4-0.2-0.7-0.2
		c-0.2,0-0.5,0.1-0.7,0.2l-1.1,0.6l0.2-1.2c0.1-0.5-0.1-1-0.4-1.3l-0.9-0.9l1.2-0.2C79,46.6,79.4,46.3,79.7,45.9 M75.6,49.3L75,52.7
		c-0.1,0.5,0.1,1.1,0.6,1.4c0.5,0.3,1,0.4,1.5,0.1l3-1.6l3,1.6c0.2,0.1,0.4,0.2,0.7,0.2c0.3,0,0.6-0.1,0.9-0.3
		c0.4-0.3,0.7-0.9,0.6-1.4l-0.6-3.4l2.5-2.4c0.4-0.4,0.5-1,0.4-1.5c-0.2-0.5-0.6-0.9-1.2-1L83,43.9l-1.5-3.1
		c-0.2-0.5-0.8-0.8-1.3-0.8c-0.6,0-1.1,0.3-1.3,0.8l-1.5,3.1L74,44.4c-0.6,0.1-1,0.5-1.2,1c-0.2,0.5,0,1.1,0.4,1.5L75.6,49.3z"/>
</g>
</svg>
