<?xml version="1.0" encoding="utf-8"?>
<!-- Generator: Adobe Illustrator 26.0.2, SVG Export Plug-In . SVG Version: 6.00 Build 0)  -->
<svg version="1.1" id="Ebene_1" xmlns="http://www.w3.org/2000/svg" xmlns:xlink="http://www.w3.org/1999/xlink" x="0px" y="0px"
	 viewBox="0 0 116.5 116.5" style="enable-background:new 0 0 116.5 116.5;" xml:space="preserve">
<style type="text/css">
	
		.st0{clip-path:url(#SVGID_00000146464044273374649630000002550479363511536016_);fill:none;stroke:#FFFFFF;stroke-width:2;stroke-miterlimit:10;}
	.st1{clip-path:url(#SVGID_00000146464044273374649630000002550479363511536016_);fill:#FFFFFF;}
	
		.st2{clip-path:url(#SVGID_00000146464044273374649630000002550479363511536016_);fill:none;stroke:#FFFFFF;stroke-width:0.25;stroke-miterlimit:10;}
</style>
<g>
	<defs>
		<rect id="SVGID_1_" width="116.5" height="116.5"/>
	</defs>
	<clipPath id="SVGID_00000078733655158504031500000016012050263425043387_">
		<use xlink:href="#SVGID_1_"  style="overflow:visible;"/>
	</clipPath>
	
		<path style="clip-path:url(#SVGID_00000078733655158504031500000016012050263425043387_);fill:none;stroke:#FFFFFF;stroke-width:2;stroke-miterlimit:10;" d="
		M18.7,1h79.2c9.7,0,17.7,8,17.7,17.7v79.2c0,9.7-8,17.7-17.7,17.7H18.7C9,115.5,1,107.6,1,97.8V18.7C1,9,9,1,18.7,1z"/>
	<path style="clip-path:url(#SVGID_00000078733655158504031500000016012050263425043387_);fill:#FFFFFF;" d="M68.7,91.7
		c-0.2,0-0.5-0.1-0.7-0.2c-0.5-0.4-0.5-1-0.1-1.5l1.3-1.6c0.9-1.1,1.4-2.6,1.4-4V67.8c0-0.7-0.6-1.3-1.3-1.3c-0.7,0-1.3,0.6-1.3,1.3
		c0,0.6-0.5,1.1-1.1,1.1c-0.6,0-1.1-0.5-1.1-1.1v-1c0-0.4,0.3-0.8,0.6-1c0.6-0.9,1.7-1.5,2.8-1.5c1.9,0,3.5,1.5,3.5,3.5v16.5
		c0,2-0.7,3.9-1.9,5.4l-1.3,1.6C69.4,91.5,69,91.7,68.7,91.7"/>
	
		<path style="clip-path:url(#SVGID_00000078733655158504031500000016012050263425043387_);fill:none;stroke:#FFFFFF;stroke-width:0.25;stroke-miterlimit:10;" d="
		M68.7,91.7c-0.2,0-0.5-0.1-0.7-0.2c-0.5-0.4-0.5-1-0.1-1.5l1.3-1.6c0.9-1.1,1.4-2.6,1.4-4V67.8c0-0.7-0.6-1.3-1.3-1.3
		c-0.7,0-1.3,0.6-1.3,1.3c0,0.6-0.5,1.1-1.1,1.1c-0.6,0-1.1-0.5-1.1-1.1v-1c0-0.4,0.3-0.8,0.6-1c0.6-0.9,1.7-1.5,2.8-1.5
		c1.9,0,3.5,1.5,3.5,3.5v16.5c0,2-0.7,3.9-1.9,5.4l-1.3,1.6C69.4,91.5,69,91.7,68.7,91.7z"/>
	<path style="clip-path:url(#SVGID_00000078733655158504031500000016012050263425043387_);fill:#FFFFFF;" d="M67,73.6
		c-0.6,0-1.1-0.5-1.1-1.1v-6.9c0-0.7-0.6-1.3-1.3-1.3c-0.7,0-1.3,0.6-1.3,1.3v1.2c0,0.6-0.5,1.1-1.1,1.1c-0.6,0-1.1-0.5-1.1-1.1
		v-1.2c0-1.9,1.5-3.5,3.5-3.5s3.4,1.5,3.4,3.5v6.9C68.1,73.1,67.6,73.6,67,73.6"/>
	
		<path style="clip-path:url(#SVGID_00000078733655158504031500000016012050263425043387_);fill:none;stroke:#FFFFFF;stroke-width:0.25;stroke-miterlimit:10;" d="
		M67,73.6c-0.6,0-1.1-0.5-1.1-1.1v-6.9c0-0.7-0.6-1.3-1.3-1.3c-0.7,0-1.3,0.6-1.3,1.3v1.2c0,0.6-0.5,1.1-1.1,1.1
		c-0.6,0-1.1-0.5-1.1-1.1v-1.2c0-1.9,1.5-3.5,3.5-3.5s3.4,1.5,3.4,3.5v6.9C68.1,73.1,67.6,73.6,67,73.6z"/>
	<path style="clip-path:url(#SVGID_00000078733655158504031500000016012050263425043387_);fill:#FFFFFF;" d="M62.2,72.4
		c-0.6,0-1.1-0.5-1.1-1.1v-7.1c0-0.7-0.6-1.3-1.3-1.3c-0.7,0-1.3,0.6-1.3,1.3l0,6.4c0,0.6-0.5,1.1-1.1,1.1c-0.6,0-1.1-0.5-1.1-1.1
		v-6.4c0-1.9,1.5-3.5,3.5-3.5c1.9,0,3.5,1.5,3.5,3.5v7.1C63.3,71.9,62.8,72.4,62.2,72.4"/>
	
		<path style="clip-path:url(#SVGID_00000078733655158504031500000016012050263425043387_);fill:none;stroke:#FFFFFF;stroke-width:0.25;stroke-miterlimit:10;" d="
		M62.2,72.4c-0.6,0-1.1-0.5-1.1-1.1v-7.1c0-0.7-0.6-1.3-1.3-1.3c-0.7,0-1.3,0.6-1.3,1.3l0,6.4c0,0.6-0.5,1.1-1.1,1.1
		c-0.6,0-1.1-0.5-1.1-1.1v-6.4c0-1.9,1.5-3.5,3.5-3.5c1.9,0,3.5,1.5,3.5,3.5v7.1C63.3,71.9,62.8,72.4,62.2,72.4z"/>
	<path style="clip-path:url(#SVGID_00000078733655158504031500000016012050263425043387_);fill:#FFFFFF;" d="M68.7,101
		c-0.6,0-1.1-0.5-1.1-1.1v-9.3c0-0.2,0.1-0.5,0.2-0.7l1.3-1.6c0.9-1.1,1.4-2.6,1.4-4V70.1c0-0.6,0.5-1.1,1.1-1.1s1.1,0.5,1.1,1.1
		v14.2c0,2-0.7,3.9-1.9,5.4L69.8,91v8.9C69.8,100.5,69.3,101,68.7,101"/>
	
		<path style="clip-path:url(#SVGID_00000078733655158504031500000016012050263425043387_);fill:none;stroke:#FFFFFF;stroke-width:0.25;stroke-miterlimit:10;" d="
		M68.7,101c-0.6,0-1.1-0.5-1.1-1.1v-9.3c0-0.2,0.1-0.5,0.2-0.7l1.3-1.6c0.9-1.1,1.4-2.6,1.4-4V70.1c0-0.6,0.5-1.1,1.1-1.1
		s1.1,0.5,1.1,1.1v14.2c0,2-0.7,3.9-1.9,5.4L69.8,91v8.9C69.8,100.5,69.3,101,68.7,101z"/>
	<path style="clip-path:url(#SVGID_00000078733655158504031500000016012050263425043387_);fill:#FFFFFF;" d="M49,101
		c-0.6,0-1.1-0.5-1.1-1.1v-8.8l-3.4-2.9c-1.3-1.1-2-2.6-2-4.3V69.4c0-1.1,0.5-2.1,1.2-2.9c0.8-0.8,1.8-1.1,2.9-1.1
		c2.1,0.1,3.7,1.9,3.7,4.1v8.3c0,0.3,0.3,0.6,0.6,0.6c0.3,0,0.6-0.2,0.6-0.6V55.3c0-1,0.4-1.9,1.1-2.6s1.7-1,2.7-0.9
		c1.7,0.2,3.1,1.7,3.1,3.6V66c0,0.6-0.5,1.1-1.1,1.1c-0.6,0-1.1-0.5-1.1-1.1V55.5c0-0.7-0.5-1.4-1.2-1.5c-0.4,0-0.7,0.1-1,0.3
		c-0.3,0.3-0.4,0.6-0.4,1v22.5c0,1.5-1.2,2.7-2.7,2.7c-1.5,0-2.7-1.2-2.7-2.7v-8.3c0-1-0.8-1.9-1.7-2c-0.5,0-1,0.2-1.4,0.5
		c-0.4,0.3-0.6,0.8-0.6,1.3v14.5c0,1,0.5,2,1.2,2.7l3.8,3.2c0.2,0.2,0.4,0.5,0.4,0.8v9.3C50.1,100.5,49.6,101,49,101"/>
	
		<path style="clip-path:url(#SVGID_00000078733655158504031500000016012050263425043387_);fill:none;stroke:#FFFFFF;stroke-width:0.25;stroke-miterlimit:10;" d="
		M49,101c-0.6,0-1.1-0.5-1.1-1.1v-8.8l-3.4-2.9c-1.3-1.1-2-2.6-2-4.3V69.4c0-1.1,0.5-2.1,1.2-2.9c0.8-0.8,1.8-1.1,2.9-1.1
		c2.1,0.1,3.7,1.9,3.7,4.1v8.3c0,0.3,0.3,0.6,0.6,0.6c0.3,0,0.6-0.2,0.6-0.6V55.3c0-1,0.4-1.9,1.1-2.6s1.7-1,2.7-0.9
		c1.7,0.2,3.1,1.7,3.1,3.6V66c0,0.6-0.5,1.1-1.1,1.1c-0.6,0-1.1-0.5-1.1-1.1V55.5c0-0.7-0.5-1.4-1.2-1.5c-0.4,0-0.7,0.1-1,0.3
		c-0.3,0.3-0.4,0.6-0.4,1v22.5c0,1.5-1.2,2.7-2.7,2.7c-1.5,0-2.7-1.2-2.7-2.7v-8.3c0-1-0.8-1.9-1.7-2c-0.5,0-1,0.2-1.4,0.5
		c-0.4,0.3-0.6,0.8-0.6,1.3v14.5c0,1,0.5,2,1.2,2.7l3.8,3.2c0.2,0.2,0.4,0.5,0.4,0.8v9.3C50.1,100.5,49.6,101,49,101z"/>
	<path style="clip-path:url(#SVGID_00000078733655158504031500000016012050263425043387_);fill:#FFFFFF;" d="M68.7,91.7H49
		c-0.6,0-1.1-0.5-1.1-1.1s0.5-1.1,1.1-1.1h19.7c0.6,0,1.1,0.5,1.1,1.1S69.3,91.7,68.7,91.7"/>
	
		<path style="clip-path:url(#SVGID_00000078733655158504031500000016012050263425043387_);fill:none;stroke:#FFFFFF;stroke-width:0.25;stroke-miterlimit:10;" d="
		M68.7,91.7H49c-0.6,0-1.1-0.5-1.1-1.1s0.5-1.1,1.1-1.1h19.7c0.6,0,1.1,0.5,1.1,1.1S69.3,91.7,68.7,91.7z"/>
	<path style="clip-path:url(#SVGID_00000078733655158504031500000016012050263425043387_);fill:#FFFFFF;" d="M68.7,97.1H52.9
		c-0.6,0-1.1-0.5-1.1-1.1c0-0.6,0.5-1.1,1.1-1.1h15.8c0.6,0,1.1,0.5,1.1,1.1C69.8,96.7,69.3,97.1,68.7,97.1"/>
	
		<path style="clip-path:url(#SVGID_00000078733655158504031500000016012050263425043387_);fill:none;stroke:#FFFFFF;stroke-width:0.25;stroke-miterlimit:10;" d="
		M68.7,97.1H52.9c-0.6,0-1.1-0.5-1.1-1.1c0-0.6,0.5-1.1,1.1-1.1h15.8c0.6,0,1.1,0.5,1.1,1.1C69.8,96.7,69.3,97.1,68.7,97.1z"/>
	<path style="clip-path:url(#SVGID_00000078733655158504031500000016012050263425043387_);fill:#FFFFFF;" d="M54.3,42.6
		c1.7,0,3.4,0.7,4.7,2l0.1,0.1c0.8,0.8,1,1.9,0.6,3c-0.2,0.7-0.1,1.7,0.8,2.3c0.6,0.4,1.5,0.4,2.1,0c0.9-0.6,1.1-1.6,0.8-2.4
		c-0.1-0.4,0-0.8,0.3-1.1c0.3-0.3,0.7-0.4,1.1-0.3c0.8,0.3,1.8,0.1,2.4-0.8c0.4-0.6,0.4-1.5,0-2.1c-0.6-0.9-1.6-1-2.3-0.8
		c-1.1,0.4-2.2,0.1-3-0.6l-0.1-0.1c-1.5-1.5-2.2-3.5-1.9-5.5c0.2-1.7,0.2-5.1-2.4-8C56,26.7,54.1,25.9,52,26
		c-4.7,0.1-8.8,4.1-8.9,8.9c0,2.2,0.8,4,2.3,5.5c2.9,2.6,6.2,2.6,8,2.4C53.7,42.6,54,42.6,54.3,42.6 M61.6,52.4
		c-0.8,0-1.6-0.2-2.3-0.7c-1.6-1.1-2.2-3-1.6-4.8c0-0.1,0.1-0.5-0.1-0.8l-0.1-0.1c-1-1-2.4-1.5-3.8-1.3C52,45,47.7,45.2,44,41.9
		c-2.1-1.9-3.1-4.3-3-7.1c0.1-6,5-10.9,11-11c2.8,0,5.2,1,7.1,3c3.3,3.6,3.1,8,2.9,9.7c-0.2,1.3,0.3,2.7,1.3,3.8l0.1,0.1
		c0.3,0.3,0.6,0.2,0.8,0.1c1.8-0.6,3.7,0,4.8,1.6c0.9,1.3,0.9,3.1,0.1,4.4c-0.7,1.2-2,1.9-3.3,1.9c-0.1,1.3-0.8,2.5-1.9,3.3
		C63.1,52.2,62.3,52.4,61.6,52.4"/>
	
		<path style="clip-path:url(#SVGID_00000078733655158504031500000016012050263425043387_);fill:none;stroke:#FFFFFF;stroke-width:0.25;stroke-miterlimit:10;" d="
		M54.3,42.6c1.7,0,3.4,0.7,4.7,2l0.1,0.1c0.8,0.8,1,1.9,0.6,3c-0.2,0.7-0.1,1.7,0.8,2.3c0.6,0.4,1.5,0.4,2.1,0
		c0.9-0.6,1.1-1.6,0.8-2.4c-0.1-0.4,0-0.8,0.3-1.1c0.3-0.3,0.7-0.4,1.1-0.3c0.8,0.3,1.8,0.1,2.4-0.8c0.4-0.6,0.4-1.5,0-2.1
		c-0.6-0.9-1.6-1-2.3-0.8c-1.1,0.4-2.2,0.1-3-0.6l-0.1-0.1c-1.5-1.5-2.2-3.5-1.9-5.5c0.2-1.7,0.2-5.1-2.4-8C56,26.7,54.1,25.9,52,26
		c-4.7,0.1-8.8,4.1-8.9,8.9c0,2.2,0.8,4,2.3,5.5c2.9,2.6,6.2,2.6,8,2.4C53.7,42.6,54,42.6,54.3,42.6z M61.6,52.4
		c-0.8,0-1.6-0.2-2.3-0.7c-1.6-1.1-2.2-3-1.6-4.8c0-0.1,0.1-0.5-0.1-0.8l-0.1-0.1c-1-1-2.4-1.5-3.8-1.3C52,45,47.7,45.2,44,41.9
		c-2.1-1.9-3.1-4.3-3-7.1c0.1-6,5-10.9,11-11c2.8,0,5.2,1,7.1,3c3.3,3.6,3.1,8,2.9,9.7c-0.2,1.3,0.3,2.7,1.3,3.8l0.1,0.1
		c0.3,0.3,0.6,0.2,0.8,0.1c1.8-0.6,3.7,0,4.8,1.6c0.9,1.3,0.9,3.1,0.1,4.4c-0.7,1.2-2,1.9-3.3,1.9c-0.1,1.3-0.8,2.5-1.9,3.3
		C63.1,52.2,62.3,52.4,61.6,52.4z"/>
	<path style="clip-path:url(#SVGID_00000078733655158504031500000016012050263425043387_);fill:#FFFFFF;" d="M46.7,31.8
		c-0.3,0-0.5-0.1-0.8-0.3c-0.4-0.4-0.4-1.1,0-1.5c1.8-1.8,3.7-2.7,5.7-2.7c2.2,0,4,0.8,5.5,2.3c0.4,0.4,0.4,1.1-0.1,1.5
		c-0.4,0.4-1.1,0.4-1.5-0.1c-1-1.1-2.3-1.7-3.9-1.7c-1.4,0-2.8,0.7-4.2,2.1C47.2,31.7,46.9,31.8,46.7,31.8"/>
	
		<path style="clip-path:url(#SVGID_00000078733655158504031500000016012050263425043387_);fill:none;stroke:#FFFFFF;stroke-width:0.25;stroke-miterlimit:10;" d="
		M46.7,31.8c-0.3,0-0.5-0.1-0.8-0.3c-0.4-0.4-0.4-1.1,0-1.5c1.8-1.8,3.7-2.7,5.7-2.7c2.2,0,4,0.8,5.5,2.3c0.4,0.4,0.4,1.1-0.1,1.5
		c-0.4,0.4-1.1,0.4-1.5-0.1c-1-1.1-2.3-1.7-3.9-1.7c-1.4,0-2.8,0.7-4.2,2.1C47.2,31.7,46.9,31.8,46.7,31.8z"/>
	<path style="clip-path:url(#SVGID_00000078733655158504031500000016012050263425043387_);fill:#FFFFFF;" d="M57.7,46
		c-0.3,0-0.5-0.1-0.8-0.3c-0.4-0.4-0.4-1.1,0-1.5l4.3-4.3c0.4-0.4,1.1-0.4,1.5,0c0.4,0.4,0.4,1.1,0,1.5l-4.3,4.3
		C58.3,45.9,58,46,57.7,46"/>
	
		<path style="clip-path:url(#SVGID_00000078733655158504031500000016012050263425043387_);fill:none;stroke:#FFFFFF;stroke-width:0.25;stroke-miterlimit:10;" d="
		M57.7,46c-0.3,0-0.5-0.1-0.8-0.3c-0.4-0.4-0.4-1.1,0-1.5l4.3-4.3c0.4-0.4,1.1-0.4,1.5,0c0.4,0.4,0.4,1.1,0,1.5l-4.3,4.3
		C58.3,45.9,58,46,57.7,46z"/>
	<path style="clip-path:url(#SVGID_00000078733655158504031500000016012050263425043387_);fill:#FFFFFF;" d="M49,58.6
		c-0.1,0-0.2,0-0.3-0.1c-8.8-2.9-14.8-11.1-14.8-20.4c0-11.8,9.6-21.4,21.4-21.4c11.8,0,21.4,9.6,21.4,21.4
		c0,9.1-5.8,17.3-14.4,20.3c-0.6,0.2-1.2-0.1-1.4-0.7c-0.2-0.6,0.1-1.2,0.7-1.4c7.7-2.7,12.9-10,12.9-18.2
		c0-10.7-8.7-19.3-19.3-19.3S36,27.5,36,38.2c0,8.4,5.4,15.8,13.3,18.4c0.6,0.2,0.9,0.8,0.7,1.3C49.9,58.3,49.4,58.6,49,58.6"/>
	
		<path style="clip-path:url(#SVGID_00000078733655158504031500000016012050263425043387_);fill:none;stroke:#FFFFFF;stroke-width:0.25;stroke-miterlimit:10;" d="
		M49,58.6c-0.1,0-0.2,0-0.3-0.1c-8.8-2.9-14.8-11.1-14.8-20.4c0-11.8,9.6-21.4,21.4-21.4c11.8,0,21.4,9.6,21.4,21.4
		c0,9.1-5.8,17.3-14.4,20.3c-0.6,0.2-1.2-0.1-1.4-0.7c-0.2-0.6,0.1-1.2,0.7-1.4c7.7-2.7,12.9-10,12.9-18.2
		c0-10.7-8.7-19.3-19.3-19.3S36,27.5,36,38.2c0,8.4,5.4,15.8,13.3,18.4c0.6,0.2,0.9,0.8,0.7,1.3C49.9,58.3,49.4,58.6,49,58.6z"/>
</g>
</svg>
