<?xml version="1.0" encoding="utf-8"?>
<!-- Generator: Adobe Illustrator 26.0.2, SVG Export Plug-In . SVG Version: 6.00 Build 0)  -->
<svg version="1.1" id="Ebene_1" xmlns="http://www.w3.org/2000/svg" xmlns:xlink="http://www.w3.org/1999/xlink" x="0px" y="0px"
	 viewBox="0 0 116.5 116.5" style="enable-background:new 0 0 116.5 116.5;" xml:space="preserve">
<style type="text/css">
	
		.st0{clip-path:url(#SVGID_00000146493077465743657370000000035811799337861025_);fill:none;stroke:#FFFFFF;stroke-width:2;stroke-miterlimit:10;}
	.st1{clip-path:url(#SVGID_00000146493077465743657370000000035811799337861025_);fill:#FFFFFF;}
</style>
<g>
	<defs>
		<rect id="SVGID_1_" width="116.5" height="116.5"/>
	</defs>
	<clipPath id="SVGID_00000036956473206437574540000004567184734054981001_">
		<use xlink:href="#SVGID_1_"  style="overflow:visible;"/>
	</clipPath>
	
		<path style="clip-path:url(#SVGID_00000036956473206437574540000004567184734054981001_);fill:none;stroke:#FFFFFF;stroke-width:2;stroke-miterlimit:10;" d="
		M18.7,1h79.2c9.7,0,17.7,8,17.7,17.7v79.2c0,9.7-8,17.7-17.7,17.7H18.7C9,115.5,1,107.6,1,97.8V18.7C1,9,9,1,18.7,1z"/>
	<path style="clip-path:url(#SVGID_00000036956473206437574540000004567184734054981001_);fill:#FFFFFF;" d="M39.5,66.2l1,4.9h-4.9
		l-1.4-4.9H39.5z M29.9,51.1h6.6l1,5.2h-6.2L29.9,51.1z M34.9,43l0.4,1.8l0.8,3.9h-6.8L27.6,43h6.2H34.9z M56.7,31.4
		c0.1-0.3,0.2-0.5,0.3-0.8l0.9,3.1l1.7,6l0.3,0.9h-0.2h-1.2h-1.2h-1.9c-0.2-2,0-4,0.3-5.9c0.1-0.6,0.3-1.2,0.4-1.8
		C56.4,32.4,56.5,31.9,56.7,31.4 M73.8,18.2l-6.5,11.3l-2.2-7.9c0-0.1-0.1-0.2-0.1-0.3C67.6,19.7,70.6,18.6,73.8,18.2 M73.1,40.6
		h-1.6l2-0.5C73.3,40.3,73.2,40.5,73.1,40.6 M77.4,48.7h-7.2l0.5-2.4l0.4-1.8l0.3-1.5h1.3h1.6h5.3L77.4,48.7z M68.7,56.3l1-5.2h6.8
		l-1.9,5.2H68.7z M67.2,63.8l1-5.2h5.6l-1.9,5.2H67.2z M69.2,71.1h-3.5l1-4.9H71L69.2,71.1z M49.1,51.3l0-0.3h6.7h1.4l-0.4,5.2h-7.4
		L49.1,51.3z M63.3,71.1h-5.1l0.3-4.9h5.8L63.3,71.1z M64.7,63.8h-6.1l0.4-5.2h6.7L64.7,63.8z M66.2,56.3h-7.1l0.4-5.2h7.7
		L66.2,56.3z M49.7,43h1.7H53h0.3h1.2h1.2h1.7h0.3l-0.2,3.5l-0.1,0.9l0,0.7l0,0.6h-0.3h-0.7h-0.2h-0.6h-0.2h-0.3h-6.1L48.5,43H49.7z
		 M49.6,58.6h7.1l-0.4,5.2h-6.4L49.6,58.6z M50.1,66.2h6l-0.3,4.9h-5.4L50.1,66.2z M67.9,48l-0.1,0.7h-1.2h-3.2h-3.6l0-0.4l0.1-1.2
		l0.2-2.7l0.1-1.5h0.8h0h1.4h0h6.6l-0.4,1.9l-0.3,1.6L67.9,48z M75.3,37.2c0,0-0.1,0-0.1,0l-11.3,2.9l3.8-6.6l9.6-2.5
		C76.9,33.2,76.3,35.3,75.3,37.2 M77.5,28.6c-0.1,0-0.2,0-0.3,0l-7.9,2l6.6-11.3C77.1,22.3,77.7,25.5,77.5,28.6 M38.2,47.3l-0.4-1.8
		l-0.4-1.9L37.4,43h8.8l0.4,5.5l0,0.2h-3.4h-2.8h-1.9L38.2,47.3z M39,51.1h7.7l0.4,5.2H40L39,51.1z M40.5,58.6h6.7l0.4,5.2h-6.1
		L40.5,58.6z M42,66.2h5.8l0.3,4.9h-5.1L42,66.2z M63,22.8l2.7,9.5l-3.8,6.6l-3.1-11.2c0,0,0-0.1,0-0.1C59.8,25.8,61.3,24.2,63,22.8
		 M32.4,24c7.4-1.7,14.6,0.1,19.5,5c0.8,0.8,1.6,1.8,2.3,2.8c-0.9,2.9-1.3,5.9-1.1,8.9h-2.4l-9-9c-0.5-0.5-1.2-0.5-1.7,0
		c-0.5,0.5-0.5,1.2,0,1.7l7.3,7.3H35C31.9,36,31,30.1,32.4,24 M32,58.6h6l1,5.2h-5.6L32,58.6z M42.7,83.6h12.4
		c-0.4,0.5-0.8,1.1-1,1.7H43.7C43.4,84.6,43.1,84.1,42.7,83.6 M41.9,88.1c0,2.6-2.1,4.7-4.7,4.7c-2.6,0-4.7-2.1-4.7-4.7
		c0-2.6,2.1-4.7,4.7-4.7c0.2,0,0.4,0,0.6,0c0.4,0.1,0.8,0.2,1.2,0.3c0.4,0.2,0.8,0.4,1.2,0.7c0.3,0.2,0.5,0.5,0.8,0.8
		c0.3,0.4,0.5,0.8,0.7,1.2c0.1,0.4,0.2,0.8,0.3,1.2C41.9,87.8,41.9,87.9,41.9,88.1 M65.2,88.1c0,2.6-2.1,4.7-4.7,4.7
		c-2.6,0-4.7-2.1-4.7-4.7c0-0.2,0-0.3,0-0.4c0-0.4,0.1-0.8,0.3-1.2c0.2-0.4,0.4-0.8,0.7-1.2c0.6-0.8,1.4-1.4,2.4-1.7
		c0.4-0.1,0.9-0.2,1.4-0.2c0.5,0,0.9,0.1,1.4,0.2c1,0.3,1.8,0.9,2.4,1.7c0.3,0.4,0.5,0.8,0.7,1.2c0.1,0.4,0.2,0.8,0.3,1.2
		C65.2,87.8,65.2,87.9,65.2,88.1 M87,34.1l-2.4,6.5l-0.4,1.2l-3.3,9l-5.3,14.5l-0.3,0.9l-2.6,7.2c-0.1,0.4-0.1,0.7,0.1,1
		c0.1,0.1,0.2,0.2,0.3,0.3l3,2.2c1.4,1.5,1.8,3.6,0.9,5.5c-0.8,1.7-2.6,2.7-4.5,2.7H67c-0.3-0.6-0.6-1.2-1-1.7h6.6c1.6,0,2.6-1,3-2
		c0.4-1,0.4-2.4-0.7-3.5c0,0-0.1-0.1-0.1-0.1l-3.4-2.6c-0.2-0.2-0.5-0.2-0.7-0.2H33.4c-0.5,0-0.8-0.4-0.8-0.8c0-0.5,0.4-0.8,0.8-0.8
		h0.4H35h6h2.4h4.8h2.4h5H58h4.8h2.4H70c0.5,0,0.9-0.3,1.1-0.8l2.3-6.2l0.1-0.3l0.9-2.4l1.9-5.2l0.9-2.4l1.9-5.2l0.2-0.5L82,43
		l0.4-1.2l0.4-1.2l2.6-7.1c0.4-1.1,1.5-1.9,2.7-1.9h1.4v1.7h-1.4C87.6,33.4,87.2,33.7,87,34.1 M102.7,33.6c0,0.4-0.4,0.8-0.8,0.8
		h-5.1h-1.2h-3.8v-1v-1.7v-1h3.8h1.2h5.1c0.4,0,0.8,0.4,0.8,0.8V33.6z M101.9,28.3H89.5v1h-1.4c-2.2,0-4.1,1.4-4.9,3.4c0,0,0,0,0,0
		l-2.9,7.9H76c0.3-0.4,0.6-0.9,0.8-1.3c4-7,4.1-15.6,0.2-23.1c-0.2-0.4-0.6-0.7-1.1-0.6c-8.4,0.3-15.9,4.7-19.9,11.7
		c-0.3,0.6-0.7,1.2-0.9,1.8c-0.5-0.6-1-1.2-1.6-1.8c-5.6-5.6-14-7.6-22.4-5.4c-0.4,0.1-0.7,0.4-0.8,0.8c-1.7,6.4-0.9,12.8,2,17.9H26
		c-0.4,0-0.7,0.2-0.9,0.5c-0.2,0.3-0.3,0.7-0.2,1l8.2,29c-1.6,0.1-2.9,1.5-2.9,3.2c0,1.8,1.4,3.2,3.2,3.2h36.8l3,2.3
		c0.3,0.3,0.2,0.6,0.1,0.9c-0.1,0.2-0.3,0.5-0.8,0.5H62.2c-0.5-0.1-1.1-0.2-1.7-0.2c-0.6,0-1.1,0.1-1.7,0.2H39c0,0-0.1,0-0.1,0
		c-0.5-0.1-1.1-0.2-1.7-0.2c-3.9,0-7,3.2-7,7c0,3.9,3.2,7,7,7s7-3.2,7-7c0-0.2,0-0.3,0-0.4h9.3c0,0.1,0,0.3,0,0.4c0,3.9,3.2,7,7,7
		c3.9,0,7-3.2,7-7c0-0.2,0-0.3,0-0.4h4.9c2.8,0,5.4-1.6,6.6-4.1c1.4-2.8,0.8-6.1-1.4-8.3c0,0-0.1-0.1-0.1-0.1l-2.4-1.8l13.7-37.7
		h0.6v1h12.4c1.7,0,3.2-1.4,3.2-3.2v-2.1C105.1,29.7,103.7,28.3,101.9,28.3"/>
</g>
</svg>
