<?xml version="1.0" encoding="utf-8"?>
<!-- Generator: Adobe Illustrator 26.0.2, SVG Export Plug-In . SVG Version: 6.00 Build 0)  -->
<svg version="1.1" id="Ebene_1" xmlns="http://www.w3.org/2000/svg" xmlns:xlink="http://www.w3.org/1999/xlink" x="0px" y="0px"
	 viewBox="0 0 127.6 127.6" style="enable-background:new 0 0 127.6 127.6;" xml:space="preserve">
<style type="text/css">
	.st0{clip-path:url(#SVGID_00000059990128591546629470000013743173599140008378_);fill:#44A9BB;}
	.st1{clip-path:url(#SVGID_00000059990128591546629470000013743173599140008378_);fill:#FFFFFF;}
</style>
<g>
	<defs>
		<rect id="SVGID_1_" width="127.6" height="127.6"/>
	</defs>
	<clipPath id="SVGID_00000106108035794689528700000003587136188564980656_">
		<use xlink:href="#SVGID_1_"  style="overflow:visible;"/>
	</clipPath>
	<path style="clip-path:url(#SVGID_00000106108035794689528700000003587136188564980656_);fill:#44A9BB;" d="M19.7,0h88.2
		c10.8,0,19.7,8.9,19.7,19.7v88.2c0,10.8-8.9,19.7-19.7,19.7H19.7C8.9,127.6,0,118.7,0,107.9V19.7C0,8.9,8.9,0,19.7,0"/>
	<path style="clip-path:url(#SVGID_00000106108035794689528700000003587136188564980656_);fill:#FFFFFF;" d="M42.9,72.7l1.1,5.5
		h-5.5L37,72.7H42.9z M32.2,55.8h7.4l1.2,5.8h-6.9L32.2,55.8z M37.8,46.8l0.4,2l0.9,4.4h-7.6l-1.8-6.4h6.9H37.8z M62.1,33.9
		c0.1-0.3,0.2-0.6,0.4-0.9l1,3.4l1.9,6.7l0.3,1h-0.2h-1.3h-1.3h-2.1c-0.2-2.2-0.1-4.4,0.4-6.6c0.1-0.7,0.3-1.4,0.5-2
		C61.7,35,61.9,34.4,62.1,33.9 M81.1,19.1l-7.3,12.6L71.4,23c0-0.1-0.1-0.2-0.1-0.3C74.2,20.8,77.6,19.6,81.1,19.1 M80.3,44.1h-1.8
		l2.2-0.6C80.6,43.8,80.5,44,80.3,44.1 M85.1,53.1h-8.1l0.5-2.7l0.4-2l0.3-1.6h1.4h1.8h5.9L85.1,53.1z M75.4,61.6l1.2-5.8h7.6
		L82,61.6H75.4z M73.7,70l1.2-5.8h6.2L79,70H73.7z M76,78.1h-3.9l1.1-5.5H78L76,78.1z M53.6,56.1l0-0.3H61h1.6l-0.4,5.8H54
		L53.6,56.1z M69.4,78.1h-5.7l0.4-5.5h6.4L69.4,78.1z M71,70h-6.8l0.4-5.8h7.5L71,70z M72.7,61.6h-7.9l0.4-5.8h8.6L72.7,61.6z
		 M54.2,46.8h1.9H58h0.3h1.3H61h1.9h0.3l-0.3,3.9l-0.1,1l-0.1,0.8l0,0.7h-0.3h-0.8h-0.2h-0.7h-0.2h-0.4h-6.8l-0.4-6.4H54.2z
		 M54.1,64.2H62L61.6,70h-7.1L54.1,64.2z M54.7,72.7h6.7l-0.4,5.5h-6L54.7,72.7z M74.5,52.4l-0.1,0.8H73h-3.6h-4l0-0.4l0.1-1.3
		l0.2-3l0.1-1.7h0.9h0h1.5h0h7.4l-0.4,2.1l-0.4,1.8L74.5,52.4z M82.8,40.3c0,0-0.1,0-0.1,0L70,43.6l4.2-7.3L85,33.5
		C84.6,35.9,83.9,38.2,82.8,40.3 M85.3,30.8c-0.1,0-0.2,0-0.3,0l-8.8,2.3l7.3-12.6C84.8,23.8,85.4,27.3,85.3,30.8 M41.5,51.6l-0.4-2
		l-0.4-2.2l-0.1-0.7h9.8l0.4,6.1l0,0.2H47h-3.1h-2.1L41.5,51.6z M42.3,55.8h8.6l0.4,5.8h-7.9L42.3,55.8z M44,64.2h7.5l0.4,5.8h-6.8
		L44,64.2z M45.6,72.7h6.4l0.4,5.5h-5.7L45.6,72.7z M69,24.3l3,10.6l-4.2,7.3l-3.5-12.5c0,0,0-0.1,0-0.1
		C65.5,27.6,67.2,25.8,69,24.3 M34.9,25.6c8.2-1.9,16.3,0.1,21.7,5.5c0.9,0.9,1.8,2,2.5,3.1c-1,3.2-1.4,6.6-1.2,9.9h-2.7L45.3,34.1
		c-0.5-0.5-1.4-0.5-1.9,0c-0.5,0.5-0.5,1.4,0,1.9l8.2,8.2H37.9C34.5,39,33.4,32.4,34.9,25.6 M34.6,64.2h6.7l1.2,5.8h-6.2L34.6,64.2z
		 M46.4,92h13.9c-0.5,0.6-0.8,1.2-1.1,1.8H47.6C47.3,93.2,46.9,92.6,46.4,92 M45.6,97c0,2.9-2.3,5.2-5.2,5.2c-2.9,0-5.2-2.3-5.2-5.2
		c0-2.9,2.3-5.2,5.2-5.2c0.2,0,0.5,0,0.7,0c0.5,0.1,0.9,0.2,1.3,0.4c0.5,0.2,0.9,0.5,1.3,0.8c0.3,0.3,0.6,0.6,0.8,0.9
		c0.3,0.4,0.5,0.8,0.7,1.3c0.2,0.4,0.3,0.9,0.3,1.3C45.6,96.7,45.6,96.8,45.6,97 M71.6,97c0,2.9-2.3,5.2-5.2,5.2
		c-2.9,0-5.2-2.3-5.2-5.2c0-0.2,0-0.3,0-0.5c0-0.5,0.1-0.9,0.3-1.3c0.2-0.5,0.4-0.9,0.7-1.3c0.7-0.9,1.6-1.5,2.6-1.8
		c0.5-0.1,1-0.2,1.5-0.2c0.5,0,1,0.1,1.5,0.2c1.1,0.3,2,1,2.6,1.8c0.3,0.4,0.5,0.8,0.7,1.3c0.2,0.4,0.3,0.9,0.3,1.3
		C71.6,96.7,71.6,96.8,71.6,97 M95.8,36.9l-2.6,7.2l-0.5,1.3L89,55.5l-5.9,16.1l-0.4,1l-2.9,8c-0.1,0.4-0.1,0.8,0.1,1.2
		c0.1,0.1,0.2,0.3,0.3,0.4l3.3,2.5c1.6,1.7,2,4,1,6.1c-0.9,1.8-2.8,3-5,3h-6.1c-0.3-0.7-0.7-1.3-1.1-1.8h7.3c1.8,0,2.9-1.1,3.3-2.2
		c0.4-1.1,0.5-2.6-0.8-3.9c0,0-0.1-0.1-0.1-0.1l-3.8-2.9c-0.2-0.2-0.5-0.3-0.8-0.3H36.1c-0.5,0-0.9-0.4-0.9-0.9s0.4-0.9,0.9-0.9h0.4
		h1.4h6.7h2.7h5.4h2.6h5.6h2.6h5.4h2.7h5.3c0.6,0,1.1-0.3,1.2-0.9l2.5-7l0.1-0.3l1-2.6l2.1-5.8l1-2.6l2.1-5.8l0.2-0.6l3.1-8.4
		l0.5-1.3l0.5-1.3l2.9-7.9c0.5-1.2,1.7-2.1,3-2.1h1.6v1.8H97C96.5,36.1,96,36.4,95.8,36.9 M113.3,36.3c0,0.5-0.4,0.9-0.9,0.9h-5.6
		h-1.3h-4.2v-1.1v-1.8v-1.1h4.2h1.3h5.6c0.5,0,0.9,0.4,0.9,0.9V36.3z M112.4,30.4H98.6v1.1h-1.6c-2.4,0-4.6,1.5-5.5,3.8c0,0,0,0,0,0
		l-3.2,8.8h-4.8c0.3-0.5,0.6-1,0.9-1.5c4.5-7.8,4.6-17.4,0.2-25.7c-0.2-0.5-0.7-0.7-1.2-0.7c-9.4,0.4-17.7,5.3-22.2,13
		c-0.4,0.7-0.7,1.3-1,2c-0.6-0.7-1.2-1.4-1.8-2c-6.2-6.2-15.6-8.5-25-6c-0.5,0.1-0.8,0.5-0.9,0.9c-1.9,7.1-1,14.2,2.2,20h-6.9
		c-0.4,0-0.8,0.2-1.1,0.5c-0.2,0.3-0.3,0.8-0.2,1.2l9.1,32.3c-1.8,0.2-3.3,1.7-3.3,3.6c0,2,1.6,3.6,3.6,3.6h41l3.3,2.6
		c0.3,0.3,0.3,0.7,0.1,1c-0.1,0.3-0.3,0.6-0.9,0.6H68.2c-0.6-0.1-1.2-0.2-1.9-0.2c-0.6,0-1.3,0.1-1.9,0.2H42.4c0,0-0.1,0-0.1,0
		c-0.6-0.1-1.2-0.2-1.9-0.2c-4.3,0-7.9,3.5-7.9,7.9c0,4.3,3.5,7.9,7.9,7.9c4.3,0,7.9-3.5,7.9-7.9c0-0.2,0-0.3,0-0.5h10.3
		c0,0.2,0,0.3,0,0.5c0,4.3,3.5,7.9,7.9,7.9c4.3,0,7.9-3.5,7.9-7.9c0-0.2,0-0.3,0-0.5h5.4c3.1,0,6-1.8,7.4-4.5
		c1.5-3.1,0.9-6.7-1.5-9.2c0,0-0.1-0.1-0.1-0.1l-2.6-2l15.3-42h0.7v1.1h13.8c1.9,0,3.5-1.6,3.5-3.5V34C116,32,114.4,30.4,112.4,30.4
		"/>
</g>
</svg>
