<?xml version="1.0" encoding="utf-8"?>
<!-- Generator: Adobe Illustrator 26.0.2, SVG Export Plug-In . SVG Version: 6.00 Build 0)  -->
<svg version="1.1" id="Ebene_1" xmlns="http://www.w3.org/2000/svg" xmlns:xlink="http://www.w3.org/1999/xlink" x="0px" y="0px"
	 viewBox="0 0 69 69" style="enable-background:new 0 0 69 69;" xml:space="preserve">
<style type="text/css">
	.st0{clip-path:url(#SVGID_00000174591444390616253290000007769697215727374763_);fill:#DCA221;}
	.st1{clip-path:url(#SVGID_00000174591444390616253290000007769697215727374763_);fill:none;stroke:#FFFFFF;}
	.st2{clip-path:url(#SVGID_00000174591444390616253290000007769697215727374763_);fill:#FFFFFF;}
</style>
<g>
	<defs>
		<rect id="SVGID_1_" width="69" height="69"/>
	</defs>
	<clipPath id="SVGID_00000093874572439643161310000011512650956568065441_">
		<use xlink:href="#SVGID_1_"  style="overflow:visible;"/>
	</clipPath>
	<path style="clip-path:url(#SVGID_00000093874572439643161310000011512650956568065441_);fill:#DCA221;" d="M34.5,68.5
		c18.8,0,34-15.2,34-34s-15.2-34-34-34s-34,15.2-34,34S15.7,68.5,34.5,68.5"/>
	
		<circle style="clip-path:url(#SVGID_00000093874572439643161310000011512650956568065441_);fill:none;stroke:#FFFFFF;" cx="34.5" cy="34.5" r="34"/>
	<path style="clip-path:url(#SVGID_00000093874572439643161310000011512650956568065441_);fill:#FFFFFF;" d="M57.5,33.5L55.7,35
		l0.4-2.9l-1.8,2.5c-0.9-0.6-2.1-0.8-3.2-0.7c-1.4,0.2-2.8,1-4,1.6c-0.7,0.3-1.4,0.7-2,0.9c0,0,0,0,0,0l2.1,4.4c0.2,0.4,0,0.8-0.3,1
		c-0.1,0-0.2,0.1-0.3,0.1c-0.3,0-0.5-0.2-0.7-0.4l-2.1-4.4c0,0,0-0.1,0-0.1c-1.8,0.7-3.2,1-3.2,1c-0.3,0-0.5,0.1-0.8,0.1
		c0,0,0,0.1,0,0.1l0.9,5.4c0.1,0.4-0.2,0.8-0.6,0.8c0,0-0.1,0-0.1,0c-0.3,0-0.7-0.3-0.7-0.6l-0.9-5.4c0,0,0-0.1,0-0.1
		c-1,0.1-2,0.2-3,0.2c-0.9,0-1.7-0.1-2.6-0.2v4.9c0,0.4-0.3,0.7-0.7,0.7c-0.4,0-0.7-0.3-0.7-0.7v-4.9c0-0.1,0-0.1,0-0.2
		c-0.4-0.1-0.9-0.1-1.3-0.2c0,0-1.5-0.3-3.5-1.1l-1.7,4.8c-0.1,0.3-0.4,0.5-0.7,0.5c-0.1,0-0.2,0-0.2,0c-0.4-0.1-0.6-0.5-0.4-0.9
		l1.7-4.9c-0.6-0.2-1.1-0.5-1.7-0.8c-1.2-0.6-2.6-1.5-4-1.6c-1.2-0.1-2.6,0.2-3.6,1l-2-2.2l0.8,2.8l-2-1.3l0.5,1.5l-1.8,0.2l1.7,1.7
		l-1.4,0.6c0,0,1.5,0.4,2.9,0.7c0,0.2,0,0.4,0.1,0.6c0.2,1.4,1.5,3.2,4.6,4.8c3.1,1.6,6.7,3.8,15.7,4c0.1,0,0.2,0,0.3,0h0h0
		c0.1,0,0.2,0,0.3,0c8.9-0.1,12.6-2.4,15.7-4c3.1-1.6,4.3-3.4,4.6-4.8c0.1-0.3,0.1-0.7,0.1-1.1c1.4-0.5,2.9-1.1,2.9-1.1l-1.4-0.4
		L59,35h-1.8L57.5,33.5z"/>
	<path style="clip-path:url(#SVGID_00000093874572439643161310000011512650956568065441_);fill:#FFFFFF;" d="M36.4,16.8
		c0,0-3.7,1.8-2.1,5.5c1.7,3.9,0.1,7.3,0.1,7.3c0.7-0.6,1.2-1.7,1.4-2.6c0.3-1.1,0.3-2.2,0.2-3.3c-0.1-1.1-0.8-2.2-0.8-3.3
		C35.2,19.1,35.7,17.8,36.4,16.8"/>
	<path style="clip-path:url(#SVGID_00000093874572439643161310000011512650956568065441_);fill:#FFFFFF;" d="M40.2,21.6
		c0,0-2.6,1.3-1.6,4.1c1,2.8,0.1,5.5,0.1,5.5c0.5-0.5,0.9-1.3,1.1-2c0.2-0.8,0.2-1.6,0.1-2.5c-0.1-0.8-0.6-1.7-0.6-2.5
		C39.3,23.3,39.7,22.4,40.2,21.6"/>
	<path style="clip-path:url(#SVGID_00000093874572439643161310000011512650956568065441_);fill:#FFFFFF;" d="M32.2,21.6
		c0,0-2.8,1.4-1.6,4.1c1.3,2.8,0.1,5.5,0.1,5.5c0.5-0.5,0.9-1.3,1.1-2c0.2-0.8,0.2-1.6,0.1-2.5c-0.1-0.8-0.6-1.7-0.6-2.5
		C31.3,23.3,31.7,22.4,32.2,21.6"/>
</g>
</svg>
