<?xml version="1.0" encoding="utf-8"?>
<!-- Generator: Adobe Illustrator 25.2.0, SVG Export Plug-In . SVG Version: 6.00 Build 0)  -->
<svg version="1.1" id="Ebene_1" xmlns="http://www.w3.org/2000/svg" xmlns:xlink="http://www.w3.org/1999/xlink" x="0px" y="0px"
	 viewBox="0 0 425.03 425.03" style="enable-background:new 0 0 425.03 425.03;" xml:space="preserve">
<style type="text/css">
	.st0{clip-path:url(#SVGID_2_);fill:none;stroke:#FFFFFF;stroke-width:5;stroke-miterlimit:10;}
	.st1{clip-path:url(#SVGID_2_);fill:#FFFFFF;}
</style>
<g>
	<defs>
		<rect id="SVGID_1_" x="0" y="0" width="425.03" height="425.03"/>
	</defs>
	<clipPath id="SVGID_2_">
		<use xlink:href="#SVGID_1_"  style="overflow:visible;"/>
	</clipPath>
	<path class="st0" d="M67.35,2.5h290.33c35.67,0,64.85,29.18,64.85,64.85v290.33c0,35.67-29.18,64.85-64.85,64.85H67.35
		c-35.67,0-64.85-29.18-64.85-64.85V67.35C2.5,31.68,31.68,2.5,67.35,2.5z"/>
	<path class="st1" d="M214.17,226.88c-8.2,0-14.88-6.67-14.88-14.88c0-8.2,6.67-14.88,14.88-14.88s14.88,6.67,14.88,14.88
		C229.05,220.21,222.38,226.88,214.17,226.88 M332.33,269.52l-18.45-10.54l16.42-4.18c4.71-1.2,7.56-5.99,6.36-10.7
		c-1.2-4.71-6-7.57-10.7-6.36l-34.07,8.67l-46.27-26.44c0.65-2.56,1.03-5.22,1.03-7.97c0-2.77-0.39-5.44-1.05-8.01l46.69-27.24
		l33.02,8.4c0.73,0.18,1.45,0.27,2.17,0.27c3.93,0,7.51-2.65,8.52-6.63c1.2-4.71-1.65-9.5-6.36-10.7l-15.68-3.99l17.95-10.47
		c4.2-2.45,5.62-7.84,3.17-12.04c-2.45-4.19-7.82-5.61-12.03-3.17l-18.35,10.7l4.59-16.3c1.32-4.68-1.4-9.54-6.09-10.85
		c-4.67-1.33-9.54,1.4-10.85,6.08l-9.53,33.83l-46.03,26.86c-3.83-3.73-8.57-6.5-13.85-7.99l-0.24-54.05l23.78-24.38
		c3.39-3.48,3.33-9.05-0.15-12.44c-3.48-3.4-9.05-3.32-12.45,0.15l-11.3,11.58l-0.09-20.77c-0.02-4.85-3.96-8.76-8.8-8.76h-0.04
		c-4.86,0.02-8.78,3.98-8.76,8.84l0.1,21.25l-11.83-12.13c-3.4-3.48-8.97-3.56-12.45-0.15c-3.48,3.39-3.55,8.96-0.15,12.44
		l24.54,25.17l0.24,53.28c-5.28,1.49-10.02,4.27-13.84,8.01l-46.93-26.82l-9.23-32.79c-1.32-4.67-6.17-7.42-10.86-6.08
		c-4.68,1.32-7.4,6.18-6.09,10.85l4.38,15.57l-18.04-10.31c-4.21-2.4-9.6-0.94-12,3.28c-2.41,4.22-0.95,9.6,3.27,12.01l18.45,10.54
		l-16.42,4.18c-4.71,1.2-7.56,5.99-6.36,10.7c1.01,3.98,4.59,6.63,8.52,6.63c0.72,0,1.45-0.09,2.18-0.27l34.07-8.67l46.27,26.44
		c-0.64,2.55-1.03,5.21-1.03,7.97c0,2.77,0.39,5.44,1.04,8.01l-46.7,27.24l-33.01-8.4c-4.72-1.2-9.5,1.65-10.7,6.36
		c-1.2,4.71,1.65,9.5,6.35,10.7l15.68,3.99l-17.95,10.47c-4.2,2.45-5.61,7.84-3.17,12.04c1.64,2.8,4.58,4.37,7.61,4.37
		c1.51,0,3.03-0.39,4.43-1.2l18.35-10.71l-4.59,16.31c-1.32,4.68,1.41,9.54,6.09,10.85c0.8,0.23,1.6,0.34,2.39,0.34
		c3.84,0,7.38-2.54,8.47-6.42l9.53-33.84l46.03-26.85c3.82,3.73,8.56,6.5,13.85,7.99l0.24,54.05l-23.79,24.38
		c-3.39,3.48-3.32,9.05,0.16,12.44c1.72,1.67,3.93,2.5,6.15,2.5c2.29,0,4.58-0.89,6.3-2.66l11.3-11.58l0.09,20.78
		c0.02,4.85,3.96,8.76,8.8,8.76h0.04c4.86-0.02,8.78-3.98,8.76-8.84l-0.1-21.25l11.83,12.13c1.72,1.77,4.01,2.66,6.3,2.66
		c2.22,0,4.44-0.83,6.15-2.5c3.48-3.39,3.55-8.96,0.15-12.44l-24.54-25.17L223,243.23c5.27-1.49,10.01-4.28,13.84-8l46.94,26.82
		l9.23,32.79c1.09,3.88,4.62,6.42,8.47,6.42c0.79,0,1.59-0.11,2.39-0.33c4.68-1.32,7.4-6.17,6.09-10.85l-4.39-15.58l18.05,10.31
		c1.38,0.79,2.88,1.16,4.36,1.16c3.05,0,6.02-1.59,7.65-4.43C338.01,277.31,336.55,271.93,332.33,269.52"/>
</g>
</svg>
