<?xml version="1.0" encoding="utf-8"?>
<!-- Generator: Adobe Illustrator 26.0.2, SVG Export Plug-In . SVG Version: 6.00 Build 0)  -->
<svg version="1.1" id="Ebene_1" xmlns="http://www.w3.org/2000/svg" xmlns:xlink="http://www.w3.org/1999/xlink" x="0px" y="0px"
	 viewBox="0 0 21.7 28.2" style="enable-background:new 0 0 21.7 28.2;" xml:space="preserve">
<style type="text/css">
	.st0{fill:#2B363D;}
	.st1{clip-path:url(#SVGID_00000153701039151005256380000011724161248860956824_);fill:#2B363D;}
</style>
<polygon class="st0" points="10.4,13.8 10.2,14.4 7.6,21.6 7.5,21.8 7.5,21.9 7.5,21.9 7.6,22.1 8.9,24.8 10.2,27.5 10.4,27.9 
	10.6,28.2 10.7,27.9 10.9,27.5 12.2,24.8 13.5,22.1 13.6,21.9 13.6,21.9 13.6,21.8 13.6,21.6 10.9,14.4 10.7,13.8 10.6,13.4 "/>
<g>
	<defs>
		<rect id="SVGID_1_" width="21.7" height="28.2"/>
	</defs>
	<clipPath id="SVGID_00000068671431210904282480000009087052120285910661_">
		<use xlink:href="#SVGID_1_"  style="overflow:visible;"/>
	</clipPath>
	<path style="clip-path:url(#SVGID_00000068671431210904282480000009087052120285910661_);fill:#2B363D;" d="M10.5,12.7
		c-3.5,0-6.4-2.9-6.4-6.4C4.1,2.9,7,0,10.5,0c3.5,0,6.4,2.9,6.4,6.4C16.8,9.9,14,12.7,10.5,12.7"/>
	<path style="clip-path:url(#SVGID_00000068671431210904282480000009087052120285910661_);fill:#2B363D;" d="M19.6,27.9h-7.1h-0.2
		l0.1-0.2l1.9-5l3.4-8.8l0-0.1h0.1h1.8c1.1,0,2.1,0.9,2.1,2.1v10C21.7,27,20.7,27.9,19.6,27.9"/>
	<path style="clip-path:url(#SVGID_00000068671431210904282480000009087052120285910661_);fill:#2B363D;" d="M9.2,27.9H8.9H2.1
		C0.9,27.9,0,27,0,25.8v-10c0-1.1,0.9-2.1,2.1-2.1h1.5h0.1l0,0.1l3.4,8.8l1.9,5L9.2,27.9z"/>
</g>
</svg>
