<?xml version="1.0" encoding="utf-8"?>
<!-- Generator: Adobe Illustrator 25.2.0, SVG Export Plug-In . SVG Version: 6.00 Build 0)  -->
<svg version="1.1" id="Ebene_1" xmlns="http://www.w3.org/2000/svg" xmlns:xlink="http://www.w3.org/1999/xlink" x="0px" y="0px"
	 viewBox="0 0 425.03 425.03" style="enable-background:new 0 0 425.03 425.03;" xml:space="preserve">
<style type="text/css">
	.st0{clip-path:url(#SVGID_2_);fill:none;stroke:#2B363D;stroke-width:5;stroke-miterlimit:10;}
	.st1{clip-path:url(#SVGID_2_);fill:#2B363D;}
</style>
<g>
	<defs>
		<rect id="SVGID_1_" width="425.03" height="425.03"/>
	</defs>
	<clipPath id="SVGID_2_">
		<use xlink:href="#SVGID_1_"  style="overflow:visible;"/>
	</clipPath>
	<path class="st0" d="M67.35,2.5h290.33c35.67,0,64.85,29.18,64.85,64.85v290.33c0,35.67-29.18,64.85-64.85,64.85H67.35
		c-35.67,0-64.85-29.18-64.85-64.85V67.35C2.5,31.68,31.68,2.5,67.35,2.5z"/>
	<path class="st1" d="M350.72,140.07L302.5,152.4l16.52-28.59l40.96-10.47c-1.41,9.23-4.3,18.21-8.65,26.63
		C351.13,139.99,350.93,140.02,350.72,140.07 M285.01,230.26h-5.96v-33.98c2-0.16,3.99-0.38,5.96-0.66V230.26z M299.91,78.66
		l11.39,40.63l-16.51,28.57l-13.41-47.83c-0.06-0.2-0.13-0.4-0.22-0.59C286.28,91.48,292.62,84.5,299.91,78.66 M317.56,108.47
		l-9.48-33.82c-0.14-0.51-0.37-0.97-0.66-1.38c11.34-7.27,24.44-12.04,38.47-13.83L317.56,108.47z M359.35,104.26l-34.07,8.71
		l28.36-49.08c5.47,13.05,7.88,26.79,7.25,40.25C360.39,104.1,359.87,104.13,359.35,104.26 M273.14,115.36
		c0.6-1.57,1.25-3.13,1.94-4.67l11.79,42.04l1.25,4.47l0.42,1.49l-2.49,4.31l-1.04,1.79l-3.72,6.44l-2.24,3.88l-3.51,6.07
		l-0.13,0.22l-0.6,1.04c-0.08-0.2-0.16-0.39-0.24-0.59c-0.29-0.71-0.58-1.43-0.86-2.15c-1.47-3.83-2.67-7.71-3.62-11.61
		c-3.27-13.45-3.47-27.24-0.61-40.39c0.49-2.24,1.06-4.46,1.73-6.66C271.79,119.13,272.43,117.23,273.14,115.36 M245,198.16
		c1.98,0.12,3.96,0.19,5.96,0.2v31.9H245V198.16z M259.91,189.04c-1.5,0.13-2.99,0.22-4.47,0.28c-1.5,0.06-2.99,0.09-4.47,0.09
		c-2-0.01-3.99-0.09-5.96-0.23c-1.5-0.1-2.99-0.24-4.47-0.42c-1.5-0.18-2.99-0.4-4.47-0.66c-3.47-0.59-6.87-1.39-10.19-2.38
		c-3.06-0.92-6.04-1.99-8.95-3.24c-9.11-3.92-17.4-9.46-24.47-16.53h0c-20.39-20.39-28.06-50.86-20.76-81.95
		c31.09-7.3,61.56,0.37,81.95,20.76c3.61,3.61,6.82,7.55,9.62,11.74c-3.96,12.15-5.44,24.99-4.41,37.82
		c0.23,2.86,0.59,5.72,1.06,8.58c0.21,1.23,0.43,2.46,0.68,3.68l-0.68-0.68l-4.47-4.47l-4.22-4.22l-4.47-4.47l-36.29-36.29
		c-1.74-1.75-4.58-1.75-6.32,0c-1.75,1.75-1.75,4.58,0,6.33l32.41,32.42l3.98,3.98l4.47,4.47l5.96,5.96l4.47,4.47l4.47,4.47
		l6.17,6.17c0.46,1.12,0.93,2.24,1.42,3.36C264.96,188.49,262.43,188.82,259.91,189.04 M313.09,177.65
		c-2.9,1.46-5.88,2.78-8.95,3.94c-3.31,1.25-6.71,2.32-10.19,3.2c-1.48,0.37-2.97,0.7-4.47,1c-1.48,0.3-2.97,0.56-4.47,0.79
		c-0.49,0.07-0.98,0.15-1.47,0.21c-0.33,0.04-0.66,0.09-0.99,0.14l1.5-2.6l0.96-1.66l4.47-7.74l4.47-7.74l2.29-3.96l7.9-2.02
		l8.95-2.29l31.55-8.07C336.43,162.22,325.6,171.33,313.09,177.65 M358.04,52.21c-0.8-1.53-2.42-2.47-4.15-2.4
		c-34.95,1.44-65.81,19.6-82.56,48.58c-1.54,2.67-2.95,5.4-4.21,8.18c-2.2-2.84-4.58-5.56-7.15-8.13
		c-23.22-23.22-58.02-31.61-93.1-22.45c-1.56,0.41-2.79,1.63-3.2,3.2c-9.16,35.08-0.77,69.88,22.45,93.1
		c8.8,8.8,19.28,15.47,30.8,19.86v43.71c0,19.9,7.31,34.46,21.13,42.1c5.66,3.13,9.18,9.12,9.18,15.62v75.34h8.95v-75.34
		c0-9.76-5.29-18.75-13.8-23.45c-10.96-6.06-16.51-17.59-16.51-34.27v-40.82c3.33,0.9,6.73,1.61,10.19,2.15v37.55
		c0,2.47,2,4.47,4.47,4.47h14.91c2.47,0,4.47-2,4.47-4.47v-36.73c3.38-0.27,6.78-0.71,10.19-1.3v38.03c0,2.47,2,4.47,4.47,4.47
		h14.91c2.47,0,4.47-2,4.47-4.47v-40.75c3.47-0.79,6.86-1.77,10.19-2.9v44.76c0,16.69-5.56,28.22-16.52,34.27
		c-8.51,4.71-13.8,13.69-13.8,23.45v75.34h8.95v-75.34c0-6.51,3.52-12.49,9.18-15.62c13.83-7.64,21.13-22.2,21.13-42.1v-48.29
		c18.41-8.29,33.86-21.92,44.07-39.57C373.9,119.01,374.24,83.2,358.04,52.21"/>
	<path class="st1" d="M117.5,228.79c-37.32,0-67.68,30.36-67.68,67.67c0,37.32,30.36,67.68,67.68,67.68
		c37.32,0,67.67-30.36,67.67-67.68C185.17,259.14,154.81,228.79,117.5,228.79 M117.5,372.92c-42.16,0-76.46-34.3-76.46-76.46
		c0-42.16,34.3-76.46,76.46-76.46c42.16,0,76.46,34.3,76.46,76.46C193.96,338.62,159.66,372.92,117.5,372.92"/>
	<path class="st1" d="M117.5,244.73c-28.53,0-51.73,23.2-51.73,51.73c0,28.52,23.21,51.73,51.73,51.73
		c28.52,0,51.73-23.21,51.73-51.73C169.23,267.94,146.02,244.73,117.5,244.73 M117.5,356.98c-33.37,0-60.52-27.15-60.52-60.52
		c0-33.37,27.15-60.51,60.52-60.51c33.37,0,60.51,27.14,60.51,60.51C178.01,329.83,150.87,356.98,117.5,356.98"/>
	<path class="st1" d="M79.43,296.46c0,2.75-2.23,4.98-4.99,4.98c-2.75,0-4.99-2.23-4.99-4.98s2.23-4.98,4.99-4.98
		C77.2,291.48,79.43,293.71,79.43,296.46"/>
	<path class="st1" d="M165.53,296.46c0,2.75-2.23,4.98-4.99,4.98c-2.75,0-4.99-2.23-4.99-4.98s2.23-4.98,4.99-4.98
		C163.3,291.48,165.53,293.71,165.53,296.46"/>
	<path class="st1" d="M117.5,334.53c2.75,0,4.98,2.23,4.98,4.98c0,2.75-2.23,4.99-4.98,4.99c-2.75,0-4.99-2.23-4.99-4.99
		C112.51,336.76,114.74,334.53,117.5,334.53"/>
	<path class="st1" d="M117.5,248.43c2.75,0,4.98,2.23,4.98,4.99s-2.23,4.98-4.98,4.98c-2.75,0-4.99-2.23-4.99-4.98
		S114.74,248.43,117.5,248.43"/>
	<path class="st1" d="M145.21,300.85H117.5c-2.43,0-4.39-1.97-4.39-4.39v-17.03c0-2.43,1.97-4.39,4.39-4.39
		c2.43,0,4.39,1.97,4.39,4.39v12.64h23.32c2.43,0,4.39,1.97,4.39,4.39S147.63,300.85,145.21,300.85"/>
</g>
</svg>
