<?xml version="1.0" encoding="utf-8"?>
<!-- Generator: Adobe Illustrator 26.0.2, SVG Export Plug-In . SVG Version: 6.00 Build 0)  -->
<svg version="1.1" id="Ebene_1" xmlns="http://www.w3.org/2000/svg" xmlns:xlink="http://www.w3.org/1999/xlink" x="0px" y="0px"
	 viewBox="0 0 24.6 29.3" style="enable-background:new 0 0 24.6 29.3;" xml:space="preserve">
<style type="text/css">
	
		.st0{clip-path:url(#SVGID_00000090976055912485340050000002070464975368558235_);fill:none;stroke:#FF9D00;stroke-width:1.093;stroke-linecap:round;stroke-linejoin:round;stroke-miterlimit:10;}
	.st1{clip-path:url(#SVGID_00000090976055912485340050000002070464975368558235_);fill:#FF9D00;}
</style>
<g>
	<defs>
		<rect id="SVGID_1_" width="24.6" height="29.3"/>
	</defs>
	<clipPath id="SVGID_00000171695206440531957770000009684425734093886640_">
		<use xlink:href="#SVGID_1_"  style="overflow:visible;"/>
	</clipPath>
	
		<path style="clip-path:url(#SVGID_00000171695206440531957770000009684425734093886640_);fill:none;stroke:#FF9D00;stroke-width:1.093;stroke-linecap:round;stroke-linejoin:round;stroke-miterlimit:10;" d="
		M22.2,11.8c-2.1-2.3-5.7-2.5-8-0.4l-1.9,1.7l-1.9-1.7c-2.3-2.1-5.9-1.9-8,0.4c-2.1,2.3-1.9,5.9,0.4,8l9.5,8.5l9.5-8.5
		C24.1,17.7,24.2,14.1,22.2,11.8z"/>
	<path style="clip-path:url(#SVGID_00000171695206440531957770000009684425734093886640_);fill:#FF9D00;" d="M10.3,6.5L8.5,4.6
		c-0.2-0.2-0.2-0.5,0-0.7c0.2-0.2,0.5-0.2,0.7,0l1.8,1.8c0.2-1.5-0.3-3.1-1.4-4.3C8.3,0.2,6.4-0.3,4.8,0.2C4.3,1.9,4.7,3.7,6.1,5
		C7.2,6.2,8.8,6.7,10.3,6.5"/>
	<path style="clip-path:url(#SVGID_00000171695206440531957770000009684425734093886640_);fill:#FF9D00;" d="M12.6,8.8
		C12.7,8.8,12.7,8.8,12.6,8.8c0.6,0,1-0.4,1.1-0.9c0.1-2,1.3-4.2,4.1-4.6c0.6-0.1,1-0.6,0.9-1.1c-0.1-0.6-0.6-1-1.1-0.9
		c-3.3,0.4-5.6,2.9-5.9,6.4C11.7,8.3,12.1,8.8,12.6,8.8"/>
</g>
</svg>
