<?xml version="1.0" encoding="utf-8"?>
<!-- Generator: Adobe Illustrator 26.0.2, SVG Export Plug-In . SVG Version: 6.00 Build 0)  -->
<svg version="1.1" id="Ebene_1" xmlns="http://www.w3.org/2000/svg" xmlns:xlink="http://www.w3.org/1999/xlink" x="0px" y="0px"
	 viewBox="0 0 69 69" style="enable-background:new 0 0 69 69;" xml:space="preserve">
<style type="text/css">
	.st0{clip-path:url(#SVGID_00000054960157245021675560000008010577180454005389_);fill:#F9A221;}
	.st1{clip-path:url(#SVGID_00000054960157245021675560000008010577180454005389_);fill:none;stroke:#FFFFFF;}
	.st2{clip-path:url(#SVGID_00000054960157245021675560000008010577180454005389_);fill:#FFFFFF;}
</style>
<g>
	<defs>
		<rect id="SVGID_1_" width="69" height="69"/>
	</defs>
	<clipPath id="SVGID_00000021077703360619248750000005251940846601564566_">
		<use xlink:href="#SVGID_1_"  style="overflow:visible;"/>
	</clipPath>
	<path style="clip-path:url(#SVGID_00000021077703360619248750000005251940846601564566_);fill:#F9A221;" d="M34.5,68.5
		c18.8,0,34-15.2,34-34s-15.2-34-34-34s-34,15.2-34,34S15.7,68.5,34.5,68.5"/>
	
		<circle style="clip-path:url(#SVGID_00000021077703360619248750000005251940846601564566_);fill:none;stroke:#FFFFFF;" cx="34.5" cy="34.5" r="34"/>
	<path style="clip-path:url(#SVGID_00000021077703360619248750000005251940846601564566_);fill:#FFFFFF;" d="M32.5,29.3
		c-3-4-7.2-6.8-13.4-9.2C23.1,21.4,32,24.1,32.5,29.3 M34.7,30.7c0,0-1.4-5.7-6.5-9c-5.1-3.3-12-1.9-12-1.9s3.8,2.9,10.4,6.8
		C33.2,30.6,34.7,30.7,34.7,30.7"/>
	<path style="clip-path:url(#SVGID_00000021077703360619248750000005251940846601564566_);fill:#FFFFFF;" d="M20.5,27
		c1.1-0.4,1.9-0.1,2,0.4c0.2,0.5-0.3,1.6-1.5,1.5c-1.1-0.1-2.4,0.1-2.6-0.2C18.4,28.4,19.4,27.4,20.5,27 M21.9,34.8
		c3.1-1,4.3-3.4,3.6-5.6c-0.7-2.3-3.1-3.5-6.2-2.6c-3.1,1-5.8,3.8-5.1,6.1C14.9,35,18.7,35.8,21.9,34.8"/>
	<path style="clip-path:url(#SVGID_00000021077703360619248750000005251940846601564566_);fill:#FFFFFF;" d="M25.7,28.5
		c0.3,0.4,0.4,0.9,0.5,1.3c1-0.7,2.1-0.9,3.3-0.6c-0.2-0.2-0.5-0.4-0.7-0.7C27.7,28.3,26.7,28.3,25.7,28.5"/>
	<path style="clip-path:url(#SVGID_00000021077703360619248750000005251940846601564566_);fill:#FFFFFF;" d="M30.4,40.1
		c-1,0.7-2.1,1.8-2.4,1.7c-0.3-0.1-0.2-1.8,0.5-2.9c0.7-1.1,1.5-1.5,2-1.2C31.1,38,31.5,39.3,30.4,40.1 M34.1,37.8
		c-2.3-1.4-5.3-0.8-7.3,2.3c-2,3.1-2.2,7.6,0.1,9.1c2.3,1.4,6.2-0.7,8.2-3.8S36.4,39.2,34.1,37.8"/>
	<path style="clip-path:url(#SVGID_00000021077703360619248750000005251940846601564566_);fill:#FFFFFF;" d="M41.5,33.7
		c4.2-3.1,12.2,1.6,15.9,3.7C51.3,34.5,46.4,33.2,41.5,33.7 M50,31.7c-5.9-1.5-11,1.3-11,1.3s1.1,1.1,8.5,3.3
		c7.4,2.2,12.1,3.1,12.1,3.1S55.8,33.2,50,31.7"/>
	<path style="clip-path:url(#SVGID_00000021077703360619248750000005251940846601564566_);fill:#FFFFFF;" d="M34,32.8
		c-4.8,1-9.2,3.6-14.1,8.1C22.9,37.9,29.1,31,34,32.8 M36.7,33.8c0,0-2.7-4.1-8.6-1.9c-5.8,2.3-10,11.3-10,11.3s6.9-4.1,11.3-6.9
		C33.9,33.5,36.7,33.8,36.7,33.8"/>
	<path style="clip-path:url(#SVGID_00000021077703360619248750000005251940846601564566_);fill:#FFFFFF;" d="M39.8,41
		c-0.5,1.2-0.9,2.6-1.2,2.7c-0.3,0.1-1-1.4-1-2.8c0.1-1.3,0.6-2.1,1.2-2C39.4,38.9,40.4,39.8,39.8,41 M41.9,36.4
		c-2.7-0.1-5,1.9-5.2,5.6c-0.2,3.7,1.8,7.7,4.5,7.8c2.7,0.1,5.1-3.7,5.2-7.4S44.6,36.5,41.9,36.4"/>
	<path style="clip-path:url(#SVGID_00000021077703360619248750000005251940846601564566_);fill:#FFFFFF;" d="M34,37
		c0.2,0.2,0.4,0.3,0.6,0.5c1.5-2.1,3.4-3.2,5.6-1.2c0.3,0,0.6-0.1,1-0.1C42.2,36,36.5,31.5,34,37"/>
</g>
</svg>
