<?xml version="1.0" encoding="utf-8"?>
<!-- Generator: Adobe Illustrator 26.0.2, SVG Export Plug-In . SVG Version: 6.00 Build 0)  -->
<svg version="1.1" id="Ebene_1" xmlns="http://www.w3.org/2000/svg" xmlns:xlink="http://www.w3.org/1999/xlink" x="0px" y="0px"
	 viewBox="0 0 116.5 116.5" style="enable-background:new 0 0 116.5 116.5;" xml:space="preserve">
<style type="text/css">
	
		.st0{clip-path:url(#SVGID_00000021101686649768170120000006652447651008924826_);fill:none;stroke:#FFFFFF;stroke-width:2;stroke-miterlimit:10;}
	.st1{clip-path:url(#SVGID_00000021101686649768170120000006652447651008924826_);fill:#FFFFFF;}
</style>
<g>
	<defs>
		<rect id="SVGID_1_" width="116.5" height="116.5"/>
	</defs>
	<clipPath id="SVGID_00000049902630365783425130000002338826458453148308_">
		<use xlink:href="#SVGID_1_"  style="overflow:visible;"/>
	</clipPath>
	
		<path style="clip-path:url(#SVGID_00000049902630365783425130000002338826458453148308_);fill:none;stroke:#FFFFFF;stroke-width:2;stroke-miterlimit:10;" d="
		M18.7,1h79.2c9.7,0,17.7,8,17.7,17.7v79.2c0,9.7-8,17.7-17.7,17.7H18.7C9,115.5,1,107.6,1,97.8V18.7C1,9,9,1,18.7,1z"/>
	<path style="clip-path:url(#SVGID_00000049902630365783425130000002338826458453148308_);fill:#FFFFFF;" d="M95.9,38.5l-13.1,3.4
		l4.5-7.8l11.2-2.9c-0.4,2.5-1.2,5-2.4,7.3C96.1,38.5,96,38.5,95.9,38.5 M78,63.1h-1.6v-9.3c0.5,0,1.1-0.1,1.6-0.2V63.1z M82.1,21.8
		l3.1,11.1l-4.5,7.8l-3.7-13c0-0.1,0-0.1-0.1-0.2C78.4,25.3,80.1,23.4,82.1,21.8 M86.9,29.9l-2.6-9.2c0-0.1-0.1-0.3-0.2-0.4
		c3.1-2,6.7-3.3,10.5-3.8L86.9,29.9z M98.3,28.7L89,31.1l7.7-13.4c1.5,3.6,2.1,7.3,2,11C98.6,28.7,98.4,28.7,98.3,28.7 M74.8,31.8
		c0.2-0.4,0.3-0.9,0.5-1.3L78.5,42l0.3,1.2l0.1,0.4l-0.7,1.2L78,45.2L77,47l-0.6,1.1l-1,1.7l0,0.1l-0.2,0.3c0-0.1,0-0.1-0.1-0.2
		c-0.1-0.2-0.2-0.4-0.2-0.6c-0.4-1-0.7-2.1-1-3.2c-0.9-3.7-0.9-7.4-0.2-11c0.1-0.6,0.3-1.2,0.5-1.8C74.4,32.8,74.6,32.3,74.8,31.8
		 M67.1,54.3c0.5,0,1.1,0.1,1.6,0.1v8.7h-1.6V54.3z M71.2,51.9c-0.4,0-0.8,0.1-1.2,0.1c-0.4,0-0.8,0-1.2,0c-0.5,0-1.1,0-1.6-0.1
		c-0.4,0-0.8-0.1-1.2-0.1c-0.4,0-0.8-0.1-1.2-0.2c-0.9-0.2-1.9-0.4-2.8-0.7c-0.8-0.2-1.6-0.5-2.4-0.9c-2.5-1.1-4.7-2.6-6.7-4.5
		c-5.6-5.6-7.7-13.9-5.7-22.3c8.5-2,16.8,0.1,22.3,5.7c1,1,1.9,2.1,2.6,3.2c-1.1,3.3-1.5,6.8-1.2,10.3c0.1,0.8,0.2,1.6,0.3,2.3
		c0.1,0.3,0.1,0.7,0.2,1l-0.2-0.2L70,44.3l-1.1-1.2L67.6,42l-9.9-9.9c-0.5-0.5-1.2-0.5-1.7,0c-0.5,0.5-0.5,1.2,0,1.7l8.8,8.8
		l1.1,1.1l1.2,1.2l1.6,1.6l1.2,1.2l1.2,1.2l1.7,1.7c0.1,0.3,0.3,0.6,0.4,0.9C72.6,51.7,71.9,51.8,71.2,51.9 M85.7,48.8
		c-0.8,0.4-1.6,0.8-2.4,1.1c-0.9,0.3-1.8,0.6-2.8,0.9c-0.4,0.1-0.8,0.2-1.2,0.3c-0.4,0.1-0.8,0.2-1.2,0.2c-0.1,0-0.3,0-0.4,0.1
		c-0.1,0-0.2,0-0.3,0l0.4-0.7l0.3-0.5l1.2-2.1l1.2-2.1l0.6-1.1l2.2-0.6l2.4-0.6l8.6-2.2C92,44.5,89.1,47,85.7,48.8 M97.9,14.6
		c-0.2-0.4-0.7-0.7-1.1-0.7c-9.5,0.4-17.9,5.3-22.5,13.2c-0.4,0.7-0.8,1.5-1.1,2.2c-0.6-0.8-1.2-1.5-1.9-2.2
		c-6.3-6.3-15.8-8.6-25.4-6.1c-0.4,0.1-0.8,0.4-0.9,0.9c-2.5,9.6-0.2,19.1,6.1,25.4c2.4,2.4,5.3,4.2,8.4,5.4v11.9
		c0,5.4,2,9.4,5.8,11.5c1.5,0.9,2.5,2.5,2.5,4.3v20.5h2.4V80.4c0-2.7-1.4-5.1-3.8-6.4c-3-1.7-4.5-4.8-4.5-9.3V53.5
		c0.9,0.2,1.8,0.4,2.8,0.6v10.2c0,0.7,0.5,1.2,1.2,1.2H70c0.7,0,1.2-0.5,1.2-1.2v-10c0.9-0.1,1.8-0.2,2.8-0.4v10.4
		c0,0.7,0.5,1.2,1.2,1.2h4.1c0.7,0,1.2-0.5,1.2-1.2V53.2c0.9-0.2,1.9-0.5,2.8-0.8v12.2c0,4.6-1.5,7.7-4.5,9.3
		c-2.3,1.3-3.8,3.7-3.8,6.4v20.5h2.4V80.4c0-1.8,1-3.4,2.5-4.3c3.8-2.1,5.8-6.1,5.8-11.5V51.5c5-2.3,9.2-6,12-10.8
		C102.3,32.8,102.3,23,97.9,14.6"/>
	<path style="clip-path:url(#SVGID_00000049902630365783425130000002338826458453148308_);fill:#FFFFFF;" d="M32.4,62.7
		c-10.2,0-18.5,8.3-18.5,18.4c0,10.2,8.3,18.5,18.5,18.5s18.5-8.3,18.5-18.5C50.8,71,42.5,62.7,32.4,62.7 M32.4,102
		c-11.5,0-20.8-9.4-20.8-20.8c0-11.5,9.4-20.8,20.8-20.8c11.5,0,20.8,9.4,20.8,20.8C53.2,92.6,43.8,102,32.4,102"/>
	<path style="clip-path:url(#SVGID_00000049902630365783425130000002338826458453148308_);fill:#FFFFFF;" d="M32.4,67
		c-7.8,0-14.1,6.3-14.1,14.1s6.3,14.1,14.1,14.1c7.8,0,14.1-6.3,14.1-14.1S40.1,67,32.4,67 M32.4,97.6c-9.1,0-16.5-7.4-16.5-16.5
		c0-9.1,7.4-16.5,16.5-16.5S48.9,72,48.9,81.1C48.9,90.2,41.5,97.6,32.4,97.6"/>
	<path style="clip-path:url(#SVGID_00000049902630365783425130000002338826458453148308_);fill:#FFFFFF;" d="M22,81.1
		c0,0.8-0.6,1.4-1.4,1.4c-0.8,0-1.4-0.6-1.4-1.4s0.6-1.4,1.4-1.4C21.4,79.8,22,80.4,22,81.1"/>
	<path style="clip-path:url(#SVGID_00000049902630365783425130000002338826458453148308_);fill:#FFFFFF;" d="M45.4,81.1
		c0,0.8-0.6,1.4-1.4,1.4s-1.4-0.6-1.4-1.4s0.6-1.4,1.4-1.4S45.4,80.4,45.4,81.1"/>
	<path style="clip-path:url(#SVGID_00000049902630365783425130000002338826458453148308_);fill:#FFFFFF;" d="M32.4,91.5
		c0.8,0,1.4,0.6,1.4,1.4s-0.6,1.4-1.4,1.4c-0.8,0-1.4-0.6-1.4-1.4S31.6,91.5,32.4,91.5"/>
	<path style="clip-path:url(#SVGID_00000049902630365783425130000002338826458453148308_);fill:#FFFFFF;" d="M32.4,68
		c0.8,0,1.4,0.6,1.4,1.4s-0.6,1.4-1.4,1.4c-0.8,0-1.4-0.6-1.4-1.4S31.6,68,32.4,68"/>
	<path style="clip-path:url(#SVGID_00000049902630365783425130000002338826458453148308_);fill:#FFFFFF;" d="M39.9,82.3h-7.6
		c-0.7,0-1.2-0.5-1.2-1.2v-4.6c0-0.7,0.5-1.2,1.2-1.2c0.7,0,1.2,0.5,1.2,1.2v3.4h6.4c0.7,0,1.2,0.5,1.2,1.2
		C41.1,81.8,40.6,82.3,39.9,82.3"/>
</g>
</svg>
