<?xml version="1.0" encoding="utf-8"?>
<!-- Generator: Adobe Illustrator 26.0.2, SVG Export Plug-In . SVG Version: 6.00 Build 0)  -->
<svg version="1.1" id="Ebene_1" xmlns="http://www.w3.org/2000/svg" xmlns:xlink="http://www.w3.org/1999/xlink" x="0px" y="0px"
	 viewBox="0 0 69 69" style="enable-background:new 0 0 69 69;" xml:space="preserve">
<style type="text/css">
	.st0{clip-path:url(#SVGID_00000063610005461490130880000005441898129953218704_);fill:#44A9BB;}
	.st1{clip-path:url(#SVGID_00000063610005461490130880000005441898129953218704_);fill:none;stroke:#FFFFFF;}
	.st2{clip-path:url(#SVGID_00000063610005461490130880000005441898129953218704_);fill:#FFFFFF;}
</style>
<g>
	<defs>
		<rect id="SVGID_1_" width="69" height="69"/>
	</defs>
	<clipPath id="SVGID_00000065043035748713059070000004547553195365218188_">
		<use xlink:href="#SVGID_1_"  style="overflow:visible;"/>
	</clipPath>
	<path style="clip-path:url(#SVGID_00000065043035748713059070000004547553195365218188_);fill:#44A9BB;" d="M34.5,68.5
		c18.8,0,34-15.2,34-34s-15.2-34-34-34s-34,15.2-34,34S15.7,68.5,34.5,68.5"/>
	
		<circle style="clip-path:url(#SVGID_00000065043035748713059070000004547553195365218188_);fill:none;stroke:#FFFFFF;" cx="34.5" cy="34.5" r="34"/>
	<path style="clip-path:url(#SVGID_00000065043035748713059070000004547553195365218188_);fill:#FFFFFF;" d="M48.2,49.1
		c3.5,1.5,7.1-1.6,7.6-5.1C54,47.7,51.3,49,48.2,49.1 M44.6,47c0.1-2.4,0.3-4.3,1.1-5.7l-1.1-0.7C43.3,41.8,43.4,43.8,44.6,47
		 M52.1,38.5c0.8-0.2,2-1.1,2-1.1s-0.8-0.5-1.7-0.6c-0.4,0-0.8,0.1-1.1,0.3c0-0.4,0.1-0.8,0.4-1.3l-0.9-0.5
		c-0.4,0.7-0.6,1.2-0.6,1.8c-0.2-0.3-0.6-0.7-1-0.8c-0.8-0.1-2.3,0.1-2.3,0.1s0.5,0.8,1.2,1.3c0.3,0.2,0.7,0.3,1.1,0.2
		c0,0-0.1,0.1-0.1,0.1c-0.6,0.5-1.5,1.7-1.5,1.7s0.9,0.2,1.8,0c0.4-0.1,0.8-0.5,1.1-0.9c0,0.3,0.1,0.5,0.2,0.7
		c0.5,0.6,1.8,1.4,1.8,1.4s0.1-0.9-0.1-1.8C52.4,38.9,52.3,38.7,52.1,38.5 M54,38.3c1.9,1.2,3.1,3.2,3.1,5.5c0,3.7-3.3,6.7-7.3,6.7
		s-7.3-3-7.3-6.7c0-2.8,1.9-5.2,4.5-6.2c0.3,0.3,0.5,0.5,0.8,0.7c0,0,0,0,0,0c-0.3,0.3-0.6,0.7-0.8,1l-0.6,0.9l1.1,0.2
		c0.6,0.1,1.5,0.1,2.1,0c0.3-0.1,0.5-0.2,0.7-0.3c0.5,0.5,1.3,1.1,1.9,1.5l0.9,0.6l0.2-1.1c0.1-0.7,0-1.5-0.1-2.1
		c0-0.1,0-0.1-0.1-0.2C53.4,38.6,53.7,38.4,54,38.3"/>
	<path style="clip-path:url(#SVGID_00000065043035748713059070000004547553195365218188_);fill:#FFFFFF;" d="M40,21.3
		c2.1-0.8,7.9,1.9,8.5,5.2c-0.9,1.3-1.7,2.5-2.6,3.7c-0.1-0.1-0.2-0.2-0.3-0.3c-0.5-0.5-1.1-0.9-1.8-1.2c-0.3-0.1-0.7,0-0.8,0.3
		c-0.1,0.3,0,0.7,0.3,0.8c0.5,0.2,1,0.6,1.5,1c0.1,0.1,0.3,0.2,0.4,0.4c-0.5,0.7-1,1.3-1.4,1.9c-0.3-0.3-0.7-0.6-1.1-0.8
		c-0.3-0.2-0.7-0.1-0.9,0.2c-0.2,0.3-0.1,0.7,0.2,0.9c0.3,0.2,0.7,0.4,1,0.7c-0.8,1-1.5,1.9-2.3,2.7l0-0.1c-0.4-0.6-1-1.1-1.6-1.5
		c-0.3-0.2-0.7-0.1-0.9,0.2c-0.2,0.3-0.1,0.7,0.2,0.9c0.5,0.3,0.9,0.8,1.3,1.2c0.1,0.1,0.1,0.1,0.2,0.2c-2.5,2.6-4.8,4.3-7.1,4.8
		c-0.2-1.8,0.1-3.9,0.7-6.2c0.3,0.1,0.5,0.2,0.8,0.3c0.6,0.2,1.1,0.5,1.7,0.8c0.3,0.2,0.7,0.1,0.9-0.2c0.2-0.3,0.1-0.7-0.2-0.9
		c-0.6-0.4-1.2-0.7-1.9-0.9c-0.3-0.1-0.6-0.2-0.9-0.3c0.3-1,0.7-2.1,1.1-3.1l0,0c0.6,0.2,1.1,0.5,1.7,0.8c0.3,0.2,0.7,0.1,0.9-0.2
		c0.2-0.3,0.1-0.7-0.2-0.9c-0.6-0.4-1.2-0.7-1.9-0.9l0,0c0.5-1.3,1.2-2.7,1.9-4.1c0,0,0.1,0,0.1,0.1c0.6,0.2,1.1,0.5,1.7,0.8
		c0.3,0.2,0.7,0.1,0.9-0.2c0.2-0.3,0.1-0.7-0.2-0.9c-0.6-0.4-1.2-0.7-1.9-0.9l0,0c0.3-0.5,0.6-1.1,0.8-1.7c0.4,0.1,0.7,0.2,1.1,0.3
		c0.6,0.2,1.1,0.5,1.7,0.8c0.3,0.2,0.7,0.1,0.9-0.2c0.2-0.3,0.1-0.7-0.2-0.9c-0.6-0.4-1.2-0.7-1.9-0.9c-0.3-0.1-0.6-0.2-0.9-0.3
		C39.4,22.4,39.7,21.9,40,21.3"/>
	<path style="clip-path:url(#SVGID_00000065043035748713059070000004547553195365218188_);fill:#FFFFFF;" d="M47.8,19.8
		c0.6-0.8,1.4-1.5,2.4-2l-0.7-1.5c-1.6,0.8-2.5,2.2-3,3.8C46.3,20,46.1,20,46,19.9c0.6-1.4,0.9-2.9,0.2-4.4l-1.5,0.6
		c0.5,1.3,0.6,2.6,0.2,4c-0.3,0.1-0.5,0.3-0.7,0.6l-0.3,0.4c1,0.4,2,1,2.9,1.7l0.2-0.4c0.2-0.3,0.3-0.7,0.2-1c0.7-0.6,1.6-0.9,2.5-1
		l-0.1-1.3C49,19.2,48.3,19.4,47.8,19.8"/>
	<path style="clip-path:url(#SVGID_00000065043035748713059070000004547553195365218188_);fill:#FFFFFF;" d="M30.5,34l0.2-0.3
		c-5.2-4.6-12.1-7-19-4.2l0.1,0.4C18.2,27.9,25.3,30.2,30.5,34"/>
	<path style="clip-path:url(#SVGID_00000065043035748713059070000004547553195365218188_);fill:#FFFFFF;" d="M25.2,39.6
		c-4,2.8-8.7,0.8-12.1-2.4C16.7,39.4,20.5,41,25.2,39.6 M19.3,31l0.7,0.2c0.3,0.1,0.6,0.4,0.6,0.7c-0.1-0.2-0.3-0.4-0.6-0.4
		l-0.8-0.2c-0.3-0.1-0.5,0-0.7,0.1C18.6,31.1,19,30.9,19.3,31 M16.6,30.6l0.6,0.2c0.3,0.1,0.5,0.3,0.5,0.6c-0.1-0.2-0.3-0.3-0.5-0.4
		l-0.7-0.2c-0.2-0.1-0.4,0-0.6,0.1C16,30.6,16.3,30.5,16.6,30.6 M22.1,31.7l0.7,0.2c0.3,0.1,0.6,0.4,0.6,0.7
		c-0.1-0.2-0.3-0.4-0.6-0.4L22,32c-0.3-0.1-0.5,0-0.7,0.1C21.4,31.8,21.8,31.7,22.1,31.7 M24.9,32.7l0.7,0.2
		c0.3,0.1,0.5,0.3,0.5,0.6c-0.1-0.2-0.3-0.3-0.5-0.4l-0.8-0.2c-0.2-0.1-0.5,0-0.7,0.1C24.2,32.7,24.5,32.6,24.9,32.7 M27.4,33.8
		L28,34c0.3,0.1,0.5,0.3,0.5,0.6c-0.1-0.2-0.3-0.3-0.5-0.4L27.3,34c-0.2-0.1-0.5,0-0.6,0.1C26.8,33.9,27.1,33.7,27.4,33.8
		 M28.8,34.8c0.1-0.4-0.1-0.9-0.5-1l-0.7-0.2c-0.4-0.1-0.9,0.1-1,0.5l-0.1,0.4c0,0,0,0,0,0.1c-0.2,0-0.3-0.1-0.5-0.1
		c0.1-0.1,0.2-0.2,0.2-0.3l0.1-0.4c0.1-0.4-0.1-0.9-0.5-1L25,32.4c-0.4-0.1-0.9,0.1-1,0.5l-0.1,0.4c-0.1,0.2,0,0.5,0.1,0.7
		c-0.4-0.1-0.7-0.1-1.1-0.2c0.3-0.1,0.6-0.3,0.7-0.6l0.1-0.5c0.1-0.5-0.2-1-0.6-1.1l-0.8-0.2c-0.5-0.1-1,0.2-1.1,0.6l-0.1,0.5
		c-0.1,0.4,0.1,0.7,0.4,0.9c-0.4-0.1-0.8-0.2-1.2-0.3c0.3-0.1,0.6-0.3,0.7-0.6l0.1-0.5c0.1-0.5-0.2-1-0.7-1.1l-0.8-0.2
		c-0.5-0.1-1,0.2-1.1,0.7l-0.1,0.5c-0.1,0.3,0,0.6,0.3,0.9c-0.4-0.1-0.8-0.2-1.1-0.3c0.3-0.1,0.5-0.3,0.6-0.6l0.1-0.5
		c0.1-0.4-0.2-0.9-0.6-1l-0.8-0.2c-0.4-0.1-0.9,0.2-1,0.6l-0.1,0.4c-0.1,0.2,0,0.5,0.2,0.7c-0.2-0.1-0.4-0.1-0.6-0.2c0,0,0,0,0,0
		l0-0.5c0-0.5-0.3-0.8-0.8-0.9l-0.8-0.1c-0.4,0-0.8,0.3-0.9,0.7c-0.2-0.1-0.4-0.1-0.5-0.2c-0.4-0.4-0.6-0.6-0.7-0.8
		c-0.7-0.8-2.7-1.6-2.7-1.6l-0.3,0.2c0,0,0.1,0,0.4,1.1c0.3,1.1-0.8,5.8,6.7,10.1c7.5,4.3,11.2-1,11.2-1l0-0.4
		c-1.1,0.3-3.1,0.5-6.5-1.1c-1.5-0.7-3.3-2.1-4.9-3.4c4.3,1.7,10.8,2.7,12.2,2.6c2.2-0.2,3.3-1.4,3.3-1.4s-0.8-0.1-2.2-0.3
		L28.8,34.8z"/>
</g>
</svg>
