<?xml version="1.0" encoding="utf-8"?>
<!-- Generator: Adobe Illustrator 26.0.2, SVG Export Plug-In . SVG Version: 6.00 Build 0)  -->
<svg version="1.1" id="Ebene_1" xmlns="http://www.w3.org/2000/svg" xmlns:xlink="http://www.w3.org/1999/xlink" x="0px" y="0px"
	 viewBox="0 0 69 69" style="enable-background:new 0 0 69 69;" xml:space="preserve">
<style type="text/css">
	.st0{clip-path:url(#SVGID_00000180331340392801492440000006550138484596286856_);fill:#E60001;}
	.st1{clip-path:url(#SVGID_00000180331340392801492440000006550138484596286856_);fill:none;stroke:#FFFFFF;}
	.st2{clip-path:url(#SVGID_00000180331340392801492440000006550138484596286856_);fill:#FFFFFF;}
</style>
<g>
	<defs>
		<rect id="SVGID_1_" width="69" height="69"/>
	</defs>
	<clipPath id="SVGID_00000014622826754680670000000002236415553167494586_">
		<use xlink:href="#SVGID_1_"  style="overflow:visible;"/>
	</clipPath>
	<path style="clip-path:url(#SVGID_00000014622826754680670000000002236415553167494586_);fill:#E60001;" d="M34.5,68.5
		c18.8,0,34-15.2,34-34s-15.2-34-34-34s-34,15.2-34,34S15.7,68.5,34.5,68.5"/>
	
		<circle style="clip-path:url(#SVGID_00000014622826754680670000000002236415553167494586_);fill:none;stroke:#FFFFFF;" cx="34.5" cy="34.5" r="34"/>
	<path style="clip-path:url(#SVGID_00000014622826754680670000000002236415553167494586_);fill:#FFFFFF;" d="M23.1,29.7
		c1.1-1.3,2.4-2.2,3.9-2.8c1.5-0.6,3.2-0.9,5.2-0.7c0.5,0,0.8-0.3,0.9-0.8c0-0.5-0.3-0.8-0.8-0.9c-2.2-0.2-4.2,0.1-5.9,0.9
		c-1.7,0.7-3.2,1.8-4.5,3.2c-0.3,0.3-0.3,0.9,0.1,1.2C22.2,30.1,22.7,30.1,23.1,29.7 M10.5,38.9h44.8c-1.7,3-3.9,5.2-6.7,6.7H16.9
		C14.3,44.3,12.2,42.3,10.5,38.9 M17.4,46.2H48v1.2H17.4V46.2z M32.8,22.3c1.6,0,3.1,0.2,4.5,0.5c-3.8,2.5-3.5,6.3-2,9.6l0,0l0,0
		l0,0l0,0l0,0l0,0l0,0l0,0l0,0l0,0l0,0l0,0l0,0l0,0l0,0l0,0l0,0l0,0l0,0l0,0l0,0l0,0l0,0l0,0l0,0l0,0l0,0l0,0l0,0l0,0l0,0l0,0l0,0
		l0,0v0l0,0l0,0l0,0l0,0l0,0l0,0l0,0l0,0l0,0l0,0l0,0l0,0l0,0l0.1,0.1l0,0l0,0l0,0l0.1,0.1l-0.1-0.2l0,0l-0.1-0.1l0,0l0,0v0
		l-0.1-0.2l0,0l0,0l-0.1-0.2l0,0l0,0l0-0.1l0,0l0,0l0-0.1l0,0v0l0-0.2l0,0l0,0l0-0.1l0,0l0,0l0-0.1l0,0l0,0l0,0l0,0l0,0l0,0l0,0
		l0-0.1l0-0.1l0,0l0,0l0,0l0,0l0,0l0-0.1l0-0.1l0-0.1l0-0.1l0-0.1l0-0.1l0-0.1l0-0.1l0,0v0c-0.4-3.3,0.7-6.4,4.3-7.5
		c4-0.4,9.6,2.4,12.5,1.3l0-0.1c0,0,0.1-3.4,1.8-3.8c1.7-0.5,1.3,3.2,1.3,3.2s3.8,2,2.2,3.5c-1.4,1.3-4-0.1-4.5-0.4
		c-3.4,2.3-9.9,8.9-13.8,8.1c3.5,1.3,6.2-0.6,9.3-2.5c0.2,0.8,0.3,1.6,0.3,2.4c0,0.9-0.1,1.7-0.3,2.6h-31c-2.1-0.6-3.2-3.3-2.4-5.5
		l2.4,0.8C18.5,26.9,25,22.3,32.8,22.3"/>
</g>
</svg>
