<?xml version="1.0" encoding="utf-8"?>
<!-- Generator: Adobe Illustrator 26.0.2, SVG Export Plug-In . SVG Version: 6.00 Build 0)  -->
<svg version="1.1" id="Ebene_1" xmlns="http://www.w3.org/2000/svg" xmlns:xlink="http://www.w3.org/1999/xlink" x="0px" y="0px"
	 viewBox="0 0 116.5 116.5" style="enable-background:new 0 0 116.5 116.5;" xml:space="preserve">
<style type="text/css">
	
		.st0{clip-path:url(#SVGID_00000084504036379805895880000000419937341506607261_);fill:none;stroke:#FFFFFF;stroke-width:2;stroke-miterlimit:10;}
	.st1{clip-path:url(#SVGID_00000084504036379805895880000000419937341506607261_);fill:#FFFFFF;}
	
		.st2{clip-path:url(#SVGID_00000084504036379805895880000000419937341506607261_);fill:none;stroke:#FFFFFF;stroke-width:0.5;stroke-miterlimit:10;}
</style>
<g>
	<defs>
		<rect id="SVGID_1_" width="116.5" height="116.5"/>
	</defs>
	<clipPath id="SVGID_00000055668464746434602960000008658476841529325481_">
		<use xlink:href="#SVGID_1_"  style="overflow:visible;"/>
	</clipPath>
	
		<path style="clip-path:url(#SVGID_00000055668464746434602960000008658476841529325481_);fill:none;stroke:#FFFFFF;stroke-width:2;stroke-miterlimit:10;" d="
		M18.7,1h79.2c9.7,0,17.7,8,17.7,17.7v79.2c0,9.7-8,17.7-17.7,17.7H18.7C9,115.5,1,107.6,1,97.8V18.7C1,9,9,1,18.7,1z"/>
	<path style="clip-path:url(#SVGID_00000055668464746434602960000008658476841529325481_);fill:#FFFFFF;" d="M65.8,86
		c-7.4,0-14.4-2.8-19.8-7.9c-0.4-0.4-0.5-1.1,0-1.5c0.4-0.4,1.1-0.5,1.5,0c5,4.7,11.5,7.3,18.3,7.3c14.8,0,26.8-12,26.8-26.8
		c0-14.8-12-26.8-26.8-26.8c-8.1,0-15.6,3.6-20.7,9.9c-0.4,0.5-1,0.5-1.5,0.2c-0.5-0.4-0.5-1-0.2-1.5c5.5-6.8,13.7-10.6,22.4-10.6
		c15.9,0,28.9,13,28.9,28.9C94.7,73,81.8,86,65.8,86"/>
	
		<path style="clip-path:url(#SVGID_00000055668464746434602960000008658476841529325481_);fill:none;stroke:#FFFFFF;stroke-width:0.5;stroke-miterlimit:10;" d="
		M65.8,86c-7.4,0-14.4-2.8-19.8-7.9c-0.4-0.4-0.5-1.1,0-1.5c0.4-0.4,1.1-0.5,1.5,0c5,4.7,11.5,7.3,18.3,7.3
		c14.8,0,26.8-12,26.8-26.8c0-14.8-12-26.8-26.8-26.8c-8.1,0-15.6,3.6-20.7,9.9c-0.4,0.5-1,0.5-1.5,0.2c-0.5-0.4-0.5-1-0.2-1.5
		c5.5-6.8,13.7-10.6,22.4-10.6c15.9,0,28.9,13,28.9,28.9C94.7,73,81.8,86,65.8,86z"/>
	<path style="clip-path:url(#SVGID_00000055668464746434602960000008658476841529325481_);fill:#FFFFFF;" d="M46.7,57.1
		c0,1.4-1.1,2.5-2.5,2.5c-1.4,0-2.5-1.1-2.5-2.5c0-1.4,1.1-2.5,2.5-2.5C45.6,54.6,46.7,55.7,46.7,57.1"/>
	
		<circle style="clip-path:url(#SVGID_00000055668464746434602960000008658476841529325481_);fill:none;stroke:#FFFFFF;stroke-width:0.5;stroke-miterlimit:10;" cx="44.2" cy="57.1" r="2.5"/>
	<path style="clip-path:url(#SVGID_00000055668464746434602960000008658476841529325481_);fill:#FFFFFF;" d="M89.9,57.1
		c0,1.4-1.1,2.5-2.5,2.5c-1.4,0-2.5-1.1-2.5-2.5c0-1.4,1.1-2.5,2.5-2.5C88.8,54.6,89.9,55.7,89.9,57.1"/>
	
		<circle style="clip-path:url(#SVGID_00000055668464746434602960000008658476841529325481_);fill:none;stroke:#FFFFFF;stroke-width:0.5;stroke-miterlimit:10;" cx="87.4" cy="57.1" r="2.5"/>
	<path style="clip-path:url(#SVGID_00000055668464746434602960000008658476841529325481_);fill:#FFFFFF;" d="M65.8,76.2
		c1.4,0,2.5,1.1,2.5,2.5c0,1.4-1.1,2.5-2.5,2.5c-1.4,0-2.5-1.1-2.5-2.5C63.3,77.3,64.4,76.2,65.8,76.2"/>
	
		<circle style="clip-path:url(#SVGID_00000055668464746434602960000008658476841529325481_);fill:none;stroke:#FFFFFF;stroke-width:0.5;stroke-miterlimit:10;" cx="65.8" cy="78.7" r="2.5"/>
	<path style="clip-path:url(#SVGID_00000055668464746434602960000008658476841529325481_);fill:#FFFFFF;" d="M65.8,33
		c1.4,0,2.5,1.1,2.5,2.5c0,1.4-1.1,2.5-2.5,2.5c-1.4,0-2.5-1.1-2.5-2.5C63.3,34.1,64.4,33,65.8,33"/>
	
		<circle style="clip-path:url(#SVGID_00000055668464746434602960000008658476841529325481_);fill:none;stroke:#FFFFFF;stroke-width:0.5;stroke-miterlimit:10;" cx="65.8" cy="35.5" r="2.5"/>
	<path style="clip-path:url(#SVGID_00000055668464746434602960000008658476841529325481_);fill:#FFFFFF;" d="M79.7,58.2H65.8
		c-0.6,0-1.1-0.5-1.1-1.1v-8.5c0-0.6,0.5-1.1,1.1-1.1c0.6,0,1.1,0.5,1.1,1.1V56h12.8c0.6,0,1.1,0.5,1.1,1.1
		C80.8,57.7,80.3,58.2,79.7,58.2"/>
	
		<path style="clip-path:url(#SVGID_00000055668464746434602960000008658476841529325481_);fill:none;stroke:#FFFFFF;stroke-width:0.5;stroke-miterlimit:10;" d="
		M79.7,58.2H65.8c-0.6,0-1.1-0.5-1.1-1.1v-8.5c0-0.6,0.5-1.1,1.1-1.1c0.6,0,1.1,0.5,1.1,1.1V56h12.8c0.6,0,1.1,0.5,1.1,1.1
		C80.8,57.7,80.3,58.2,79.7,58.2z"/>
	<path style="clip-path:url(#SVGID_00000055668464746434602960000008658476841529325481_);fill:#FFFFFF;" d="M46.7,46.8h-2.1
		c-0.6,0-1.1-0.5-1.1-1.1c0-0.6,0.5-1.1,1.1-1.1h2.1c0.6,0,1.1,0.5,1.1,1.1C47.8,46.4,47.3,46.8,46.7,46.8"/>
	
		<path style="clip-path:url(#SVGID_00000055668464746434602960000008658476841529325481_);fill:none;stroke:#FFFFFF;stroke-width:0.5;stroke-miterlimit:10;" d="
		M46.7,46.8h-2.1c-0.6,0-1.1-0.5-1.1-1.1c0-0.6,0.5-1.1,1.1-1.1h2.1c0.6,0,1.1,0.5,1.1,1.1C47.8,46.4,47.3,46.8,46.7,46.8z"/>
	<path style="clip-path:url(#SVGID_00000055668464746434602960000008658476841529325481_);fill:#FFFFFF;" d="M32,46.8h-4.2
		c-0.6,0-1.1-0.5-1.1-1.1c0-0.6,0.5-1.1,1.1-1.1H32c0.6,0,1.1,0.5,1.1,1.1C33,46.4,32.6,46.8,32,46.8 M40.4,46.8h-4.2
		c-0.6,0-1.1-0.5-1.1-1.1c0-0.6,0.5-1.1,1.1-1.1h4.2c0.6,0,1.1,0.5,1.1,1.1C41.5,46.4,41,46.8,40.4,46.8"/>
	
		<path style="clip-path:url(#SVGID_00000055668464746434602960000008658476841529325481_);fill:none;stroke:#FFFFFF;stroke-width:0.5;stroke-miterlimit:10;" d="
		M32,46.8h-4.2c-0.6,0-1.1-0.5-1.1-1.1c0-0.6,0.5-1.1,1.1-1.1H32c0.6,0,1.1,0.5,1.1,1.1C33,46.4,32.6,46.8,32,46.8z M40.4,46.8h-4.2
		c-0.6,0-1.1-0.5-1.1-1.1c0-0.6,0.5-1.1,1.1-1.1h4.2c0.6,0,1.1,0.5,1.1,1.1C41.5,46.4,41,46.8,40.4,46.8z"/>
	<path style="clip-path:url(#SVGID_00000055668464746434602960000008658476841529325481_);fill:#FFFFFF;" d="M23.6,46.8h-2.1
		c-0.6,0-1.1-0.5-1.1-1.1c0-0.6,0.5-1.1,1.1-1.1h2.1c0.6,0,1.1,0.5,1.1,1.1C24.6,46.4,24.1,46.8,23.6,46.8"/>
	
		<path style="clip-path:url(#SVGID_00000055668464746434602960000008658476841529325481_);fill:none;stroke:#FFFFFF;stroke-width:0.5;stroke-miterlimit:10;" d="
		M23.6,46.8h-2.1c-0.6,0-1.1-0.5-1.1-1.1c0-0.6,0.5-1.1,1.1-1.1h2.1c0.6,0,1.1,0.5,1.1,1.1C24.6,46.4,24.1,46.8,23.6,46.8z"/>
	<path style="clip-path:url(#SVGID_00000055668464746434602960000008658476841529325481_);fill:#FFFFFF;" d="M38.1,58.2h-2.1
		c-0.6,0-1.1-0.5-1.1-1.1c0-0.6,0.5-1.1,1.1-1.1h2.1c0.6,0,1.1,0.5,1.1,1.1C39.1,57.7,38.6,58.2,38.1,58.2"/>
	
		<path style="clip-path:url(#SVGID_00000055668464746434602960000008658476841529325481_);fill:none;stroke:#FFFFFF;stroke-width:0.5;stroke-miterlimit:10;" d="
		M38.1,58.2h-2.1c-0.6,0-1.1-0.5-1.1-1.1c0-0.6,0.5-1.1,1.1-1.1h2.1c0.6,0,1.1,0.5,1.1,1.1C39.1,57.7,38.6,58.2,38.1,58.2z"/>
	<path style="clip-path:url(#SVGID_00000055668464746434602960000008658476841529325481_);fill:#FFFFFF;" d="M23.3,58.2h-4.2
		c-0.6,0-1.1-0.5-1.1-1.1c0-0.6,0.5-1.1,1.1-1.1h4.2c0.6,0,1.1,0.5,1.1,1.1C24.3,57.7,23.9,58.2,23.3,58.2 M31.7,58.2h-4.2
		c-0.6,0-1.1-0.5-1.1-1.1c0-0.6,0.5-1.1,1.1-1.1h4.2c0.6,0,1.1,0.5,1.1,1.1C32.8,57.7,32.3,58.2,31.7,58.2"/>
	
		<path style="clip-path:url(#SVGID_00000055668464746434602960000008658476841529325481_);fill:none;stroke:#FFFFFF;stroke-width:0.5;stroke-miterlimit:10;" d="
		M23.3,58.2h-4.2c-0.6,0-1.1-0.5-1.1-1.1c0-0.6,0.5-1.1,1.1-1.1h4.2c0.6,0,1.1,0.5,1.1,1.1C24.3,57.7,23.9,58.2,23.3,58.2z
		 M31.7,58.2h-4.2c-0.6,0-1.1-0.5-1.1-1.1c0-0.6,0.5-1.1,1.1-1.1h4.2c0.6,0,1.1,0.5,1.1,1.1C32.8,57.7,32.3,58.2,31.7,58.2z"/>
	<path style="clip-path:url(#SVGID_00000055668464746434602960000008658476841529325481_);fill:#FFFFFF;" d="M14.9,58.2h-2.1
		c-0.6,0-1.1-0.5-1.1-1.1c0-0.6,0.5-1.1,1.1-1.1h2.1c0.6,0,1.1,0.5,1.1,1.1C15.9,57.7,15.4,58.2,14.9,58.2"/>
	
		<path style="clip-path:url(#SVGID_00000055668464746434602960000008658476841529325481_);fill:none;stroke:#FFFFFF;stroke-width:0.5;stroke-miterlimit:10;" d="
		M14.9,58.2h-2.1c-0.6,0-1.1-0.5-1.1-1.1c0-0.6,0.5-1.1,1.1-1.1h2.1c0.6,0,1.1,0.5,1.1,1.1C15.9,57.7,15.4,58.2,14.9,58.2z"/>
	<path style="clip-path:url(#SVGID_00000055668464746434602960000008658476841529325481_);fill:#FFFFFF;" d="M46.7,69.5h-2.1
		c-0.6,0-1.1-0.5-1.1-1.1c0-0.6,0.5-1.1,1.1-1.1h2.1c0.6,0,1.1,0.5,1.1,1.1C47.8,69,47.3,69.5,46.7,69.5"/>
	
		<path style="clip-path:url(#SVGID_00000055668464746434602960000008658476841529325481_);fill:none;stroke:#FFFFFF;stroke-width:0.5;stroke-miterlimit:10;" d="
		M46.7,69.5h-2.1c-0.6,0-1.1-0.5-1.1-1.1c0-0.6,0.5-1.1,1.1-1.1h2.1c0.6,0,1.1,0.5,1.1,1.1C47.8,69,47.3,69.5,46.7,69.5z"/>
	<path style="clip-path:url(#SVGID_00000055668464746434602960000008658476841529325481_);fill:#FFFFFF;" d="M32,69.5h-4.2
		c-0.6,0-1.1-0.5-1.1-1.1c0-0.6,0.5-1.1,1.1-1.1H32c0.6,0,1.1,0.5,1.1,1.1C33,69,32.6,69.5,32,69.5 M40.4,69.5h-4.2
		c-0.6,0-1.1-0.5-1.1-1.1c0-0.6,0.5-1.1,1.1-1.1h4.2c0.6,0,1.1,0.5,1.1,1.1C41.5,69,41,69.5,40.4,69.5"/>
	
		<path style="clip-path:url(#SVGID_00000055668464746434602960000008658476841529325481_);fill:none;stroke:#FFFFFF;stroke-width:0.5;stroke-miterlimit:10;" d="
		M32,69.5h-4.2c-0.6,0-1.1-0.5-1.1-1.1c0-0.6,0.5-1.1,1.1-1.1H32c0.6,0,1.1,0.5,1.1,1.1C33,69,32.6,69.5,32,69.5z M40.4,69.5h-4.2
		c-0.6,0-1.1-0.5-1.1-1.1c0-0.6,0.5-1.1,1.1-1.1h4.2c0.6,0,1.1,0.5,1.1,1.1C41.5,69,41,69.5,40.4,69.5z"/>
	<path style="clip-path:url(#SVGID_00000055668464746434602960000008658476841529325481_);fill:#FFFFFF;" d="M23.6,69.5h-2.1
		c-0.6,0-1.1-0.5-1.1-1.1c0-0.6,0.5-1.1,1.1-1.1h2.1c0.6,0,1.1,0.5,1.1,1.1C24.6,69,24.1,69.5,23.6,69.5"/>
	
		<path style="clip-path:url(#SVGID_00000055668464746434602960000008658476841529325481_);fill:none;stroke:#FFFFFF;stroke-width:0.5;stroke-miterlimit:10;" d="
		M23.6,69.5h-2.1c-0.6,0-1.1-0.5-1.1-1.1c0-0.6,0.5-1.1,1.1-1.1h2.1c0.6,0,1.1,0.5,1.1,1.1C24.6,69,24.1,69.5,23.6,69.5z"/>
</g>
</svg>
