<?xml version="1.0" encoding="utf-8"?>
<!-- Generator: Adobe Illustrator 26.0.2, SVG Export Plug-In . SVG Version: 6.00 Build 0)  -->
<svg version="1.1" id="Ebene_1" xmlns="http://www.w3.org/2000/svg" xmlns:xlink="http://www.w3.org/1999/xlink" x="0px" y="0px"
	 viewBox="0 0 69 69" style="enable-background:new 0 0 69 69;" xml:space="preserve">
<style type="text/css">
	.st0{clip-path:url(#SVGID_00000165955326074380069460000003677370002523057597_);fill:#E4025D;}
	.st1{clip-path:url(#SVGID_00000165955326074380069460000003677370002523057597_);fill:none;stroke:#FFFFFF;}
	.st2{clip-path:url(#SVGID_00000165955326074380069460000003677370002523057597_);fill:#FFFFFF;}
	.st3{fill:#FFFFFF;}
	.st4{clip-path:url(#SVGID_00000042711347873483730390000016899848250684155043_);fill:#FFFFFF;}
</style>
<g>
	<defs>
		<rect id="SVGID_1_" width="69" height="69"/>
	</defs>
	<clipPath id="SVGID_00000011024585497012332860000011943230025881699510_">
		<use xlink:href="#SVGID_1_"  style="overflow:visible;"/>
	</clipPath>
	<path style="clip-path:url(#SVGID_00000011024585497012332860000011943230025881699510_);fill:#E4025D;" d="M34.5,68.5
		c18.8,0,34-15.2,34-34s-15.2-34-34-34s-34,15.2-34,34S15.7,68.5,34.5,68.5"/>
	
		<circle style="clip-path:url(#SVGID_00000011024585497012332860000011943230025881699510_);fill:none;stroke:#FFFFFF;" cx="34.5" cy="34.5" r="34"/>
	<path style="clip-path:url(#SVGID_00000011024585497012332860000011943230025881699510_);fill:#FFFFFF;" d="M20.6,32.2l3-3.3
		L23,28.4l-2.1,2.2l1.1-2.5l-0.8-0.3l-1,2.1l0-2.8l-0.8,0l0,4l-2-3.2l-0.7,0.4l2.4,3.8c-1.2,0.2-2.2,0.9-2.6,2h6.1
		C22.2,33.2,21.5,32.5,20.6,32.2"/>
</g>
<polygon class="st3" points="53.6,32.3 52,34.1 55.6,34.1 "/>
<g>
	<defs>
		<rect id="SVGID_00000085209622989610682360000005041010183636175792_" width="69" height="69"/>
	</defs>
	<clipPath id="SVGID_00000024689583944362581520000007921539045906698167_">
		<use xlink:href="#SVGID_00000085209622989610682360000005041010183636175792_"  style="overflow:visible;"/>
	</clipPath>
	<path style="clip-path:url(#SVGID_00000024689583944362581520000007921539045906698167_);fill:#FFFFFF;" d="M49.2,27
		c-0.7-0.5-1.5-0.8-2.4-0.8c-1.9,0-3.9,1.1-5.4,3.1c-0.5,0.7-0.9,1.5-1.1,2.2c-0.6-0.5-1.4-0.7-2.2-0.7c-1.8,0-3.4,1.4-3.7,3.2H40
		h1.9H43c0-0.1,0-0.2,0-0.3c0-0.9,0.3-1.9,0.9-2.7c0.9-1.3,2.1-1.8,2.9-1.8c0.3,0,0.5,0.1,0.7,0.2c0.7,0.5,0.7,2.4-0.4,4
		c-0.2,0.3-0.4,0.5-0.6,0.7h3.7C51.5,31.4,51.2,28.4,49.2,27"/>
	<path style="clip-path:url(#SVGID_00000024689583944362581520000007921539045906698167_);fill:#FFFFFF;" d="M26.3,28.7
		c-0.8,0-1.5,0.2-2.1,0.7c-1.3,1-1.8,2.8-1.3,4.7h3.2C25.5,33,25.6,32,26,31.7c0.1-0.1,0.2-0.1,0.4-0.1c0.6,0,1.5,0.4,2.3,1.4
		c0.3,0.4,0.4,0.7,0.6,1h3.1c-0.2-0.9-0.6-1.9-1.2-2.8C29.7,29.6,27.9,28.7,26.3,28.7"/>
	<path style="clip-path:url(#SVGID_00000024689583944362581520000007921539045906698167_);fill:#FFFFFF;" d="M26.4,20
		c0.7,0.5,1,0.7,1,1.2c0,0.6-0.3,0.9-0.9,1.4c-0.7,0.6-1.6,1.4-1.6,2.9l1.6-0.1c0-0.6,0.3-1,1-1.5c0.7-0.6,1.6-1.3,1.5-2.7
		c-0.1-1.4-1-2-1.7-2.5c-0.7-0.5-1.2-0.8-1.2-1.6c0-0.8,0.3-1.1,0.9-1.6c0.6-0.5,1.5-1.3,1.4-2.7l-1.6,0.1c0,0.6-0.3,0.9-0.8,1.4
		c-0.7,0.6-1.6,1.4-1.5,3C24.6,18.7,25.7,19.4,26.4,20"/>
	<path style="clip-path:url(#SVGID_00000024689583944362581520000007921539045906698167_);fill:#FFFFFF;" d="M34.5,20.5
		c0.7,0.5,1,0.7,1,1.2c0,0.6-0.3,0.9-0.9,1.4c-0.7,0.6-1.6,1.4-1.6,2.9l1.6-0.1c0-0.6,0.3-1,1-1.5c0.7-0.6,1.6-1.3,1.5-2.7
		c-0.1-1.4-1-2-1.7-2.5c-0.7-0.5-1.2-0.8-1.2-1.6c0-0.8,0.3-1.1,0.9-1.6c0.6-0.5,1.5-1.3,1.4-2.7l-1.6,0.1c0,0.6-0.2,0.9-0.8,1.4
		c-0.7,0.6-1.6,1.4-1.5,3C32.7,19.2,33.8,20,34.5,20.5"/>
	<path style="clip-path:url(#SVGID_00000024689583944362581520000007921539045906698167_);fill:#FFFFFF;" d="M43,20.3
		c0.7,0.5,1,0.7,1,1.2c0,0.6-0.3,0.9-0.9,1.4c-0.7,0.6-1.6,1.4-1.6,2.9l1.6-0.1c0-0.6,0.3-1,1-1.5c0.7-0.6,1.6-1.3,1.5-2.7
		c-0.1-1.4-1-2-1.7-2.5c-0.7-0.5-1.2-0.8-1.2-1.6c0-0.8,0.3-1.1,0.9-1.6c0.6-0.5,1.5-1.3,1.4-2.7l-1.6,0.1c0,0.6-0.3,0.9-0.8,1.4
		c-0.7,0.6-1.6,1.4-1.5,3C41.2,19,42.2,19.7,43,20.3"/>
	<path style="clip-path:url(#SVGID_00000024689583944362581520000007921539045906698167_);fill:#FFFFFF;" d="M19.1,36.5
		c0,0,1.7,0.3,4.3,0.2c0.9,4.4,5.9,7,5.9,7C20.7,41,19.1,36.5,19.1,36.5 M56.4,34.1H13.4c3.4,5.8,8.9,10.2,15.4,11.9
		c-1,1-1.8,2.3-2.4,3.8h16.9C42.7,48.3,41.9,47,41,46C47.5,44.3,53,39.9,56.4,34.1"/>
</g>
</svg>
