<?xml version="1.0" encoding="utf-8"?>
<!-- Generator: Adobe Illustrator 26.0.2, SVG Export Plug-In . SVG Version: 6.00 Build 0)  -->
<svg version="1.1" id="Ebene_1" xmlns="http://www.w3.org/2000/svg" xmlns:xlink="http://www.w3.org/1999/xlink" x="0px" y="0px"
	 viewBox="0 0 69 69" style="enable-background:new 0 0 69 69;" xml:space="preserve">
<style type="text/css">
	.st0{clip-path:url(#SVGID_00000149347178095522002090000014040212506734219689_);fill:#92CC18;}
	.st1{clip-path:url(#SVGID_00000149347178095522002090000014040212506734219689_);fill:none;stroke:#FFFFFF;}
	.st2{clip-path:url(#SVGID_00000149347178095522002090000014040212506734219689_);fill:#FFFFFF;}
</style>
<g>
	<defs>
		<rect id="SVGID_1_" width="69" height="69"/>
	</defs>
	<clipPath id="SVGID_00000054251160831840483820000012645987028530237346_">
		<use xlink:href="#SVGID_1_"  style="overflow:visible;"/>
	</clipPath>
	<path style="clip-path:url(#SVGID_00000054251160831840483820000012645987028530237346_);fill:#92CC18;" d="M34.5,68.5
		c18.8,0,34-15.2,34-34s-15.2-34-34-34s-34,15.2-34,34S15.7,68.5,34.5,68.5"/>
	
		<circle style="clip-path:url(#SVGID_00000054251160831840483820000012645987028530237346_);fill:none;stroke:#FFFFFF;" cx="34.5" cy="34.5" r="34"/>
	<path style="clip-path:url(#SVGID_00000054251160831840483820000012645987028530237346_);fill:#FFFFFF;" d="M41,23
		c0.6,0,1.3,0,1.9,0.1c-0.4-0.6-0.9-1.1-1.5-1.6c-1.3-1-2.9-1.7-4.7-2.1c0.9,0.3,1.7,0.7,2.4,1.2C39.9,21.3,40.6,22.1,41,23
		 M30,23.7c1,0.6,1.9,1.2,2.7,1.9c0.8-0.6,1.7-1.2,2.6-1.6c-0.1-0.2-0.3-0.3-0.5-0.5c-0.5-0.3-1.1-0.6-1.7-0.7
		c-0.7-0.1-1.4,0-2.1,0.2C30.7,23.3,30.3,23.5,30,23.7 M27.1,22.5c0.5,0.1,0.9,0.3,1.4,0.5c0.6-0.6,1.3-1,2-1.3
		c0.9-0.3,1.9-0.4,2.8-0.3c0.9,0.1,1.8,0.5,2.5,1c0.4,0.3,0.8,0.7,1,1.2c0.5-0.1,1-0.3,1.5-0.3c0.3,0,0.6-0.1,0.8-0.1
		c-0.3-0.4-0.7-0.8-1.1-1.2c-1-0.8-2.3-1.3-3.8-1.4c-1.5-0.2-3-0.1-4.5,0.5C28.8,21.2,27.9,21.8,27.1,22.5 M51.4,32.2h2
		c-0.4-1.2-1-2.2-1.8-3.2c-1.5-1.7-3.5-3-5.8-3.7c-2.3-0.8-4.8-1-7.1-0.6c-1.8,0.3-3.4,0.9-4.8,2c0.3,0.3,0.5,0.5,0.8,0.8
		c1.2-1,2.7-1.6,4.3-1.9c1.9-0.3,4-0.1,5.9,0.5c1.9,0.6,3.6,1.7,4.9,3.2C50.5,30.2,51,31.2,51.4,32.2 M46.8,32.2h2.8
		c-0.3-0.7-0.7-1.3-1.2-1.9c-1.1-1.2-2.5-2.1-4.2-2.7c-1.7-0.5-3.5-0.7-5.1-0.4c-1.3,0.2-2.5,0.7-3.5,1.5c0.1,0.1,0.2,0.2,0.2,0.3
		c0.7-0.5,1.6-0.8,2.5-0.9c1.3-0.2,2.7-0.1,4,0.3c1.3,0.4,2.5,1.2,3.4,2.2C46.2,31.1,46.6,31.6,46.8,32.2 M38.5,32.2h6.1H45
		c-0.1-0.2-0.3-0.4-0.4-0.6C43.9,30.9,43,30.3,42,30c-1.1-0.3-2.2-0.4-3.2-0.3c-0.6,0.1-1.2,0.3-1.7,0.6
		C37.6,31,38.2,31.8,38.5,32.2 M34.9,32.2h1.6c-0.6-0.7-1.3-1.6-1.6-2.1c-1.2-1.4-3.3-3.7-5.7-5.1l0,0c-1.6-0.9-3.3-1.5-5.1-1.3
		c-1.5,0.2-2.7,0.7-3.6,1.3c0.6-0.2,1.3-0.4,2.1-0.5C28.4,23.9,33.7,30.7,34.9,32.2 M19,32.2h5.1H28c-1.3-1.4-3.3-3.1-5.4-2.9
		C20.2,29.6,19.3,31.3,19,32.2 M16.8,32.2h0.6c0.3-1.1,1.4-4.1,5-4.5c3.4-0.4,6.5,2.9,7.7,4.5h2.8c-1.8-2.2-5.9-6.5-10.1-6.1
		C18.3,26.7,17.1,30.8,16.8,32.2 M11.7,32.2h3.4c0.1-0.5,0.3-1.4,0.7-2.4c0.2-1.1,1.5-6.5,7.3-7.5c1.7-2,3.8-3.4,6.1-4.1
		c2.3-0.7,4.8-0.9,7.1-0.5c2.3,0.4,4.4,1.3,6,2.5c1.1,0.9,2,2,2.5,3.2c0.5,0.1,0.9,0.2,1.4,0.4c2.5,0.8,4.9,2.3,6.5,4.2
		c1,1.2,1.8,2.6,2.3,4.2h2h1.2v1.2v2.9v0.1l0,0.2c-0.8,3-3.2,4.3-5.6,5.6c-1.7,0.9-3.4,1.8-4.4,3.4l-0.4,0.6h-0.7H43H25.8h-4.2h-0.7
		l-0.4-0.6c-1-1.5-2.7-2.5-4.4-3.4c-2.5-1.3-4.8-2.6-5.6-5.6l0-0.2v-0.1v-2.9v-1.2H11.7z M20.6,47.5h27.8v1.6H20.6V47.5z"/>
</g>
</svg>
